<svg width="379" height="127" viewBox="0 0 379 127" xmlns="http://www.w3.org/2000/svg">
    <defs>
        <linearGradient x1="50%" y1="0%" x2="50%" y2="100%" id="7tmc98469a">
            <stop stop-color="#63BA45" offset="0%"/>
            <stop stop-color="#8DC644" offset="100%"/>
        </linearGradient>
    </defs>
    <g fill="none" fill-rule="evenodd">
        <path d="M131.934 36.102c-1.329-3.053-3.154-5.624-5.476-7.716-2.326-2.094-5.064-3.667-8.213-4.732-3.156-1.059-6.523-1.591-10.11-1.591-3.583 0-6.986.547-10.204 1.643a25.478 25.478 0 0 0-7.345 3.906L86.7 33.485l-.002.005 2.11-9.735c-1.259-.664-2.505-1.11-3.73-1.345a19.08 19.08 0 0 0-3.537-.347c-4.447 0-7.863 2.223-10.256 6.67v-6.174l-22.353 2.697 4.474-2.384a20.856 20.856 0 0 0-.68-1.758c-1.229-2.753-3.02-5.108-5.376-7.067-2.355-1.957-5.261-3.468-8.712-4.532-3.453-1.06-7.369-1.59-11.751-1.59H1v62.23h19.616V53.427h4.977c9.56 0 16.78-1.992 21.657-5.972 2.147-1.754 3.818-3.842 5.019-6.27v28.97h19.017V44.568c1.196-2.06 2.54-3.47 4.032-4.234a10.476 10.476 0 0 1 4.83-1.144c.854 0 1.677.093 2.475.259-.642 2.323-.972 4.855-.972 7.605 0 4.051.663 7.617 1.991 10.704 1.327 3.087 3.15 5.659 5.477 7.716 2.32 2.06 5.059 3.602 8.213 4.63 3.153 1.03 6.523 1.544 10.11 1.544 3.583 0 6.984-.547 10.203-1.642 3.22-1.096 6.04-2.72 8.463-4.88 2.423-2.156 4.33-4.78 5.725-7.866 1.396-3.084 2.092-6.62 2.092-10.603 0-3.983-.664-7.501-1.991-10.555m-99.22.66c-1.63 1.353-4.199 2.063-7.718 2.127l-4.977.098V22.859h5.376c6.505 0 9.758 2.572 9.758 7.718 0 2.772-.812 4.834-2.44 6.185m80.55 18.108c-1.228 1.892-3.035 2.839-5.426 2.839-2.456 0-4.298-.93-5.524-2.79-1.23-1.857-1.843-4.511-1.843-7.964 0-3.52.612-6.24 1.843-8.166 1.226-1.923 3.035-2.888 5.424-2.888 2.455 0 4.298.948 5.527 2.842 1.229 1.888 1.843 4.563 1.843 8.014 0 3.519-.614 6.22-1.843 8.113" fill="#221E1F"/>
        <path d="M169.456 71.437c-18.2 0-30.96-12.562-30.96-32.246 0-19.684 13.056-32.543 30.96-32.543 7.22 0 15.43 2.078 20.574 5.342l-2.77 7.715c-5.044-3.165-11.473-5.538-17.804-5.538-13.452 0-22.453 9.297-22.453 24.628 0 15.332 9.1 25.125 22.65 25.125 5.144 0 9.793-1.287 13.452-3.166V46.115h-17.31v-7.814h25.422v27.2c-6.43 3.957-15.035 5.936-21.761 5.936M206.35 53.138c0 7.913 2.967 10.485 8.902 10.485 5.242 0 9.693-2.473 12.363-4.946V24.651h8.112v45.5l-8.112 1.286V64.81c-4.253 4.253-9.396 6.627-15.232 6.627-8.704 0-14.144-5.737-14.144-15.629V24.651h8.11v28.487zM252.145 57.49c0 4.056 2.968 7.023 8.013 7.023 4.252 0 7.715-2.077 10.385-4.847V47.4c-13.452 1.682-18.398 4.55-18.398 10.089m5.836 13.947c-8.506 0-14.442-5.54-14.442-12.958 0-8.21 5.837-15.133 27.004-16.221V40.97c0-7.417-2.769-10.286-10.188-10.286-4.648 0-10.386 2.176-14.64 5.044l-1.582-7.32c3.957-2.77 10.585-5.241 17.014-5.241 12.363 0 17.803 5.242 17.507 17.605v18.992c0 3.66.494 4.45 4.45 4.45l-.494 6.826c-7.418.692-10.583-1.978-11.77-5.934h-.396c-3.461 4.054-7.617 6.33-12.463 6.33M289.435 69.953v-45.5l8.111-1.285v8.011c3.165-5.044 6.825-8.011 12.66-8.011 3.265 0 6.034.79 8.507 2.274l-2.077 7.616c-2.473-1.483-4.946-2.077-7.22-2.077-4.353 0-8.408 3.067-11.87 9.397v29.575h-8.11zM343.441 30.487c-9.2 0-14.342 7.616-14.342 16.815 0 9.99 5.044 16.617 13.452 16.617 4.253 0 7.913-1.682 10.979-4.352V33.75c-2.67-2.177-6.034-3.264-10.089-3.264zM361.641 2v67.953h-8.111v-4.155c-3.264 3.067-7.221 5.639-12.661 5.639-12.76 0-20.178-10.287-20.178-23.937 0-13.75 9.496-24.333 23.047-24.333 3.264 0 6.924.594 9.792 1.484V3.286L361.64 2z" fill="#9B7349"/>
        <path d="M377.587 10.16h-.182l-1.215 4.024h-1.686l-1.017-4.04h-.168l-.045 4.223h-1.383l.107-5.665h2.582l.744 3.918h.198l.927-3.918h2.506l.045 5.665h-1.473l.06-4.207zm-8.429 4.207h-1.534v-4.343h-1.914V8.702h5.53v1.322h-2.082v4.343z" fill="#231F20"/>
        <path fill="url(#7tmc98469a)" d="m146.97 84.127-10.23 40.457h213.908l10.231-40.457z" transform="translate(1 2)"/>
        <path fill="#FEFEFE" d="M191.762 116.78h-5.825l-4.695-16.14-.137 16.483h-5.071l.753-21.418h7.71l4.455 16.072 4.455-16.072h7.607l.72 21.418h-5.175l-.103-16.517zM211.158 108.316h5.585l-2.741-8.395-2.844 8.395zm8.36 8.807-1.576-4.557h-7.949l-1.542 4.557h-5.415l7.607-21.418h6.82l7.47 21.418h-5.415zM234.934 117.637c-6.854 0-11.514-4.112-11.514-11.136 0-7.026 4.557-11.31 11.548-11.31 2.707 0 6.065.584 8.053 1.85l-1.714 4.558c-2.056-1.198-4.111-1.781-6.168-1.781-3.872 0-6.305 2.536-6.305 6.545 0 4.284 2.125 6.82 6.236 6.82 1.235 0 2.502-.275 3.427-.651v-3.154h-5.277v-4.317h10.212v10.588c-2.33 1.269-5.345 1.988-8.498 1.988M289.31 108.316h5.586l-2.741-8.395-2.844 8.395zm8.361 8.807-1.575-4.557h-7.95l-1.541 4.557h-5.414l7.606-21.418h6.82l7.47 21.418h-5.416zM314.29 117.637c-6.853 0-11.513-4.112-11.513-11.136 0-7.026 4.557-11.31 11.547-11.31 2.707 0 6.066.584 8.053 1.85l-1.714 4.558c-2.054-1.198-4.11-1.781-6.168-1.781-3.871 0-6.304 2.536-6.304 6.545 0 4.284 2.125 6.82 6.236 6.82 1.234 0 2.501-.275 3.427-.651v-3.154h-5.277v-4.317h10.211v10.588c-2.33 1.269-5.345 1.988-8.498 1.988M253.124 112.693s-4.566-8.55 3.11-14.185c9.132-5.15 17.78-.097 21.18-4.178.194 2.235.68 21.375-12.339 23.902-3.11.388-5.44.485-9.425-2.236 0 0-3.011 2.04-3.303 4.664l-2.332.098s.39-3.013 3.692-6.219c2.526-2.72 6.607-6.315 10.979-9.813.291-.291 0-1.554-.68-1.166-.984.562-7.773 5.83-10.882 9.133"/>
    </g>
</svg>
