<svg width="24" height="13" viewBox="0 0 24 13" xmlns="http://www.w3.org/2000/svg">
    <g fill="none" fill-rule="evenodd">
        <path d="M6.4.887C10.08.89 13.92.89 17.6.89v11.998H6.403L6.4.887" fill="#FFF"/>
        <path d="M0 .887C2.103.89 4.297.89 6.4.89v11.998H.002L0 .887M17.6.887C19.703.89 21.897.89 24 .89v11.998h-6.398l-.002-12M12.007 1.687l.83 1.627c.084.163.159.184.317.093l.79-.455-.201 1.043-.318 1.63c-.017.088-.01.17.08.218.078.042.15.022.23-.063l.993-1.062c.07-.076.071-.076.114.025.07.165.14.331.212.497.056.128.113.155.254.125l1.306-.276c.01-.002.019-.002.04-.002-.01.03-.016.06-.025.087l-.427 1.312c-.056.173-.033.226.133.303l.465.217c-.005.044-.043.055-.068.076l-2.312 1.87c-.11.088-.12.127-.073.258l.283.782-.669-.115c-.509-.09-1.017-.179-1.526-.266-.195-.033-.32.076-.31.275.02.429.044.857.067 1.285.015.28.028.56.046.84.004.061-.014.079-.074.076a3.39 3.39 0 0 0-.31 0c-.063.003-.083-.013-.08-.08.025-.399.044-.798.065-1.198.016-.306.035-.611.049-.917.01-.206-.113-.315-.315-.28-.687.118-1.374.24-2.06.36l-.128.019.104-.295c.06-.164.12-.327.178-.49.044-.123.031-.17-.07-.252L7.269 7.073c-.02-.016-.038-.033-.069-.06l.483-.225c.158-.074.183-.132.129-.299l-.46-1.409.431.09.937.2c.121.025.186-.009.237-.127l.25-.587c.037.005.05.033.069.052.333.356.666.712.998 1.07.051.054.105.095.185.082.101-.016.153-.104.129-.23-.046-.245-.095-.488-.142-.73-.126-.645-.25-1.29-.38-1.95l.68.392.133.077c.132.074.217.05.285-.083l.593-1.162.25-.487" fill="red"/>
    </g>
</svg>
