<svg width="56" height="53" viewBox="0 0 56 53" xmlns="http://www.w3.org/2000/svg">
    <g fill="none" fill-rule="evenodd">
        <path d="M17.203 17.586c5.217 5.217 3.847 15.042 3.847 15.042s-9.821 1.367-15.038-3.85c-5.217-5.218-3.85-15.039-3.85-15.039s9.824-1.37 15.041 3.847zM30.318 8.428c8.36-8.36 24.106-6.169 24.106-6.169s2.188 15.745-6.168 24.106c-8.36 8.357-24.106 6.168-24.106 6.168s-2.192-15.745 6.168-24.105z" stroke="#099B09" stroke-width="2"/>
        <path d="M44.432 12.231S29.039 24.198 24.159 32.504c-3.513 5.978-2.192 14.826-.876 18.95" stroke="#099B09" stroke-width="2" stroke-linecap="round"/>
        <path fill="#FEFEFE" d="m23.162 34.623-.072-.072L8.978 20.53"/>
        <path stroke="#099B09" stroke-width="2" stroke-linecap="round" d="m23.162 34.623-.072-.072L8.978 20.53"/>
    </g>
</svg>
