<svg width="216" height="61" viewBox="0 0 216 61" xmlns="http://www.w3.org/2000/svg" xmlns:xlink="http://www.w3.org/1999/xlink">
    <defs>
        <path id="d7tkpy6ioa" d="M0 60.394h216V0H0z"/>
    </defs>
    <g transform="translate(0 .536)" fill="none" fill-rule="evenodd">
        <path d="M69.536 34.358h3.843v1.52c1.338-1.318 2.846-1.977 4.524-1.977 1.928 0 3.43.603 4.507 1.808.93 1.025 1.395 2.698 1.395 5.018v10.086h-3.844v-9.19c0-1.622-.227-2.743-.68-3.363-.442-.63-1.248-.946-2.415-.946-1.27 0-2.172.417-2.705 1.25-.521.823-.782 2.259-.782 4.309v7.94h-3.843V34.358zM88.635 34.358h3.844v1.52c1.337-1.318 2.846-1.977 4.524-1.977 1.927 0 3.43.603 4.507 1.808.93 1.025 1.394 2.698 1.394 5.018v10.086h-3.843v-9.19c0-1.622-.227-2.743-.68-3.363-.443-.63-1.248-.946-2.416-.946-1.27 0-2.171.417-2.704 1.25-.521.823-.782 2.259-.782 4.309v7.94h-3.844V34.358zM110.864 42.535c0 1.644.442 2.945 1.327 3.903.906.968 2.102 1.453 3.588 1.453 1.497 0 2.693-.48 3.588-1.436.896-.958 1.344-2.236 1.344-3.836 0-1.599-.448-2.877-1.344-3.835-.907-.968-2.103-1.453-3.588-1.453-1.463 0-2.648.485-3.555 1.453-.907.97-1.36 2.22-1.36 3.75m-3.912-.067c0-2.376.856-4.398 2.568-6.065 1.712-1.667 3.798-2.5 6.259-2.5 2.472 0 4.57.839 6.293 2.517 1.7 1.678 2.55 3.74 2.55 6.183 0 2.467-.855 4.534-2.567 6.2-1.724 1.656-3.838 2.484-6.344 2.484-2.483 0-4.564-.845-6.242-2.534-1.678-1.667-2.517-3.762-2.517-6.285M129.712 34.358l4.286 9.241 4.27-9.241h4.302l-8.606 17.587-8.538-17.587zM147.051 42.535c0 1.577.426 2.86 1.276 3.852.873 1.002 1.973 1.504 3.3 1.504 1.417 0 2.562-.485 3.435-1.453.873-1.003 1.31-2.275 1.31-3.819 0-1.543-.437-2.816-1.31-3.818-.873-.98-2.007-1.47-3.402-1.47-1.315 0-2.415.496-3.299 1.487-.873 1.002-1.31 2.241-1.31 3.717zm9.082-8.177h3.844v16.455h-3.844V49.09c-1.576 1.464-3.27 2.196-5.085 2.196-2.29 0-4.184-.822-5.68-2.466-1.486-1.679-2.229-3.774-2.229-6.285 0-2.467.743-4.522 2.229-6.167 1.485-1.644 3.344-2.467 5.578-2.467 1.928 0 3.657.79 5.187 2.366v-1.91zM168.966 37.905v12.908h-3.827V37.905h-1.633v-3.547h1.633v-6.032h3.827v6.032h2.976v3.547z" fill="#007C85"/>
        <mask id="7siiwt7fyb" fill="#fff">
            <use xlink:href="#d7tkpy6ioa"/>
        </mask>
        <path fill="#007C85" mask="url(#7siiwt7fyb)" d="M175.607 50.813h3.827V34.357h-3.827zM186.233 34.358l4.285 9.241 4.27-9.241h4.303l-8.606 17.587-8.538-17.587zM211.918 40.372c-.533-2.027-1.82-3.04-3.86-3.04-.466 0-.902.07-1.31.21-.408.141-.78.344-1.114.608a3.87 3.87 0 0 0-.86.955c-.237.372-.418.794-.543 1.267h7.687zm3.929 3.109h-11.872c.102 1.351.545 2.427 1.327 3.227.782.788 1.786 1.182 3.01 1.182.953 0 1.74-.225 2.365-.675.612-.45 1.31-1.284 2.092-2.501L216 46.505c-.5.845-1.026 1.569-1.582 2.171a8.398 8.398 0 0 1-1.785 1.487 7.196 7.196 0 0 1-2.058.853c-.738.18-1.537.27-2.399.27-2.471 0-4.455-.788-5.952-2.365-1.497-1.588-2.245-3.694-2.245-6.318 0-2.603.725-4.709 2.177-6.32 1.462-1.588 3.401-2.381 5.817-2.381 2.437 0 4.364.771 5.782 2.314 1.406 1.532 2.109 3.655 2.109 6.37l-.017.895zM63.05 54.824l-.668.393c-.124-.215-.244-.356-.356-.42a.834.834 0 0 0-.456-.113.843.843 0 0 0-.568.193.596.596 0 0 0-.226.476c0 .265.198.477.593.639l.544.22c.442.179.766.395.97.651.205.256.308.57.308.942 0 .498-.167.91-.502 1.235-.336.327-.754.49-1.253.49-.473 0-.863-.138-1.172-.417-.303-.278-.493-.67-.568-1.175l.833-.182c.038.318.104.538.198.66.17.233.416.35.74.35.257 0 .47-.086.64-.256a.883.883 0 0 0 .254-.65.892.892 0 0 0-.044-.288.725.725 0 0 0-.138-.242 1.1 1.1 0 0 0-.242-.207 2.357 2.357 0 0 0-.353-.184l-.526-.218c-.746-.313-1.119-.771-1.119-1.374 0-.407.157-.747.47-1.021.313-.276.702-.414 1.169-.414.628 0 1.118.304 1.471.912M70.3 54.018v3.261c0 .465.077.805.23 1.02.228.311.55.467.964.467.416 0 .739-.156.967-.467.153-.208.23-.548.23-1.02v-3.261h.822v3.485c0 .57-.179 1.04-.536 1.41a1.993 1.993 0 0 1-1.483.617 1.982 1.982 0 0 1-1.48-.617c-.357-.37-.536-.84-.536-1.41v-3.485h.823zM80.724 56.504h.262c.779 0 1.168-.296 1.168-.887 0-.555-.379-.831-1.137-.831h-.293v1.718zm1.024.62 1.688 2.308h-1.007l-1.556-2.216h-.149v2.216h-.822v-5.414h.964c.72 0 1.24.134 1.56.403.353.3.53.694.53 1.185 0 .384-.111.713-.332.99a1.48 1.48 0 0 1-.876.529zM92.06 54.786h-1.9v1.3h1.832v.768H90.16v2.578h-.823v-5.415h2.722zM101.027 57.35l-.809-1.842-.847 1.841h1.656zm.335.767H99.03l-.607 1.315h-.886l2.696-5.755 2.602 5.755h-.9l-.572-1.315zM112.797 54.309v.967c-.475-.395-.967-.592-1.475-.592-.56 0-1.032.2-1.416.6-.386.397-.579.883-.579 1.458 0 .568.193 1.048.58 1.438.385.39.858.586 1.418.586.29 0 .536-.047.738-.14.113-.047.23-.11.352-.19.12-.08.248-.175.382-.288v.986c-.47.264-.965.396-1.482.396-.78 0-1.444-.27-1.995-.81a2.675 2.675 0 0 1-.822-1.97c0-.69.229-1.305.688-1.845.565-.662 1.296-.993 2.192-.993.49 0 .963.133 1.42.397M121.82 54.786h-2.186v1.3h2.122v.768h-2.122v1.81h2.186v.768h-3.008v-5.415h3.008zM136.783 54.824l-.667.393c-.125-.215-.244-.356-.356-.42a.834.834 0 0 0-.456-.113.843.843 0 0 0-.568.193.596.596 0 0 0-.226.476c0 .265.197.477.593.639l.543.22c.443.179.766.395.971.651.205.256.307.57.307.942 0 .498-.167.91-.501 1.235-.336.327-.754.49-1.253.49-.473 0-.864-.138-1.172-.417-.304-.278-.493-.67-.569-1.175l.834-.182c.037.318.103.538.197.66.17.233.417.35.742.35.256 0 .47-.086.639-.256a.883.883 0 0 0 .254-.65.892.892 0 0 0-.045-.288.725.725 0 0 0-.137-.242 1.1 1.1 0 0 0-.242-.207 2.357 2.357 0 0 0-.353-.184l-.526-.218c-.746-.313-1.119-.771-1.119-1.374 0-.407.157-.747.47-1.021.313-.276.702-.414 1.168-.414.628 0 1.12.304 1.472.912M143.663 56.71c0 .6.203 1.092.608 1.477.402.386.867.579 1.394.579a1.97 1.97 0 0 0 1.447-.59c.393-.397.59-.88.59-1.451 0-.577-.194-1.061-.583-1.452a1.928 1.928 0 0 0-1.433-.59c-.567 0-1.046.197-1.437.59-.39.388-.586.867-.586 1.438m-.83-.01c0-.763.282-1.417.844-1.964a2.787 2.787 0 0 1 2.02-.821c.776 0 1.442.276 1.998.827.558.552.837 1.215.837 1.989 0 .779-.28 1.439-.84 1.981a2.822 2.822 0 0 1-2.037.817c-.704 0-1.336-.242-1.896-.725-.617-.536-.925-1.237-.925-2.105M155.471 54.018v4.646h1.603v.768h-2.426v-5.414zM163.7 54.018v3.261c0 .465.076.805.23 1.02.227.311.549.467.963.467.416 0 .739-.156.967-.467.153-.208.23-.548.23-1.02v-3.261h.822v3.485c0 .57-.179 1.04-.536 1.41a1.993 1.993 0 0 1-1.483.617 1.982 1.982 0 0 1-1.48-.617c-.357-.37-.536-.84-.536-1.41v-3.485h.823zM175.018 54.786v4.646h-.823v-4.646h-1.253v-.769h3.325v.769zM182.084 59.432h.823v-5.414h-.823zM189.963 56.71c0 .6.203 1.092.608 1.477.402.386.867.579 1.394.579a1.97 1.97 0 0 0 1.447-.59c.393-.397.59-.88.59-1.451 0-.577-.194-1.061-.583-1.452a1.928 1.928 0 0 0-1.433-.59c-.567 0-1.046.197-1.437.59-.39.388-.586.867-.586 1.438m-.83-.01c0-.763.282-1.417.844-1.964a2.787 2.787 0 0 1 2.02-.821c.776 0 1.442.276 1.998.827.558.552.837 1.215.837 1.989 0 .779-.28 1.439-.84 1.981a2.822 2.822 0 0 1-2.038.817c-.703 0-1.335-.242-1.895-.725-.617-.536-.925-1.237-.925-2.105M200.842 59.432V53.65l3.975 4.131v-3.762h.823v5.744l-3.975-4.12v3.79zM215.323 54.824l-.667.393c-.124-.215-.244-.356-.356-.42a.834.834 0 0 0-.456-.113.843.843 0 0 0-.568.193.595.595 0 0 0-.226.476c0 .265.198.477.593.639l.544.22c.442.179.766.395.97.651.205.256.308.57.308.942 0 .498-.168.91-.502 1.235-.336.327-.754.49-1.253.49-.473 0-.864-.138-1.172-.417-.303-.278-.493-.67-.568-1.175l.833-.182c.038.318.103.538.197.66.17.233.417.35.742.35.257 0 .47-.086.639-.256a.882.882 0 0 0 .254-.65.892.892 0 0 0-.044-.288.725.725 0 0 0-.138-.242 1.096 1.096 0 0 0-.241-.207 2.4 2.4 0 0 0-.353-.184l-.527-.218c-.746-.313-1.119-.771-1.119-1.374 0-.407.157-.747.47-1.021.313-.276.702-.414 1.168-.414.629 0 1.12.304 1.472.912M212.86 31.345l.549-2.772.852 1.877.851-1.877.55 2.772h-.477l-.238-1.383-.686 1.429-.686-1.43-.242 1.384h-.474zm-.722-2.105v2.105h-.465V29.24h-.564v-.437h1.593v.437h-.564z"/>
        <path d="M59.922 28.752c0-.664.244-1.239.732-1.723a2.398 2.398 0 0 1 1.751-.727 2.42 2.42 0 0 1 1.77.727c.487.473.73 1.053.73 1.74s-.243 1.273-.73 1.757a2.362 2.362 0 0 1-1.753.726 2.415 2.415 0 0 1-1.768-.726 2.404 2.404 0 0 1-.732-1.774M175.075 28.752c0-.664.243-1.239.731-1.723a2.398 2.398 0 0 1 1.752-.727 2.42 2.42 0 0 1 1.769.727c.487.473.73 1.053.73 1.74s-.243 1.273-.73 1.757a2.362 2.362 0 0 1-1.752.726 2.415 2.415 0 0 1-1.769-.726 2.404 2.404 0 0 1-.731-1.774" fill="#D3A201" mask="url(#7siiwt7fyb)"/>
        <path d="M20.633 31.688h1.473v-5.895h-1.473v5.895zm0 7.604h1.473v-5.894h-1.473v5.894zm0 8.725h1.473v-7.015h-1.473v7.015zm1.473-28.473v4.54h-1.474v-4.54h-2.73L12.72 33.678l2.27 2.59c1.484 1.945 1.247 4.715 1.247 4.715l.07 9.641a6.886 6.886 0 0 0-.022.507c0 .218.011.432.03.644l.001.035.005.001c.29 3.005 2.482 5.341 5.145 5.341 2.48 0 4.55-2.026 5.059-4.731.066-.581.107-1.604.107-1.604l-.097-9.834s-.237-2.77 1.247-4.716l2.248-2.564-5.193-14.16h-2.73z" fill="#007C85" mask="url(#7siiwt7fyb)"/>
        <path d="M25.57 12.34c0 2.301-1.877 4.166-4.193 4.166s-4.194-1.865-4.194-4.166c0-2.3 1.878-4.165 4.194-4.165s4.194 1.865 4.194 4.165M30.1 49.646H12.357a.742.742 0 0 1-.742-.737c0-.405.334-.737.742-.737H30.1c.408 0 .742.332.742.737a.742.742 0 0 1-.742.737M30.1 52.2H12.357a.742.742 0 0 1-.742-.736c0-.406.334-.737.742-.737H30.1c.408 0 .742.331.742.737a.742.742 0 0 1-.742.736M30.1 54.755H12.357a.742.742 0 0 1-.742-.737c0-.405.334-.737.742-.737H30.1c.408 0 .742.332.742.737a.742.742 0 0 1-.742.737" fill="#D3A201" mask="url(#7siiwt7fyb)"/>
        <path d="m34.63 28.473-6.825 7.782c-1.484 1.945-1.247 4.715-1.247 4.715l.097 9.834s-.041 1.023-.107 1.604c-.509 2.705-2.58 4.731-5.06 4.731-2.662 0-4.853-2.336-5.144-5.34l-.005-.002v-.035a6.99 6.99 0 0 1-.03-.644c0-.171.01-.34.022-.507l-.071-9.64s.237-2.771-1.246-4.716L8.85 29.227c-4.221-4.782-5.426-6.59-5.426-10.844 0-8.351 8.005-15.12 17.88-15.12 9.875 0 17.88 6.769 17.88 15.12 0 3.876-1.857 6.848-4.563 10.087l.008.003zM21.276 0C9.526 0 0 8.182 0 18.274c0 5.09 2.7 9.285 6.331 13.004 1.058 1.182 4.842 5.46 5.656 7.079 0 0 .712 1.179.712 5.03v7.27s.029 1.466.074 1.927c.358 4.37 4.056 7.81 8.578 7.81 4.6 0 8.354-3.561 8.597-8.04.002-.002-.001-.004 0-.006v-.085c.006-.124.02-.245.02-.37s.005-.246 0-.37l-.02-8.136c0-3.851.713-5.03.713-5.03.512-1.019 2.201-3.091 3.647-4.783l3.78-4.104c2.797-3.092 4.466-6.976 4.466-11.196C42.554 8.182 33.027 0 21.277 0z" fill="#D3A201" mask="url(#7siiwt7fyb)"/>
        <path fill="#007C85" mask="url(#7siiwt7fyb)" d="M60.436 50.813h3.827V34.357h-3.827z"/>
    </g>
</svg>
