<svg width="150" height="55" viewBox="0 0 150 55" xmlns="http://www.w3.org/2000/svg">
    <g fill="none" fill-rule="evenodd">
        <path d="M137.72 30.232a13.544 13.544 0 0 1-4.736.836c-1.652 0-3.166-.29-4.541-.87a9.922 9.922 0 0 1-3.522-2.467c-.971-1.065-1.724-2.355-2.258-3.871-.535-1.516-.802-3.21-.802-5.08 0-1.871.267-3.548.802-5.032.534-1.483 1.278-2.749 2.234-3.798a9.362 9.362 0 0 1 3.473-2.394c1.36-.548 2.865-.823 4.517-.823 1.586 0 3.027.211 4.323.631 1.295.422 2.623 1.07 3.983 1.944l1.311-3.756c-1.23-.787-2.704-1.41-4.42-1.87a20.025 20.025 0 0 0-5.197-.689c-2.203 0-4.234.381-6.096 1.142-1.862.76-3.465 1.838-4.809 3.23-1.344 1.392-2.397 3.068-3.157 5.027-.761 1.96-1.141 4.153-1.141 6.582 0 2.428.372 4.614 1.117 6.557.744 1.943 1.789 3.602 3.133 4.979 1.343 1.376 2.946 2.436 4.808 3.181 1.862.745 3.91 1.117 6.145 1.117 1.716 0 3.4-.227 5.051-.68 1.652-.453 3.093-1.069 4.324-1.846l-.68-4.128c-1.07.829-2.356 1.522-3.862 2.078" fill="#005596"/>
        <path d="M126.776 29.888c.022-.792.603-1.476 1.2-1.662 1.284-.398 2.508 2.48 3.812.87.464-.572 1.133-1.273 1.726-.526.485.611.74 1.688 1.596 1.694 0 0 1.356-.699 1.673.266l.108 3.414s-.112 1.067-.737-.192c-.352-.71-1.217-1.616-1.949-1.322-.391.157-.552.56-.75.958-.094.186-.497.902-.75.51 0 0-.113.08-.152-1.082 0 0-.025-1.972-1.535-1.475a2.095 2.095 0 0 0-1.075.764c-.266.36-.47.863-.52 1.346-.026.264.04 1.04-.303 1.099-.57.1-.644-1.562-.65-1.999-.01-.64-.295-1.364-.812-1.604-.46-.213-.903-.296-.882-1.06" fill="#FEFEFE"/>
        <path d="M128.23 27.693c-.137 0-.271.02-.4.06-.857.267-1.522 1.178-1.548 2.12-.028 1.006.598 1.276 1.012 1.455.051.022.103.044.155.068.287.133.517.644.526 1.163.024 1.652.393 2.49 1.096 2.49a.779.779 0 0 0 .134-.011c.675-.118.694-.931.705-1.368.001-.067.002-.126.006-.169.038-.376.2-.798.425-1.103.21-.283.474-.47.83-.586a.983.983 0 0 1 .3-.056c.55 0 .587 1.056.587 1.066.024.706.043 1.288.351 1.493.17.165.36.193.47.193.47 0 .814-.49 1.018-.9l.06-.124c.16-.325.266-.528.433-.595a.297.297 0 0 1 .112-.021c.352 0 .917.516 1.209 1.104.218.44.501.89.947.89.391 0 .669-.332.725-.866a.5.5 0 0 0 .003-.067l-.109-3.415a.494.494 0 0 0-.024-.138c-.178-.541-.62-.851-1.215-.851-.41 0-.808.145-1.014.234-.251-.059-.435-.358-.694-.818-.13-.231-.263-.47-.428-.679-.336-.422-.704-.51-.954-.51-.621 0-1.13.521-1.544 1.032-.252.311-.42.311-.474.311-.283 0-.67-.303-1.045-.596-.506-.396-1.03-.806-1.656-.806m0 .495c.91 0 1.793 1.402 2.7 1.402.284 0 .57-.136.859-.494.32-.394.737-.85 1.16-.85.19 0 .382.092.566.324.485.611.74 1.688 1.596 1.694 0 0 .474-.244.928-.244.312 0 .615.116.745.51l.108 3.414s-.044.422-.233.422c-.11 0-.272-.146-.504-.614-.305-.615-.996-1.379-1.652-1.379-.1 0-.2.018-.297.057-.391.157-.552.56-.75.958-.074.147-.342.625-.576.625-.062 0-.122-.033-.175-.115l-.004.001c-.022 0-.113-.061-.147-1.083 0 0-.02-1.555-1.082-1.555-.134 0-.284.025-.453.08a2.095 2.095 0 0 0-1.075.764c-.266.36-.47.863-.52 1.346-.026.265.04 1.039-.303 1.099a.284.284 0 0 1-.049.004c-.526 0-.595-1.579-.601-2.003-.01-.64-.295-1.364-.812-1.603-.46-.214-.903-.297-.882-1.06.022-.792.603-1.476 1.2-1.662a.845.845 0 0 1 .253-.038" fill="#005696"/>
        <path d="M126.502 3.041s-.816-.11-1.645 1.533c0 0-1.385 2.203-.666 2.786.669.543 1.281-.456 1.838-.709.558-.25 1.144.06 1.255.756 0 0 .636 4.009 1.4 3.328 0 0 .374-.173.508-2.806.038-.73.25-1.54.628-2.143.549-.877 1.486-.292 1.915.43.231.386.221 1.125.542 1.406.48.423.71-.955.824-1.254.268-.706 1.053-1.502 1.74-1.113.743.418.467 1.724.491 2.493.014.484.085 1.785.779 1.456.91-.43.732-1.475.962-2.346.214-.812.735-.734 1.21-.236 0 0 1.95 2.807 1.044-.157 0 0-.497-1.945-.717-2.91-.111-.49-.167-.81-.535-1.112a1.482 1.482 0 0 0-1.491-.237c-.39.15-1.094-.106-1.454-.263-.433-.188-.723-.528-1.099-.81-.642-.481-1.467-.23-2.118.177-.38.238-.781.456-1.202.561-.487.122-.813-.017-1.268-.128-.586-.145-1.183.235-1.559.777 0 0-.433 1.062-1.382.521" fill="#FEFEFE"/>
        <path d="m133.313.377-.022.494.022-.494c-.65-.028-1.262.263-1.662.513-.294.184-.679.406-1.06.5a1.015 1.015 0 0 1-.296.033c-.153-.007-.308-.048-.503-.1-.074-.02-.151-.041-.232-.06a1.55 1.55 0 0 0-.304-.044c-.65-.029-1.315.352-1.778 1.018a.49.49 0 0 0-.052.096s-.17.378-.422.366a.593.593 0 0 1-.257-.088.491.491 0 0 0-.24-.065c-.27-.012-1.215.082-2.081 1.784-.392.627-1.52 2.625-.547 3.415.207.167.434.258.675.268.515.023.931-.326 1.266-.606.15-.126.304-.255.413-.305a.434.434 0 0 1 .198-.041c.187.008.323.166.364.423.599 3.775 1.414 3.811 1.681 3.823a.732.732 0 0 0 .479-.155c.215-.124.597-.552.731-3.198.037-.697.244-1.41.554-1.906.134-.214.243-.21.29-.207.238.01.573.28.779.628.06.1.11.305.153.485.087.363.186.775.488 1.04.18.158.357.197.474.202.683.03.91-.813 1.076-1.428.026-.096.046-.176.064-.224.18-.474.62-.909.908-.896a.271.271 0 0 1 .126.038c.314.177.28.894.253 1.47-.01.216-.02.42-.013.608.014.48.057 1.944 1.03 1.987a.964.964 0 0 0 .455-.1c.908-.429 1.022-1.301 1.114-2.002.031-.237.06-.46.114-.665a.777.777 0 0 1 .095-.234c.045.018.135.069.255.188.948 1.356 1.358 1.374 1.513 1.38a.59.59 0 0 0 .5-.23c.226-.292.196-.755-.114-1.768 0 0-.492-1.928-.707-2.874l-.017-.076c-.106-.471-.207-.917-.688-1.31a1.97 1.97 0 0 0-1.981-.316c-.005.002-.045.016-.144.012-.226-.01-.575-.11-.935-.267-.225-.097-.412-.26-.629-.447a6.926 6.926 0 0 0-.37-.305 1.796 1.796 0 0 0-1.016-.36m-.022.494c.259.012.511.09.74.261.375.283.666.623 1.099.811.27.117.732.29 1.11.307a.864.864 0 0 0 .344-.044 1.48 1.48 0 0 1 1.49.237c.37.301.425.622.536 1.113.22.964.717 2.909.717 2.909.317 1.036.285 1.367.109 1.36-.327-.015-1.153-1.203-1.153-1.203-.216-.226-.441-.366-.643-.374-.242-.011-.45.167-.567.61-.23.87-.053 1.916-.962 2.346a.471.471 0 0 1-.222.052c-.488-.02-.544-1.081-.557-1.507-.024-.77.252-2.076-.49-2.494a.764.764 0 0 0-.348-.101c-.586-.026-1.17.625-1.393 1.214-.1.262-.288 1.35-.656 1.334a.278.278 0 0 1-.168-.08c-.32-.281-.31-1.02-.543-1.406-.268-.452-.735-.85-1.182-.87-.267-.012-.527.112-.732.44-.377.603-.59 1.414-.628 2.143-.134 2.633-.508 2.806-.508 2.806a.26.26 0 0 1-.186.078c-.679-.03-1.214-3.406-1.214-3.406-.083-.519-.43-.823-.832-.84a.931.931 0 0 0-.423.085c-.448.202-.933.89-1.453.867a.648.648 0 0 1-.385-.159c-.72-.583.666-2.786.666-2.786.761-1.509 1.511-1.54 1.63-1.534l.015.001c.178.102.338.147.48.153.616.027.902-.674.902-.674.332-.477.835-.83 1.35-.807.07.003.14.013.209.03.306.075.553.162.83.174.136.006.278-.006.438-.046.42-.105.822-.323 1.202-.56.419-.263.91-.46 1.378-.44" fill="#005696"/>
        <path fill="#005596" d="M144.35 2.806h.817v2.266h.518V2.806h.816v-.424h-2.15zM149.255 2.382l-.725 1.906-.733-1.906h-.751v2.69h.485V2.968h.013l.798 2.102h.362l.797-2.102h.013v2.102H150V2.382zM89.689 11.807l-2.37-1.129c-.651-.295-1.184-.733-1.453-1.124.63-1.568 2.9-3.1 2.9-3.1l-2.39 1.327a3.303 3.303 0 0 1-1.078.381c-.342-1.084.087-4.533.087-4.533-.489 1.752-1.19 3.525-2.028 4.249-1.091-.466-3.144-2.711-3.144-2.711 1.099 1.223 1.47 2.55 1.618 3.26-1.505.277-3.572.095-3.572.095 1.7.337 3.09.95 3.488 1.345l-.013.038c-.495 1.754-2.18 3.394-2.18 3.394 1.397-1.278 2.567-1.545 3.06-1.6.2 1.727-.132 4.304-.132 4.304.528-2.14 1.208-3.459 1.791-3.996 1.545.817 3.262 2.789 3.262 2.789-1.223-1.501-1.655-2.723-1.797-3.536 1.624-.284 3.95.547 3.95.547"/>
        <path d="M81.87 7.315s1.316 2.076-.718 4.509c0 0 2.061-1.708 4.76.942 0 0-1.682-2.65.338-4.536 0 0-2.033 1.286-4.38-.915" fill="#FEFEFE"/>
        <path d="M.035 31.522c2.377 8.784 13.753 4.164 13.753 4.164C28.051 30.039 32.466 11.56 32.466 11.56c2.603 15.057-.482 23.242-.482 23.242l1.641-.029c.83-1.104 1.58-2.266 2.3-3.444a80.187 80.187 0 0 0 2.181-3.842c2.53-4.707 5.126-9.294 8.127-13.717-.509.898-3.439 17.025-3.439 17.025-.679 3.806.977 4.277.977 4.277 2.632.685 7.217-4.662 7.217-4.662l-1.19-1.24c-.805 1.368-1.867 1.839-1.867 1.839-1.57.684-.849-1.626-.849-1.626L51.54 5.429l-1.528.77c-3.778 1.753-5.476 6.201-5.476 6.201-5.178 11.465-8.107 14.16-8.107 14.16.254-.77.466-9.325.466-9.325.51-9.925-3.396-10.61-3.396-10.61-5.518-1.838-13.71.814-13.71.814 11.164-1.027 11.46 1.796 11.46 1.796-4.839 14.972-10.357 19.677-10.357 19.678-.198.398-.68.64-1.017.901-.46.358-.894.738-1.394 1.043a15.251 15.251 0 0 1-9.045 2.194 8.095 8.095 0 0 1-4.017-1.428c-.407-.28-.969-.614-1.252-1.042-2.25-3.422 1.104-6.76 1.104-6.76 1.74-1.753.976-2.18.976-2.18-.849-.899-2.25.755-2.25.755-4.64 4.62-3.961 9.126-3.961 9.126M60.453 19.758c-.085 1.198 0 6.374 0 6.374l-2.589 2.438c-.416.392-1.058-.06-1.336-.375-.55-.622-.55-1.892-.54-2.676.01-.474.062-.945.15-1.41.158-.846.432-1.672.783-2.455.332-.741.688-1.512 1.27-2.09a2.055 2.055 0 0 1 1.306-.615c.218-.017.411 0 .566.06.266.103.42.334.39.749m3.884 9.468c-.374-.29-.527-.827-.62-1.268-.264-1.268-.133-2.58-.126-3.863.007-1.525.048-3.053.162-4.575.055-.726.126-1.45.256-2.166.08-.45.163-.98.434-1.36 0 0-1.06.813-1.23.984a.97.97 0 0 0-.12-.079c-.357-.182-.84-.063-1.197.042-.445.131-.876.31-1.294.512-.52.251-1.026.531-1.524.826-.904.537-1.813 1.02-2.7 1.586-.767.49-1.593.999-2.217 1.68-1.09 1.192-1.894 2.674-1.942 4.33 0 0 0 5.433 2.122 5.647 0 0 1.655.47 3.905-1.968l2.377-2.48s.17 3.293.807 4.106l3.098-1.84c-.027.017-.171-.1-.19-.114M75.366 25.134l-3.056 2.481c-.622.656-1.358.485-1.358.485-1.613-.37-1.414-4.307-1.414-4.307.31-3.65 2.886-4.962 2.886-4.962 2.037-1.055 3.028.913 3.028.913l-.086 5.39zm4.5-9.183s-1.867.827-2.462 1.283c0 0-.65-1.14-3.622.314 0 0-5.178 3.08-5.8 3.536 0 0-2.294 1.568-2.209 5.477 0 0 .227 4.248 1.925 4.79 0 0 .877.313 2.094-.656l5.63-4.62.03 6.445s-.878 1.569-2.887 1.797c0 0-2.235.685-2.97-2.653L66.31 34.06s.934 2.253 2.887 2.338c0 0 3.905.143 6.338-2.28l3-2.91-.055-12.262s.395-1.826 1.385-2.995zM86.744 28.613l.027-10.409s.114-1.91-1.725-2.253l-3.906 2.623s2.378-.256 2.151 1.912l.085 9.353s.283 2.396 2.688 1.426c0 0 1.586-.6 2.377-1.426 0 0-1.442.742-1.697-1.226M96.337 18.033c1.047-.484 3.31.827 3.31.827l2.35-2.14c-2.802-1.567-5.066-.113-5.066-.113-2.32 1.426-5.32 4.391-5.32 4.391-1.783 1.598-1.5 4.99-1.5 4.99.396 2.796 3.565 5.02 3.565 5.02 1.84 1.398 3.056-.113 3.056-.113l3.708-4.107-3.877 2.11c-.99.342-2.915-2.851-2.915-2.851-1.273-2.368 0-4.963 0-4.963 1.415-2.281 2.689-3.05 2.689-3.05M105.24 24.418h8.524v-2.609h-8.523z" fill="#005596"/>
        <path fill="#231F20" d="M108.091 43.837h-.532l-.186.847-.187-.847h-1.616v.306h.36v.882h.374v-.882h.334l-.031.882h.344l.003-.875.21.856h.406l.208-.86.003.88h.352zM73.135 51.466c-.2.307-.493.461-.881.461-.4 0-.699-.151-.898-.453-.2-.302-.3-.734-.3-1.295 0-.571.1-1.014.3-1.326.2-.313.493-.47.881-.47.4 0 .699.154.898.462.2.307.3.742.3 1.302 0 .572-.1 1.011-.3 1.319m-13.089-2.943c-.264.22-.682.336-1.253.346l-.81.016v-2.62h.874c1.057 0 1.586.417 1.586 1.253 0 .45-.132.786-.397 1.005m16.123-.107a3.587 3.587 0 0 0-.89-1.254 3.77 3.77 0 0 0-1.334-.768 5.125 5.125 0 0 0-1.643-.26 5.11 5.11 0 0 0-1.658.268 4.15 4.15 0 0 0-1.194.635l-.63.954h-.001l.343-1.581a2.18 2.18 0 0 0-.607-.219 3.102 3.102 0 0 0-.574-.056c-.723 0-1.278.361-1.667 1.084v-1.004l-3.632.439.727-.388a3.142 3.142 0 0 0-.984-1.434c-.383-.318-.855-.563-1.416-.736-.56-.172-1.197-.259-1.909-.259h-4.207V53.95h3.188v-2.718h.809c1.553 0 2.726-.323 3.519-.97a3.05 3.05 0 0 0 .815-1.019v4.707h3.09v-4.157c.195-.335.413-.564.655-.688.243-.124.505-.186.785-.186.14 0 .273.015.402.042a4.622 4.622 0 0 0-.158 1.236c0 .658.108 1.237.324 1.739.216.501.512.92.89 1.254.377.334.822.585 1.335.752.512.167 1.06.251 1.642.251a5.11 5.11 0 0 0 1.658-.267 3.962 3.962 0 0 0 1.376-.793c.393-.35.703-.776.93-1.278.227-.501.34-1.076.34-1.723s-.108-1.219-.324-1.715M68.918 47.535l.017-.078z"/>
        <path fill="#231F20" d="m68.918 47.535-.1.457.001-.001.1-.456zM63.493 46.556l.46-.055V46.5l-.46.055v.001M63.224 46.588l.269-.032z"/>
        <path fill="#0082BA" d="m86.103 43.856-3.086 8.305-3.102-8.305h-1.826l-.34 10.098h1.342l.113-8.417 3.086 8.272h1.373l3.07-8.256.097 8.401h1.39l-.324-10.098zM94.852 49.398l-3.798.032c.033-.245.1-.483.203-.712.102-.23.242-.439.42-.625.177-.188.393-.337.646-.449a2.07 2.07 0 0 1 .848-.168c.582 0 1.007.165 1.276.496.27.331.405.77.405 1.314v.112zM93.3 46.312c-.517 0-1 .097-1.447.291a3.34 3.34 0 0 0-1.155.824 3.994 3.994 0 0 0-.767 1.268 4.534 4.534 0 0 0-.283 1.64c0 .56.091 1.078.275 1.551.183.474.438.884.768 1.228.327.345.72.612 1.179.8.457.188.966.283 1.526.283a5.75 5.75 0 0 0 1.35-.154 3.9 3.9 0 0 0 1.138-.46l-.242-1.228c-.301.2-.649.349-1.042.448-.393.1-.784.15-1.171.15-.356 0-.682-.062-.978-.185a2.201 2.201 0 0 1-.759-.514 2.484 2.484 0 0 1-.5-.778 2.79 2.79 0 0 1-.203-.996v-.064c.927 0 1.755-.005 2.488-.016.312-.01.617-.016.913-.016H95.966c.054-.162.094-.348.122-.558.026-.21.04-.417.04-.622 0-.883-.246-1.585-.735-2.108-.49-.522-1.188-.784-2.092-.784zM97.585 53.955h1.34v-11.1l-1.34.21zM104.756 53.292c-.033-.151-.06-.285-.081-.404-.022-.119-.038-.178-.049-.178a4.058 4.058 0 0 1-.662.202 3.24 3.24 0 0 1-.679.073c-.668 0-.991-.35-.97-1.05l.114-4.185h2.31l.049-1.195h-2.311l.049-1.697h-1.277l-.032 1.6-1.228.37-.048.841 1.228.081-.114 4.136c-.021.808.152 1.395.518 1.761.365.367.91.55 1.631.55.55 0 1.104-.108 1.664-.323a6.302 6.302 0 0 0-.112-.582M45.969 50.271c-.074.236-.18.437-.318.604a1.448 1.448 0 0 1-.504.393 1.553 1.553 0 0 1-.671.14c-.222 0-.436-.031-.641-.095a1.532 1.532 0 0 1-.52-.267V48.22a2.09 2.09 0 0 1 .57-.372c.212-.094.446-.14.702-.14.228 0 .435.045.62.135.185.09.341.215.47.372.127.158.226.348.297.569.07.221.106.463.106.724 0 .275-.037.53-.111.764m.196-2.484a1.86 1.86 0 0 0-1.467-.655c-.303 0-.572.06-.807.181-.236.121-.43.255-.585.403l.01-2.794-.636.131v6.95l.636-.272c.154.074.333.135.538.182.204.047.4.07.588.07.335 0 .642-.062.92-.186.279-.125.519-.298.72-.52.2-.221.357-.485.467-.792.11-.306.166-.64.166-1.003 0-.343-.047-.66-.141-.948a2.162 2.162 0 0 0-.409-.747M50.64 47.232l-1.423 3.814-1.453-3.814h-.676l1.806 4.557-.313.818c-.08.223-.16.403-.237.54a1.624 1.624 0 0 1-.227.324.632.632 0 0 1-.484.207c-.128 0-.249-.018-.363-.055a2.183 2.183 0 0 1-.343-.147l-.192.569c.142.06.283.11.424.149.141.04.3.06.474.06.155 0 .3-.023.439-.066.138-.044.267-.121.388-.232.121-.111.236-.261.343-.45a5.21 5.21 0 0 0 .323-.705l.373-1 1.796-4.569h-.656z"/>
    </g>
</svg>
