<svg width="150" height="64" viewBox="0 0 150 64" xmlns="http://www.w3.org/2000/svg" xmlns:xlink="http://www.w3.org/1999/xlink">
    <defs>
        <path id="cr4mobgj4a" d="M0 62.766h150V0H0z"/>
    </defs>
    <g transform="translate(0 .875)" fill="none" fill-rule="evenodd">
        <path fill="#231F20" d="m130.817 43.902-.336 1.538-.339-1.538h-2.928v.556h.651v1.598h.68v-1.598h.603l-.056 1.598h.623l.007-1.582.38 1.544h.736l.375-1.553.01 1.59h.632l-.075-2.153zM68.482 57.719c-.361.555-.893.835-1.596.835-.723 0-1.264-.273-1.626-.821-.362-.546-.541-1.328-.541-2.343 0-1.036.18-1.836.541-2.403.362-.567.894-.85 1.596-.85.723 0 1.265.278 1.626.836.362.555.542 1.344.542 2.359 0 1.036-.18 1.829-.542 2.387m-23.702-5.33c-.478.4-1.234.61-2.27.628l-1.465.028V48.3h1.582c1.915 0 2.872.756 2.872 2.27 0 .817-.24 1.424-.719 1.82m29.195-.193a6.48 6.48 0 0 0-1.61-2.27 6.863 6.863 0 0 0-2.417-1.394 9.317 9.317 0 0 0-2.975-.466 9.268 9.268 0 0 0-3.003.483 7.51 7.51 0 0 0-2.161 1.148l-1.143 1.729.62-2.863a3.975 3.975 0 0 0-1.096-.397c-.364-.068-.71-.1-1.041-.1-1.309 0-2.315.653-3.02 1.962V48.21l-6.577.794 1.318-.7a5.693 5.693 0 0 0-1.783-2.597c-.692-.577-1.549-1.02-2.564-1.335-1.015-.31-2.167-.467-3.458-.467H35.45v18.31h5.773v-4.921h1.463c2.814 0 4.937-.586 6.372-1.757a5.502 5.502 0 0 0 1.477-1.846v8.524h5.596v-7.527c.352-.607.749-1.022 1.187-1.246a3.082 3.082 0 0 1 1.421-.339c.252 0 .493.028.728.077a8.366 8.366 0 0 0-.287 2.238c0 1.192.196 2.242.588 3.15.39.908.927 1.666 1.61 2.27a6.745 6.745 0 0 0 2.418 1.363c.926.303 1.92.455 2.975.455a9.278 9.278 0 0 0 3.003-.483 7.24 7.24 0 0 0 2.49-1.437 6.814 6.814 0 0 0 1.684-2.315c.41-.908.614-1.948.614-3.12 0-1.17-.194-2.207-.586-3.105M60.846 50.6l.03-.14-.03.14z"/>
        <path fill="#231F20" d="m60.665 51.427.003-.002.177-.826zM51.022 48.828l.833-.1v-.002l-.833.1z"/>
        <path fill="#231F20" d="M50.535 48.884v.003l.488-.059v-.002z"/>
        <path fill="#0082BA" d="m91.964 43.939-5.588 15.038-5.617-15.038h-3.306l-.616 18.286h2.429l.205-15.243 5.589 14.98h2.487l5.558-14.952.175 15.215h2.518l-.586-18.286zM107.807 53.975l-6.877.058c.059-.446.182-.875.367-1.29.184-.416.438-.794.76-1.132a3.62 3.62 0 0 1 1.17-.812c.46-.203.972-.306 1.537-.306 1.052 0 1.822.299 2.31.901.488.597.733 1.393.733 2.378v.203zm-2.81-5.589c-.935 0-1.808.175-2.618.528-.81.35-1.507.847-2.093 1.49a7.204 7.204 0 0 0-1.388 2.299c-.34.887-.51 1.876-.51 2.968 0 1.015.162 1.95.496 2.81.331.858.793 1.6 1.388 2.223a6.142 6.142 0 0 0 2.138 1.449c.828.34 1.75.511 2.762.511.86 0 1.673-.093 2.443-.278a7.119 7.119 0 0 0 2.063-.833l-.439-2.223c-.546.359-1.173.63-1.885.81a8.557 8.557 0 0 1-2.12.27c-.647 0-1.235-.11-1.772-.334a3.987 3.987 0 0 1-1.374-.928 4.515 4.515 0 0 1-.908-1.412 5.056 5.056 0 0 1-.366-1.801v-.117c1.677 0 3.18-.01 4.505-.03a50.054 50.054 0 0 1 1.655-.028h2.851c.098-.294.17-.63.22-1.01.048-.381.074-.757.074-1.128 0-1.598-.446-2.87-1.332-3.817-.89-.945-2.152-1.419-3.79-1.419zM112.757 62.225h2.429v-20.1l-2.43.38zM125.743 61.026c-.06-.275-.11-.518-.15-.732-.037-.215-.067-.322-.086-.322-.39.156-.789.277-1.2.366-.41.086-.818.13-1.229.13-1.209 0-1.794-.632-1.755-1.9l.206-7.577h4.183l.087-2.166h-4.184l.089-3.073h-2.313l-.058 2.898-2.224.672-.086 1.522 2.224.147-.206 7.49c-.04 1.463.273 2.524.936 3.19.663.662 1.647.993 2.954.993.994 0 2-.196 3.015-.585-.059-.39-.126-.742-.203-1.053M27.745 50.052l-2.576 6.904-2.63-6.904h-1.222l3.269 8.25-.567 1.485c-.145.401-.29.728-.43.977-.14.25-.277.446-.41.586-.133.14-.273.238-.42.292a1.26 1.26 0 0 1-.458.081 2.18 2.18 0 0 1-.658-.098 4.039 4.039 0 0 1-.62-.266l-.346 1.03c.255.107.511.198.766.27.256.07.543.107.858.107.28 0 .546-.04.796-.119.25-.079.483-.219.702-.42.22-.2.427-.47.621-.812.196-.343.39-.767.586-1.278l.676-1.81 3.25-8.275h-1.187zM19.29 55.556a3.248 3.248 0 0 1-.577 1.092c-.25.306-.555.542-.912.712-.362.17-.766.254-1.216.254a3.92 3.92 0 0 1-1.16-.172 2.732 2.732 0 0 1-.94-.483v-5.12a3.823 3.823 0 0 1 1.031-.674 3.13 3.13 0 0 1 1.27-.254c.413 0 .788.084 1.124.247.334.163.616.387.85.672.228.287.41.63.536 1.031.129.402.194.838.194 1.312 0 .497-.068.959-.2 1.383m.354-4.498a3.345 3.345 0 0 0-1.16-.878c-.45-.207-.95-.31-1.498-.31s-1.033.11-1.46.33c-.427.218-.78.461-1.06.73l.019-5.062-1.153.238v12.586l1.153-.494c.278.135.602.245.973.331.371.084.726.128 1.066.128.607 0 1.162-.114 1.666-.338a3.858 3.858 0 0 0 1.302-.943c.364-.4.647-.877.847-1.432.201-.556.301-1.16.301-1.818 0-.62-.086-1.195-.256-1.717a3.919 3.919 0 0 0-.74-1.351"/>
        <path d="M128.351 27.564c.021-.77.586-1.435 1.167-1.614 1.246-.388 2.436 2.41 3.703.847.45-.558 1.099-1.24 1.675-.514.474.595.719 1.64 1.552 1.648 0 0 1.318-.68 1.626.256l.105 3.318s-.11 1.036-.716-.186c-.343-.689-1.183-1.57-1.895-1.284-.38.152-.537.544-.728.929-.091.182-.483.877-.73.497 0 0-.108.077-.147-1.052 0 0-.024-1.916-1.491-1.433a2.065 2.065 0 0 0-1.046.742c-.256.35-.455.84-.504 1.309-.025.257.04 1.008-.294 1.066-.555.098-.625-1.516-.632-1.941-.01-.623-.287-1.325-.789-1.559-.448-.207-.877-.287-.856-1.029" fill="#FEFEFE"/>
        <path d="M137.606 31.214c.11.222.203.36.266.43.04.046.058.06.068.065l.002-.002a.26.26 0 0 0 .035-.08c.019-.053.028-.11.033-.135l-.105-3.26c-.105-.28-.336-.347-.642-.33-.371.025-.747.216-.747.216l-.032.019-.035-.002c-.978-.03-1.244-1.202-1.673-1.71-.168-.208-.308-.257-.46-.25-.301.014-.684.399-.975.767-.283.346-.584.514-.882.535-.544.032-1.02-.36-1.475-.714-.455-.36-.891-.68-1.272-.644a.693.693 0 0 0-.151.028c-.518.156-1.032.779-1.041 1.425l-.17-.007.17.014a.896.896 0 0 0 0 .112c.02.252.084.339.205.441.124.098.322.17.542.27.562.27.854.986.893 1.643.003.035.005.07.005.108 0 .072.002.184.01.317.018.294.058.695.14.996.086.32.195.446.272.425.005 0 .012 0 .014-.002.042.004.094-.073.122-.287.025-.203.016-.439.032-.605.054-.52.266-1.033.546-1.416.31-.422.7-.665 1.125-.802.14-.05.27-.075.392-.084.558-.047.917.315 1.09.7.177.385.212.79.221.947.003.037.003.06.005.063.002.123.007.23.012.324.018.306.044.474.06.55l.038.057c.03.04.023.028.035.03.067.035.368-.38.415-.51.187-.367.364-.832.817-1.016a.86.86 0 0 1 .275-.065c.772-.037 1.486.78 1.82 1.44m-.29.207c-.277-.574-.97-1.295-1.507-1.237a.571.571 0 0 0-.186.042c-.304.122-.44.44-.64.845-.095.15-.298.637-.679.705-.105.011-.22-.045-.298-.145-.068-.049-.098-.14-.117-.212-.033-.124-.058-.315-.08-.665a10.372 10.372 0 0 1-.016-.343v-.047a2.326 2.326 0 0 0-.18-.77c-.142-.29-.34-.513-.772-.49a1.883 1.883 0 0 0-1.288.751 2.537 2.537 0 0 0-.462 1.197c-.011.094-.002.362-.032.614-.03.238-.115.567-.409.63-.014.002-.025.002-.04.002-.354.014-.524-.364-.615-.707a5.737 5.737 0 0 1-.157-1.099 5.276 5.276 0 0 1-.011-.336c0-.03 0-.058-.003-.086-.03-.539-.287-1.113-.676-1.288-.199-.093-.413-.16-.602-.305-.192-.14-.348-.402-.364-.763a1.797 1.797 0 0 1 0-.16c.032-.89.646-1.6 1.29-1.805.072-.023.145-.035.217-.042.544-.033 1.02.362 1.475.712.455.364.89.68 1.269.648.212-.018.425-.123.665-.417.308-.374.705-.84 1.195-.885.245-.023.508.096.725.376.504.667.735 1.57 1.396 1.584.105-.051.473-.751.849-.78l-.023.545c.357-.033.81.079.989.623l.012.032.107 3.374-.002.014c0 .01-.094-.09-.133.04v-.068c-.042.117-.091.243-.297.268l-.06.068c-.248-.007-.294.054-.54-.42" fill="#005596"/>
        <path d="M135.838 29.167c.576 0 1.096.296 1.516.697l-.044-1.358a1.75 1.75 0 0 0-.502.143l-.156.08-.18.013c-1.087-.033-1.563-.898-1.878-1.472a3.317 3.317 0 0 0-.278-.453c-.002-.002-.007-.007-.009-.012-.072.056-.25.203-.497.516-.478.588-.978.737-1.311.76l-.105.005c-.696 0-1.235-.42-1.71-.788l-.068-.052c-.185-.147-.66-.522-.847-.522-.299.084-.619.457-.647.819v.06c0 .028 0 .052.003.068.053.03.147.07.219.103l.173.077c.646.308 1.003.947 1.157 1.58a2.823 2.823 0 0 1 1.566-1.232c.18-.059.359-.096.534-.11a2.72 2.72 0 0 1 .142-.005c.668 0 1.244.397 1.54 1.062.084.18.15.38.196.595.159-.187.362-.353.633-.465.144-.06.3-.098.462-.107l.09-.002zm-5.243 3.742c-.327 0-.915-.151-1.183-1.16a6.18 6.18 0 0 1-.175-1.22c-.01-.154-.012-.284-.014-.366-.024-.478-.222-.78-.32-.824l-.154-.067a2.533 2.533 0 0 1-.567-.31c-.357-.26-.581-.708-.602-1.22-.002-.06-.005-.132-.002-.209.046-1.206.896-2.102 1.712-2.36.112-.038.231-.06.353-.069l.11-.004c.695 0 1.234.415 1.707.784l.07.053c.187.147.658.525.847.525.084-.007.185-.112.257-.198.34-.413.854-1.034 1.603-1.104l.112-.004c.432 0 .835.217 1.143.613.182.238.322.49.45.712.094.161.204.357.306.488.229-.285.542-.598.971-.628l.674-.051-.028.667c.441.145.775.483.936.966l.04.203.112 3.44-.096.508-.324.047a.844.844 0 0 1-.285.189l-.126.144-.28-.007-.014-.126-.072-.032-.01.158c-.536 0-.756-.338-.966-.744-.235-.495-.732-.915-.907-.915-.094.03-.215.276-.304.458l-.112.21c-.144.263-.445.812-1.05.92l-.13.008a.955.955 0 0 1-.693-.317c-.194-.175-.255-.408-.278-.492a4.218 4.218 0 0 1-.098-.784 6.965 6.965 0 0 1-.016-.362c-.007-.142-.04-.399-.124-.574-.07-.145-.091-.145-.166-.145a.583.583 0 0 0-.191.04 1.273 1.273 0 0 0-.674.47c-.18.24-.318.599-.348.89-.002.035-.002.077-.005.124a4.607 4.607 0 0 1-.03.509c-.105.858-.595 1.087-.88 1.148l-.18.018z" fill="#FEFEFE"/>
        <path d="M137.606 31.214c.11.222.203.36.266.43.04.046.058.06.068.065l.002-.002a.26.26 0 0 0 .035-.08c.019-.053.028-.11.033-.135l-.105-3.26c-.105-.28-.336-.347-.642-.33-.371.025-.747.216-.747.216l-.032.019-.035-.002c-.978-.03-1.244-1.202-1.673-1.71-.168-.208-.308-.257-.46-.25-.301.014-.684.399-.975.767-.283.346-.584.514-.882.535-.544.032-1.02-.36-1.475-.714-.455-.36-.891-.68-1.272-.644a.693.693 0 0 0-.151.028c-.518.156-1.032.779-1.041 1.425l-.17-.007.17.014a.896.896 0 0 0 0 .112c.02.252.084.339.205.441.124.098.322.17.542.27.562.27.854.986.893 1.643.003.035.005.07.005.108 0 .072.002.184.01.317.018.294.058.695.14.996.086.32.195.446.272.425.005 0 .012 0 .014-.002.042.004.094-.073.122-.287.025-.203.016-.439.032-.605.054-.52.266-1.033.546-1.416.31-.422.7-.665 1.125-.802.14-.05.27-.075.392-.084.558-.047.917.315 1.09.7.177.385.212.79.221.947.003.037.003.06.005.063.002.123.007.23.012.324.018.306.044.474.06.55l.038.057c.03.04.023.028.035.03.067.035.368-.38.415-.51.187-.367.364-.832.817-1.016a.86.86 0 0 1 .275-.065c.772-.037 1.486.78 1.82 1.44m-.29.207c-.277-.574-.97-1.295-1.507-1.237a.571.571 0 0 0-.186.042c-.304.122-.44.44-.64.845-.095.15-.298.637-.679.705-.105.011-.22-.045-.298-.145-.068-.049-.098-.14-.117-.212-.033-.124-.058-.315-.08-.665a10.372 10.372 0 0 1-.016-.343v-.047a2.326 2.326 0 0 0-.18-.77c-.142-.29-.34-.513-.772-.49a1.883 1.883 0 0 0-1.288.751 2.537 2.537 0 0 0-.462 1.197c-.011.094-.002.362-.032.614-.03.238-.115.567-.409.63-.014.002-.025.002-.04.002-.354.014-.524-.364-.615-.707a5.737 5.737 0 0 1-.157-1.099 5.276 5.276 0 0 1-.011-.336c0-.03 0-.058-.003-.086-.03-.539-.287-1.113-.676-1.288-.199-.093-.413-.16-.602-.305-.192-.14-.348-.402-.364-.763a1.797 1.797 0 0 1 0-.16c.032-.89.646-1.6 1.29-1.805.072-.023.145-.035.217-.042.544-.033 1.02.362 1.475.712.455.364.89.68 1.269.648.212-.018.425-.123.665-.417.308-.374.705-.84 1.195-.885.245-.023.508.096.725.376.504.667.735 1.57 1.396 1.584.105-.051.473-.751.849-.78l-.023.545c.357-.033.81.079.989.623l.012.032.107 3.374-.002.014c0 .01-.094-.09-.133.04v-.068c-.042.117-.091.243-.297.268l-.06.068c-.248-.007-.294.054-.54-.42" fill="#005596"/>
        <path d="M127.707 6.38c.651 0 1.207.445 1.412 1.134.238.784.541 1.572.798 2.104a15.78 15.78 0 0 0-.068-1.624c-.072-.865.063-1.759.376-2.447.252-.558.714-.878 1.27-.878.68 0 1.299.472 1.649.913.1.126.177.268.243.415.011-.086.023-.156.035-.205.205-.885.917-1.825 1.836-1.825.17 0 .338.033.501.098.945.378 1.043 1.489 1.116 2.298.016.182.03.355.056.502.063.373.128.602.182.74.14-.194.156-.486.154-1.004 0-.256-.003-.522.032-.795.108-.882.642-1.195 1.106-1.195.271 0 .551.098.833.29-.247-.617-.637-1.597-.858-2.185l-.026-.072c-.15-.401-.196-.51-.385-.625a.842.842 0 0 0-.863-.019c-.208.114-.455.168-.76.168-.407 0-.839-.098-1.126-.18-.387-.107-.69-.305-.958-.48a4.736 4.736 0 0 0-.334-.208c-.352-.196-.826-.042-1.342.385-.317.264-.746.593-1.246.793-.417.166-.835.168-1.313.105l-.208-.023h-.005c-.291 0-.578.231-.77.579-.144.457-.578 1.145-1.416 1.145-.142 0-.29-.02-.439-.065-.112.07-.464.336-.781 1.262-.392.868-.623 1.855-.5 2.086.08-.04.306-.287.427-.42.178-.193.36-.394.584-.534.245-.154.518-.233.788-.233m2.434 5.04c-.303 0-1.104 0-2.172-3.554-.077-.243-.238-.331-.413-.222-.084.052-.217.196-.334.325-.322.354-.721.793-1.32.793a1.26 1.26 0 0 1-.654-.191c-1.108-.675-.34-2.702.042-3.542.667-1.944 1.727-2.047 1.93-2.047h.116l.108.045a.553.553 0 0 0 .184.044c.17 0 .27-.313.27-.317l.05-.126c.438-.857 1.199-1.363 1.997-1.277l.23.028c.267.033.49.061.722-.03.34-.135.672-.392.922-.602.41-.34 1.054-.747 1.78-.747.322 0 .628.08.91.236.142.08.275.166.408.252.224.147.418.273.628.331.504.143.987.115.987.112a2.074 2.074 0 0 1 2.062.05c.553.34.717.776.887 1.238l.026.068a164.67 164.67 0 0 0 1.064 2.693c.457.984.536 1.446.31 1.803a.701.701 0 0 1-.597.327c-.161 0-.584 0-1.662-1.164-.044-.033-.084-.056-.114-.075-.005.023-.01.051-.014.084-.026.196-.023.413-.023.64.004.68.01 1.612-.868 2.181-.18.117-.369.177-.563.177-.982 0-1.21-1.37-1.297-1.885a7.366 7.366 0 0 1-.068-.597c-.042-.467-.105-1.174-.359-1.277h-.012c-.258 0-.601.411-.709.873-.011.047-.018.121-.03.212-.077.61-.21 1.63-1.031 1.63a.881.881 0 0 1-.488-.157c-.357-.238-.513-.642-.653-.999-.059-.15-.131-.338-.19-.41-.228-.288-.538-.458-.709-.458-.037 0-.095 0-.172.166-.227.497-.327 1.185-.271 1.84.222 2.635-.112 3.12-.334 3.288a.837.837 0 0 1-.576.24" fill="#FEFEFE"/>
        <path d="M128.718 7.62c.002.002.532 1.75 1.045 2.578.163.282.343.417.378.399.012-.003.02 0 .056-.038l.012-.014a.646.646 0 0 0 .04-.107c.039-.145.088-.453.088-1.024 0-.364-.021-.84-.072-1.45a5.049 5.049 0 0 1-.017-.424c0-.628.11-1.288.362-1.843.194-.441.544-.644.884-.637.49.004.98.343 1.314.756.317.436.425 1.12.66 1.24.038.027.059.029.066.029.007-.002.02.002.065-.075.04-.074.077-.203.107-.345.063-.292.084-.614.124-.791.166-.688.693-1.496 1.428-1.514.11 0 .224.02.338.065.945.425.786 1.836.92 2.501.032.194.095.528.198.794.102.28.233.424.326.41.035 0 .082-.01.145-.051.47-.313.492-.735.5-1.34 0-.093-.003-.186-.003-.286 0-.196.005-.4.03-.602.047-.523.341-.864.691-.85.247.003.49.129.751.336.003.003.23.248.493.495.189.184.434.362.56.43-.03-.155-.136-.48-.36-.96-.002 0-.735-1.808-1.073-2.716-.18-.471-.238-.681-.576-.893a1.276 1.276 0 0 0-.675-.196c-.214 0-.431.056-.63.168-.165.088-.352.112-.548.112-.366 0-.758-.094-1.006-.161-.487-.14-.825-.446-1.201-.651a1.066 1.066 0 0 0-.54-.143c-.435-.002-.904.248-1.29.57-.34.282-.711.557-1.131.725a1.635 1.635 0 0 1-.618.12c-.238-.003-.453-.043-.696-.066a.628.628 0 0 0-.093-.007c-.443-.002-.87.357-1.12.835-.047.157-.299.878-1.02.894-.133 0-.275-.028-.43-.084-.013.002-.034.005-.067.016a.962.962 0 0 0-.284.157c-.238.184-.558.567-.85 1.4.003.002-.543 1.227-.539 1.974.005.28.063.429.185.504.098.058.18.079.254.079.378.033.768-.667 1.25-1.001.178-.112.37-.166.556-.166h.01c.43 0 .842.308 1.003.847zm1.423 3.408c-.294-.018-.48-.275-.677-.578a7.753 7.753 0 0 1-.536-1.106 19.828 19.828 0 0 1-.558-1.58c-.117-.373-.373-.558-.665-.562a.718.718 0 0 0-.38.119c-.357.186-.742 1.017-1.426 1.05a.792.792 0 0 1-.422-.129c-.297-.177-.39-.543-.385-.886.007-.94.58-2.161.574-2.156.597-1.76 1.498-1.837 1.554-1.825v.215l-.061.205.06-.205v-.215h.033l.028.012c.136.053.25.074.35.074.26 0 .413-.144.528-.303.107-.159.147-.313.147-.313l.007-.025.011-.024c.299-.583.824-1.06 1.447-1.064.044 0 .086.003.126.01.257.025.464.063.663.063.158 0 .315-.024.499-.098.364-.143.71-.395 1.036-.668.425-.35.95-.646 1.505-.648.233 0 .471.056.7.182.418.238.73.513 1.124.623.234.063.61.151.922.151.163 0 .31-.028.392-.074.247-.138.518-.208.786-.208.29 0 .581.082.845.245.448.268.581.663.744 1.104.334.893 1.064 2.692 1.064 2.692.28.616.4.962.406 1.232a.447.447 0 0 1-.077.269.27.27 0 0 1-.221.112c-.297-.024-.574-.294-.866-.549a8.24 8.24 0 0 1-.492-.497c-.203-.16-.395-.242-.523-.24-.16.014-.259.065-.324.478-.024.17-.028.353-.028.542l.002.287c.007.595-.047 1.306-.688 1.715a.597.597 0 0 1-.325.107c-.357-.012-.546-.357-.667-.667a4.753 4.753 0 0 1-.217-.887c-.117-.812-.084-1.983-.679-2.175a.588.588 0 0 0-.22-.042c-.459-.02-.951.642-1.072 1.197-.021.089-.054.453-.12.777-.074.31-.158.712-.531.752a.456.456 0 0 1-.248-.084c-.452-.339-.52-1.076-.746-1.323-.271-.343-.71-.623-1.046-.619-.235.007-.413.1-.557.406-.215.474-.32 1.076-.32 1.643 0 .128.005.257.014.383.054.62.075 1.108.075 1.49-.005 1.06-.143 1.34-.252 1.452l.002.002a.427.427 0 0 1-.313.161h-.002z" fill="#005596"/>
        <path d="M125.918 17.97c0 3.603.7 6.438 2.105 8.512 1.402 2.072 3.162 3.108 5.278 3.108 2.154 0 3.927-1.045 5.322-3.14 1.393-2.091 2.089-5.062 2.089-8.91 0-2.43-.299-4.554-.894-6.37-.595-1.812-1.465-3.22-2.613-4.218-1.146-.999-2.434-1.498-3.862-1.498-2.025 0-3.77.961-5.231 2.884-1.463 1.923-2.194 5.133-2.194 9.632m-2.951-.06c0-4.961.963-8.844 2.893-11.65 1.927-2.808 4.42-4.21 7.471-4.21 1.995 0 3.8.658 5.402 1.976 1.605 1.318 2.828 3.157 3.67 5.516.84 2.357 1.26 5.03 1.26 8.022 0 3.031-.443 5.74-1.327 8.132-.887 2.394-2.14 4.202-3.764 5.434-1.624 1.23-3.376 1.843-5.257 1.843-2.037 0-3.86-.679-5.462-2.037-1.606-1.36-2.821-3.215-3.647-5.565-.826-2.352-1.24-4.839-1.24-7.462" fill="#005596"/>
        <path d="M133.345 6.061c-1.848 0-3.402.866-4.756 2.646-1.372 1.806-2.07 4.924-2.07 9.264 0 3.46.675 6.209 2 8.169 1.295 1.913 2.859 2.844 4.781 2.844 1.96 0 3.537-.94 4.82-2.872 1.321-1.981 1.989-4.863 1.989-8.57 0-2.355-.29-4.434-.864-6.18-.557-1.7-1.376-3.03-2.433-3.95-1.043-.91-2.177-1.35-3.467-1.35m-.045 24.135c-2.317 0-4.263-1.134-5.775-3.374-1.465-2.165-2.21-5.145-2.21-8.852 0-4.679.759-7.95 2.318-10.001 1.575-2.072 3.495-3.122 5.712-3.122 1.57 0 3 .553 4.253 1.645 1.225 1.066 2.163 2.576 2.793 4.49.611 1.866.924 4.073.924 6.558 0 3.953-.737 7.063-2.19 9.25-1.506 2.26-3.466 3.406-5.825 3.406m.03-27.54c-2.867 0-5.15 1.293-6.976 3.948-1.848 2.69-2.786 6.494-2.786 11.305 0 2.54.406 4.984 1.206 7.259.787 2.235 1.953 4.02 3.468 5.301 1.484 1.26 3.19 1.897 5.072 1.897 1.739 0 3.386-.579 4.895-1.722 1.522-1.155 2.721-2.89 3.561-5.161.856-2.312 1.293-4.98 1.293-7.92 0-2.907-.413-5.536-1.228-7.816-.8-2.242-1.971-4.009-3.483-5.25-1.487-1.223-3.176-1.841-5.021-1.841m-.017 30.923c-2.172 0-4.141-.732-5.85-2.179-1.68-1.423-2.967-3.383-3.826-5.828-.847-2.406-1.274-4.984-1.274-7.663 0-5.063 1.008-9.098 3-11.996 2.04-2.968 4.719-4.47 7.967-4.47 2.13 0 4.076.709 5.784 2.114 1.682 1.38 2.98 3.325 3.854 5.777.861 2.415 1.298 5.182 1.298 8.23 0 3.087-.46 5.894-1.368 8.346-.921 2.49-2.256 4.41-3.966 5.705-1.722 1.304-3.612 1.964-5.619 1.964" fill="#FEFEFE"/>
        <path d="M127.22 3.59s-.8 0-1.383 1.692c0 0-1.046 2.3-.276 2.77.714.434 1.174-.61 1.676-.924.504-.315 1.108-.094 1.306.562 0 0 1.137 3.778 1.785 3.022 0 0 .336-.215.122-2.768-.059-.707.04-1.516.324-2.146.413-.915 1.39-.474 1.9.165.272.34.359 1.053.704 1.281.52.346.56-1.012.63-1.313.166-.717.817-1.585 1.53-1.3.768.306.675 1.598.799 2.336.077.464.315 1.705.94 1.3.82-.533.511-1.517.618-2.385.1-.81.612-.803 1.137-.385 0 0 2.244 2.447.982-.287 0 0-.733-1.809-1.07-2.71-.171-.457-.267-.758-.661-1a1.44 1.44 0 0 0-1.466-.033c-.357.196-1.068.042-1.435-.063-.44-.124-.765-.413-1.164-.637-.679-.378-1.442-.028-2.016.448-.334.28-.69.541-1.083.698-.452.182-.786.09-1.236.042-.584-.063-1.109.382-1.4.952 0 0-.278 1.08-1.263.683" fill="#FEFEFE"/>
        <path d="M128.718 7.62c.002.002.532 1.75 1.045 2.578.163.282.343.417.378.399.012-.003.02 0 .056-.038l.012-.014a.646.646 0 0 0 .04-.107c.039-.145.088-.453.088-1.024 0-.364-.021-.84-.072-1.45a5.049 5.049 0 0 1-.017-.424c0-.628.11-1.288.362-1.843.194-.441.544-.644.884-.637.49.004.98.343 1.314.756.317.436.425 1.12.66 1.24.038.027.059.029.066.029.007-.002.02.002.065-.075.04-.074.077-.203.107-.345.063-.292.084-.614.124-.791.166-.688.693-1.496 1.428-1.514.11 0 .224.02.338.065.945.425.786 1.836.92 2.501.032.194.095.528.198.794.102.28.233.424.326.41.035 0 .082-.01.145-.051.47-.313.492-.735.5-1.34 0-.093-.003-.186-.003-.286 0-.196.005-.4.03-.602.047-.523.341-.864.691-.85.247.003.49.129.751.336.003.003.23.248.493.495.189.184.434.362.56.43-.03-.155-.136-.48-.36-.96-.002 0-.735-1.808-1.073-2.716-.18-.471-.238-.681-.576-.893a1.276 1.276 0 0 0-.675-.196c-.214 0-.431.056-.63.168-.165.088-.352.112-.548.112-.366 0-.758-.094-1.006-.161-.487-.14-.825-.446-1.201-.651a1.066 1.066 0 0 0-.54-.143c-.435-.002-.904.248-1.29.57-.34.282-.711.557-1.131.725a1.635 1.635 0 0 1-.618.12c-.238-.003-.453-.043-.696-.066a.628.628 0 0 0-.093-.007c-.443-.002-.87.357-1.12.835-.047.157-.299.878-1.02.894-.133 0-.275-.028-.43-.084-.013.002-.034.005-.067.016a.962.962 0 0 0-.284.157c-.238.184-.558.567-.85 1.4.003.002-.543 1.227-.539 1.974.005.28.063.429.185.504.098.058.18.079.254.079.378.033.768-.667 1.25-1.001.178-.112.37-.166.556-.166h.01c.43 0 .842.308 1.003.847zm1.423 3.408c-.294-.018-.48-.275-.677-.578a7.753 7.753 0 0 1-.536-1.106 19.828 19.828 0 0 1-.558-1.58c-.117-.373-.373-.558-.665-.562a.718.718 0 0 0-.38.119c-.357.186-.742 1.017-1.426 1.05a.792.792 0 0 1-.422-.129c-.297-.177-.39-.543-.385-.886.007-.94.58-2.161.574-2.156.597-1.76 1.498-1.837 1.554-1.825v.215l-.061.205.06-.205v-.215h.033l.028.012c.136.053.25.074.35.074.26 0 .413-.144.528-.303.107-.159.147-.313.147-.313l.007-.025.011-.024c.299-.583.824-1.06 1.447-1.064.044 0 .086.003.126.01.257.025.464.063.663.063.158 0 .315-.024.499-.098.364-.143.71-.395 1.036-.668.425-.35.95-.646 1.505-.648.233 0 .471.056.7.182.418.238.73.513 1.124.623.234.063.61.151.922.151.163 0 .31-.028.392-.074.247-.138.518-.208.786-.208.29 0 .581.082.845.245.448.268.581.663.744 1.104.334.893 1.064 2.692 1.064 2.692.28.616.4.962.406 1.232a.447.447 0 0 1-.077.269.27.27 0 0 1-.221.112c-.297-.024-.574-.294-.866-.549a8.24 8.24 0 0 1-.492-.497c-.203-.16-.395-.242-.523-.24-.16.014-.259.065-.324.478-.024.17-.028.353-.028.542l.002.287c.007.595-.047 1.306-.688 1.715a.597.597 0 0 1-.325.107c-.357-.012-.546-.357-.667-.667a4.753 4.753 0 0 1-.217-.887c-.117-.812-.084-1.983-.679-2.175a.588.588 0 0 0-.22-.042c-.459-.02-.951.642-1.072 1.197-.021.089-.054.453-.12.777-.074.31-.158.712-.531.752a.456.456 0 0 1-.248-.084c-.452-.339-.52-1.076-.746-1.323-.271-.343-.71-.623-1.046-.619-.235.007-.413.1-.557.406-.215.474-.32 1.076-.32 1.643 0 .128.005.257.014.383.054.62.075 1.108.075 1.49-.005 1.06-.143 1.34-.252 1.452l.002.002a.427.427 0 0 1-.313.161h-.002z" fill="#005596"/>
        <path d="M125.918 17.97c0 3.603.7 6.438 2.105 8.512 1.402 2.072 3.162 3.108 5.278 3.108 2.154 0 3.927-1.045 5.322-3.14 1.393-2.091 2.089-5.062 2.089-8.91 0-2.43-.299-4.554-.894-6.37-.595-1.812-1.465-3.22-2.613-4.218-1.146-.999-2.434-1.498-3.862-1.498-2.025 0-3.77.961-5.231 2.884-1.463 1.923-2.194 5.133-2.194 9.632m-2.951-.06c0-4.961.963-8.844 2.893-11.65 1.927-2.808 4.42-4.21 7.471-4.21 1.995 0 3.8.658 5.402 1.976 1.605 1.318 2.828 3.157 3.67 5.516.84 2.357 1.26 5.03 1.26 8.022 0 3.031-.443 5.74-1.327 8.132-.887 2.394-2.14 4.202-3.764 5.434-1.624 1.23-3.376 1.843-5.257 1.843-2.037 0-3.86-.679-5.462-2.037-1.606-1.36-2.821-3.215-3.647-5.565-.826-2.352-1.24-4.839-1.24-7.462" fill="#005596"/>
        <path d="M127.377 3.687s-.782 0-1.354 1.572c0 0-1.022 2.142-.27 2.579.697.406 1.148-.565 1.638-.859.494-.292 1.085-.086 1.278.525 0 0 .927 3.715 1.557 3.012 0 0 .518-.403.308-2.779-.059-.658.037-1.409.315-1.995.403-.854 1.362-.443 1.857.152.266.32.352.98.69 1.195.507.32.55-.943.614-1.225.164-.665.803-1.473 1.498-1.209.752.285.658 1.486.78 2.175.077.431.308 1.586.92 1.208.802-.494.5-1.411.606-2.219.095-.751.597-.746 1.108-.357 1.426 1.4 1.367.224.961-.27 0 0-.716-1.68-1.045-2.518-.168-.427-.261-.707-.646-.933a1.469 1.469 0 0 0-1.435-.028c-.348.18-1.043.037-1.4-.059-.434-.116-.75-.387-1.139-.592-.665-.355-1.41-.028-1.972.415-.326.259-.676.504-1.059.649-.443.168-.768.084-1.21.04-.57-.059-1.081.354-1.368.886 0 0-.27 1.003-1.232.635M128.378 27.581c.059-.679.616-1.23 1.162-1.35 1.174-.262 2.124 2.286 3.379.986.446-.462 1.083-1.022 1.575-.343.406.556.938 1.057 1.708 1.118 0 0 1.185-1.477 1.365-.135l-.317 3.845s-.157.91-.651-.212c-.28-.63-1.008-1.466-1.683-1.258-.36.11-.522.446-.723.775-.093.156-.495.744-.7.392 0 0-.105.06-.08-.938 0 0 .08-1.697-1.301-1.365-.38.09-.721.266-1.006.59-.257.292-.467.71-.534 1.12-.04.226-.021.896-.332.926-.515.05-.497-1.381-.48-1.757.025-.55-.194-1.19-.647-1.428-.401-.214-.793-.312-.735-.966" fill="#FEFEFE"/>
        <path d="M144.066 1.582v.445h.859v2.38h.54v-2.38h.86v-.445h-2.26zm5.15 0-.761 2.002-.77-2.002h-.789v2.825h.511v-2.21h.012l.838 2.21h.382l.836-2.21h.014v2.21h.51V1.582h-.783zM94.804 11.48l-2.487-1.185c-.686-.31-1.246-.77-1.528-1.18.662-1.648 3.047-3.256 3.047-3.256l-2.51 1.393c-.397.222-.782.341-1.132.4-.36-1.14.09-4.76.09-4.76-.513 1.84-1.25 3.7-2.13 4.46-1.145-.487-3.304-2.846-3.304-2.846 1.155 1.286 1.545 2.679 1.701 3.425-1.582.29-3.752.098-3.752.098 1.788.355 3.246 1 3.664 1.412-.007.026-.014.042-.014.042-.518 1.841-2.29 3.565-2.29 3.565 1.468-1.344 2.698-1.624 3.216-1.68.208 1.813-.14 4.518-.14 4.518.555-2.247 1.27-3.63 1.88-4.196 1.622.86 3.428 2.929 3.428 2.929-1.285-1.575-1.74-2.859-1.887-3.713 1.705-.298 4.148.574 4.148.574" fill="#005596"/>
        <path d="m87.904 10.7.07.599c.028.254.046.525.058.8.22-.354.446-.644.68-.856l.31-.29.375.199c.27.145.546.317.817.509a6.496 6.496 0 0 1-.154-.65l-.105-.599.595-.105a4.35 4.35 0 0 1 .515-.058 3.663 3.663 0 0 1-.772-.789l-.184-.27.121-.304c.096-.235.22-.469.366-.697a3.553 3.553 0 0 1-.305.063l-.516.084-.156-.5c-.094-.296-.143-.716-.159-1.192-.275.474-.58.882-.915 1.171l-.282.245-.345-.147c-.264-.112-.565-.303-.878-.534.038.14.07.282.1.427l.13.611-.61.112c-.117.021-.238.04-.366.059.252.142.452.284.592.422l.273.27-.128.362a6.478 6.478 0 0 1-.537 1.295c.33-.1.607-.15.815-.172l.595-.066zm-.082 5.333-1.183-.224c.002-.023.257-2.046.187-3.703-.55.175-1.349.556-2.261 1.39l-.824-.886c.016-.014 1.433-1.411 2.011-2.94-.518-.3-1.605-.753-3.07-1.045l.17-1.2c.007 0 .688.061 1.547.061.52 0 .987-.023 1.402-.063a6.559 6.559 0 0 0-1.397-2.51l.891-.817c.502.548 1.85 1.93 2.742 2.506.574-.71 1.166-2.084 1.666-3.876l1.178.24c-.135 1.095-.28 2.892-.205 3.923.121-.047.24-.103.354-.168l2.516-1.393.625 1.036c-.567.383-2.049 1.542-2.67 2.66.234.233.593.504 1.062.719l2.5 1.19-.46 1.12c-.017-.007-1.725-.607-3.195-.602.23.716.689 1.666 1.601 2.783l-.92.787c-.016-.02-1.455-1.662-2.848-2.555-.35.48-.913 1.507-1.419 3.567z" fill="#FEFEFE"/>
        <path d="M86.593 6.762s1.381 2.182-.756 4.737c0 0 2.165-1.794 5 .99 0 0-1.766-2.784.355-4.765 0 0-2.135 1.35-4.599-.962" fill="#FEFEFE"/>
        <path d="M87.63 10.322c.664 0 1.322.168 1.973.501-.103-.667-.075-1.397.196-2.104-.56.023-1.302-.054-2.168-.486.04.602-.035 1.321-.366 2.107.117-.011.238-.018.364-.018zm2.787 2.601c-.938-.921-1.876-1.386-2.788-1.386-.866 0-1.405.425-1.41.43l-.842-.861c1.83-2.187.72-4 .707-4.016l.92-.772c.842.79 1.72 1.19 2.61 1.19.757 0 1.256-.299 1.263-.301l.726.963c-1.734 1.617-.32 3.895-.26 3.99l-.926.763z" fill="#FEFEFE"/>
        <path d="m94.804 11.48-2.487-1.185c-.686-.31-1.246-.77-1.528-1.18.662-1.648 3.047-3.256 3.047-3.256l-2.51 1.393c-.397.222-.782.341-1.132.4-.36-1.14.09-4.76.09-4.76-.513 1.84-1.25 3.7-2.13 4.46-1.145-.487-3.304-2.846-3.304-2.846 1.155 1.286 1.545 2.679 1.701 3.425-1.582.29-3.752.098-3.752.098 1.788.355 3.246 1 3.664 1.412-.007.026-.014.042-.014.042-.518 1.841-2.29 3.565-2.29 3.565 1.468-1.344 2.698-1.624 3.216-1.68.208 1.813-.14 4.518-.14 4.518.555-2.247 1.27-3.63 1.88-4.196 1.622.86 3.428 2.929 3.428 2.929-1.285-1.575-1.74-2.859-1.887-3.713 1.705-.298 4.148.574 4.148.574" fill="#005596"/>
        <path d="M86.593 6.762s1.381 2.182-.756 4.737c0 0 2.165-1.794 5 .99 0 0-1.766-2.784.355-4.765 0 0-2.135 1.35-4.599-.962" fill="#FEFEFE"/>
        <path d="m94.804 11.48-2.487-1.185c-.686-.31-1.246-.77-1.528-1.18.662-1.648 3.047-3.256 3.047-3.256l-2.51 1.393c-.397.222-.782.341-1.132.4-.36-1.14.09-4.76.09-4.76-.513 1.84-1.25 3.7-2.13 4.46-1.145-.487-3.304-2.846-3.304-2.846 1.155 1.286 1.545 2.679 1.701 3.425-1.582.29-3.752.098-3.752.098 1.788.355 3.246 1 3.664 1.412-.007.026-.014.042-.014.042-.518 1.841-2.29 3.565-2.29 3.565 1.468-1.344 2.698-1.624 3.216-1.68.208 1.813-.14 4.518-.14 4.518.555-2.247 1.27-3.63 1.88-4.196 1.622.86 3.428 2.929 3.428 2.929-1.285-1.575-1.74-2.859-1.887-3.713 1.705-.298 4.148.574 4.148.574" fill="#005596"/>
        <path d="m87.904 10.7.07.599c.028.254.046.525.058.8.22-.354.446-.644.68-.856l.31-.29.375.199c.27.145.546.317.817.509a6.496 6.496 0 0 1-.154-.65l-.105-.599.595-.105a4.35 4.35 0 0 1 .515-.058 3.718 3.718 0 0 1-.772-.789l-.184-.27.121-.304c.096-.235.22-.469.366-.697a3.553 3.553 0 0 1-.305.063l-.516.084-.156-.5c-.094-.296-.14-.716-.159-1.192-.275.474-.58.882-.915 1.171l-.282.245-.345-.147c-.264-.112-.565-.303-.878-.534.038.14.07.282.1.427l.13.611-.61.112c-.117.021-.238.04-.366.059.252.142.452.284.592.422l.273.27-.128.362a6.478 6.478 0 0 1-.537 1.295c.33-.1.607-.15.815-.172l.595-.066zm-.084 5.333-1.18-.224c.001-.023.256-2.046.188-3.703-.553.175-1.35.556-2.263 1.39l-.824-.886c.016-.014 1.433-1.411 2.011-2.94-.518-.3-1.605-.753-3.07-1.045l.17-1.2c.007 0 .688.061 1.547.061.52 0 .987-.023 1.402-.063a6.559 6.559 0 0 0-1.397-2.51l.891-.817c.502.548 1.85 1.93 2.742 2.506.574-.71 1.166-2.084 1.666-3.876l1.178.24c-.135 1.095-.28 2.892-.205 3.923.121-.047.24-.103.354-.168l2.516-1.393.625 1.036c-.567.383-2.049 1.542-2.67 2.66.234.233.593.504 1.062.719l2.5 1.19-.46 1.12c-.017-.007-1.725-.607-3.195-.602.23.716.689 1.666 1.601 2.783l-.92.787c-.016-.02-1.455-1.662-2.848-2.555-.35.48-.913 1.507-1.421 3.567z" fill="#FEFEFE"/>
        <path d="M86.593 6.762s1.381 2.182-.756 4.737c0 0 2.165-1.794 4.998.99 0 0-1.764-2.784.357-4.765 0 0-2.135 1.35-4.599-.962" fill="#FEFEFE"/>
        <path d="M87.63 10.322c.664 0 1.322.168 1.973.501-.103-.667-.075-1.397.196-2.104-.56.023-1.302-.054-2.168-.486.04.602-.035 1.321-.366 2.107.117-.011.238-.018.364-.018zm2.785 2.601c-.936-.921-1.874-1.386-2.786-1.386-.866 0-1.405.425-1.41.43l-.842-.861c1.83-2.187.72-4 .707-4.016l.92-.772c.842.79 1.722 1.19 2.61 1.19.757 0 1.256-.299 1.263-.301l.726.963c-1.734 1.617-.32 3.895-.26 3.99l-.928.763z" fill="#FEFEFE"/>
        <mask id="rpqd6tjigb" fill="#fff">
            <use xlink:href="#cr4mobgj4a"/>
        </mask>
        <path fill="#005596" mask="url(#rpqd6tjigb)" d="M109.935 25.053h10.845v-3.925h-10.845zM93.102 29.92a.822.822 0 0 1-.229.037h-.002c-.11 0-.436-.003-.558-.864l.028-10.857c.052-.88-.361-2.636-2.305-3l-.24-.045-4.305 2.894.397 1.108c.011-.002.077-.007.175-.007.256 0 .886.04 1.208.399.19.21.26.52.215.947l-.005.035.094 9.924c.093.789.7 2.277 2.326 2.277.406 0 .85-.098 1.309-.282.072-.028 1.801-.688 2.716-1.645l-.7-.966c-.021.01-.068.028-.124.044M52.392 29.406c-.728 1.234-1.683 1.685-1.683 1.685a1.137 1.137 0 0 1-.217.074c-.035-.21.024-.674.138-1.043L55.55 3.69 52.88 5.04c-4.142 1.923-5.986 6.648-6.049 6.813-3.357 7.434-5.817 11.336-7.172 13.198.156-2.478.26-6.359.298-7.838.53-10.306-3.455-11.627-4.008-11.76-1.414-.467-3.097-.702-5-.702-4.856 0-9.549 1.5-9.747 1.565l.24 1.183a50.34 50.34 0 0 1 4.588-.235c4.916 0 6.503 1.052 6.764 1.51-4.912 15.098-10.407 20.01-10.64 20.213l-.21.182v.103c-.117.14-.324.284-.513.413-.112.077-.222.151-.32.228l-.369.292c-.35.28-.679.546-1.04.765a15.352 15.352 0 0 1-9.142 2.22 7.933 7.933 0 0 1-3.925-1.398l-.208-.14c-.34-.227-.76-.51-.945-.787-2.055-3.126.952-6.204 1.083-6.335 1.013-1.02 1.458-1.838 1.367-2.506a1.052 1.052 0 0 0-.375-.679 1.432 1.432 0 0 0-1.022-.424c-1.069 0-2.08 1.157-2.156 1.25C-.657 27.182.015 32.073.046 32.278l.014.068c1.08 3.99 4.015 6.097 8.488 6.097 3.475-.002 6.632-1.265 6.758-1.318 11.8-4.672 17.332-17.657 19.21-23.2 1.913 13.794-.852 21.412-.882 21.492l-.313.837 2.903-.051.177-.236c.773-1.026 1.529-2.158 2.45-3.665a85.468 85.468 0 0 0 2.306-4.065c1.869-3.477 4.064-7.446 6.584-11.424-.94 4.436-2.275 11.704-2.781 14.504-.789 4.412 1.223 5.117 1.468 5.187.21.054.436.082.67.082 2.995 0 7.06-4.641 7.515-5.171l.36-.418-2.18-2.275-.401.684z"/>
        <path d="M63.492 26.266a581.108 581.108 0 0 0-2.518 2.373c-.114 0-.371-.151-.548-.35-.441-.501-.423-1.831-.413-2.398.007-.441.056-.906.144-1.377.152-.8.413-1.622.782-2.443.29-.65.653-1.46 1.206-2.014.283-.28.626-.443.997-.47.04-.003.077-.006.114-.006.124 0 .189.02.229.03 0 0 .023.045.014.176-.082 1.122-.024 5.352-.007 6.48m4.505-1.879c.007-1.834.063-3.348.168-4.76.05-.658.12-1.435.262-2.214l.014-.084c.07-.39.149-.833.338-1.1l-.854-.835a51.24 51.24 0 0 0-1.017.796c-.45-.135-1.034-.028-1.463.098a9.457 9.457 0 0 0-1.452.574c-.513.25-1.052.541-1.642.891-.355.21-.71.413-1.062.614-.588.336-1.197.684-1.792 1.062l-.13.084c-.81.515-1.646 1.047-2.32 1.782-1.388 1.517-2.149 3.225-2.2 4.961 0 1.038.133 6.211 2.727 6.529.089.018.252.046.486.046.76 0 2.317-.298 4.153-2.29l1.573-1.641c.126 1.16.378 2.68.865 3.301l.327.418 3.705-2.203-.312-.557v-.57c.149 0 .247.059.25.061a3.241 3.241 0 0 1-.078-.058c-.238-.185-.36-.644-.427-.976-.196-.942-.17-1.915-.14-2.947.01-.326.019-.655.021-.982M79.163 25.184l-2.99 2.426-.058.054a1.024 1.024 0 0 1-.753.343.524.524 0 0 1-.103-.007c-.817-.187-1.09-2.438-1.02-3.878.294-3.425 2.609-4.674 2.707-4.725.331-.17.646-.259.936-.259.74 0 1.201.586 1.365.84l-.084 5.206zm-2.41 9.335-.101.02a1.262 1.262 0 0 1-.331.036c-.99 0-1.692-.819-2.033-2.37l-.079-.355c.026-.02.051-.04.08-.06l4.934-4.051.026 5.317a3.56 3.56 0 0 1-2.497 1.463zm7.492-19.243c-.173.077-1.48.66-2.294 1.146-.261-.159-.653-.294-1.213-.294-.791 0-1.769.28-2.947.859-.222.133-5.472 3.255-6.125 3.735-.11.075-2.677 1.883-2.581 6.286.026.5.322 4.9 2.42 5.57.063.023.322.105.72.084l-2.713 1.981.182.443c.047.112 1.157 2.723 3.568 2.828l.149.003c.73 0 4.494-.124 6.946-2.567l3.337-3.236-.058-13.067c.077-.322.483-1.84 1.309-2.82l-.7-.95zM102.07 18.559a.883.883 0 0 1 .31-.044c.84 0 2.15.648 2.584.9l.38.22 3.416-3.113-.737-.41c-.997-.56-2.04-.843-3.1-.843-1.665 0-2.79.712-2.827.735-2.466 1.514-5.565 4.569-5.675 4.676-2.072 1.86-1.787 5.588-1.77 5.782.447 3.16 3.852 5.581 3.978 5.67.65.495 1.316.747 1.978.747 1.27 0 2.03-.929 2.04-.943l3.894-4.312-.733-.943-3.98 2.168c-.418-.077-1.517-1.349-2.336-2.702-1.16-2.158-.014-4.601-.019-4.601 1.256-2.023 2.399-2.854 2.597-2.987M94.804 11.48l-2.487-1.185c-.686-.31-1.246-.77-1.528-1.18.662-1.648 3.047-3.256 3.047-3.256l-2.51 1.393c-.397.222-.782.341-1.132.4-.36-1.14.09-4.76.09-4.76-.513 1.84-1.25 3.7-2.13 4.46-1.145-.487-3.304-2.846-3.304-2.846 1.155 1.286 1.545 2.679 1.701 3.425-1.582.29-3.752.098-3.752.098 1.788.355 3.246 1 3.664 1.412-.007.026-.014.042-.014.042-.518 1.841-2.29 3.565-2.29 3.565 1.468-1.344 2.698-1.624 3.216-1.68.208 1.813-.14 4.518-.14 4.518.555-2.247 1.27-3.63 1.88-4.196 1.622.86 3.428 2.929 3.428 2.929-1.285-1.575-1.74-2.859-1.887-3.713 1.705-.298 4.148.574 4.148.574" fill="#005596" mask="url(#rpqd6tjigb)"/>
        <path d="M86.593 6.762s1.381 2.182-.756 4.737c0 0 2.165-1.794 4.998.99 0 0-1.764-2.784.357-4.765 0 0-2.135 1.35-4.599-.962" fill="#FEFEFE" mask="url(#rpqd6tjigb)"/>
    </g>
</svg>
