<svg width="380" height="125" viewBox="0 0 380 125" xmlns="http://www.w3.org/2000/svg" xmlns:xlink="http://www.w3.org/1999/xlink">
    <defs>
        <path id="7yzvpr413a" d="M0 0h126.282v60.54H0z"/>
    </defs>
    <g fill="none" fill-rule="evenodd">
        <path d="M297.167 114.065h-6.638l-2.291-6.321-4.583 6.321h-6.598l8.297-9.443-4.465-9.481h6.598l2.095 6.083 4.385-6.083h6.637l-8.06 9.284 4.623 9.64zm-28.237 0 3.636-18.924h6.043l-3.713 18.924h-5.966zm-3.864 0h-5.649l2.212-12.8-5.492 12.603h-6.401l-.63-12.604-2.807 12.801h-5.73l4.467-18.924h8.415l.514 13.077 5.57-13.077h8.613l-3.082 18.924zM234.6 88.78l-6.213 31.645h90.3L324.9 88.78H234.6z" fill="#FEFEFE"/>
        <path fill="#231F20" d="m253.965 108.218-.514-13.077h-8.415l-4.466 18.924h5.73l2.805-12.8.631 12.603h6.4l5.493-12.604-2.212 12.801h5.65l3.081-18.924h-8.613zM272.566 95.14l-3.636 18.925h5.966l3.713-18.924z"/>
        <path d="m120.77 84.439-7.919 40.328h209.407l7.92-40.328H120.77zM234.6 88.78H324.9l-6.215 31.645h-90.299L234.6 88.78z" fill="#231F20"/>
        <path fill="#231F20" d="m293.967 95.14-4.385 6.084-2.095-6.083h-6.598l4.465 9.481-8.297 9.443h6.598l4.583-6.321 2.292 6.321h6.637l-4.622-9.64 8.06-9.284z"/>
        <path d="M159.454 100.91a29.048 29.048 0 0 0-2.825-.81c-.962-.224-1.837-.337-2.627-.337-.923 0-1.733.146-2.43.436-.697.292-1.272.695-1.719 1.211a5.142 5.142 0 0 0-1.007 1.804 7.27 7.27 0 0 0-.335 2.262c0 1.376.44 2.374 1.323 2.995.883.622 1.995.933 3.338.933 1.502 0 2.95-.33 4.347-.988l.552 5.334c-.606.21-1.415.394-2.429.552-1.015.159-1.97.238-2.865.238-3.292 0-5.841-.784-7.645-2.35-1.804-1.568-2.707-3.708-2.707-6.421 0-1.396.23-2.759.693-4.09a9.976 9.976 0 0 1 2.113-3.536c.948-1.027 2.153-1.857 3.615-2.488 1.462-.633 3.181-.948 5.156-.948 1.186 0 2.331.091 3.437.274 1.106.183 2.16.43 3.16.744l-1.145 5.184zM176.13 103.36c0-1.265-.348-2.286-1.046-3.063-.698-.777-1.68-1.166-2.944-1.166-.843 0-1.579.197-2.212.593a5.188 5.188 0 0 0-1.581 1.54 7.112 7.112 0 0 0-.948 2.154 9.517 9.517 0 0 0-.316 2.43c0 1.263.361 2.285 1.087 3.061.723.778 1.758 1.166 3.1 1.166.764 0 1.442-.197 2.036-.592a5.487 5.487 0 0 0 1.52-1.542c.422-.632.744-1.35.97-2.153a9.094 9.094 0 0 0 .334-2.429m5.888-.08c0 1.686-.303 3.22-.909 4.603-.606 1.383-1.417 2.568-2.43 3.557a11.043 11.043 0 0 1-3.537 2.31 11 11 0 0 1-4.227.83c-1.343 0-2.607-.191-3.792-.572-1.186-.383-2.22-.936-3.102-1.66a7.764 7.764 0 0 1-2.094-2.706c-.513-1.08-.77-2.305-.77-3.675 0-1.739.302-3.305.908-4.702.607-1.395 1.423-2.587 2.45-3.575a10.736 10.736 0 0 1 3.555-2.271 11.583 11.583 0 0 1 4.268-.791c1.342 0 2.6.198 3.773.593a9.266 9.266 0 0 1 3.082 1.718 7.986 7.986 0 0 1 2.074 2.726c.5 1.067.751 2.272.751 3.616M183.12 114.066l3.594-18.925h6.086l-2.727 14.065h8.415l-.948 4.86zM214.35 103.516c-.027-1.29-.415-2.251-1.165-2.884-.75-.632-1.759-.934-3.023-.908h-1.422l-1.896 9.759h1.777c.817 0 1.574-.125 2.272-.376a5.116 5.116 0 0 0 1.818-1.106c.513-.487.915-1.106 1.205-1.857.29-.75.434-1.626.434-2.628m6.085-.276c0 1.423-.23 2.792-.692 4.109a8.936 8.936 0 0 1-2.193 3.457c-1.001.987-2.31 1.778-3.93 2.37-1.62.593-3.576.89-5.867.89h-7.783l3.594-18.925h7.152c1.396 0 2.686.171 3.871.514 1.186.342 2.213.856 3.082 1.54a7.21 7.21 0 0 1 2.036 2.529c.486 1 .73 2.173.73 3.516" fill="#FEFEFE"/>
        <g transform="translate(0 5.869)">
            <mask id="o31u2bus3b" fill="#fff">
                <use xlink:href="#7yzvpr413a"/>
            </mask>
            <path d="M106.654 44.6c-1.168 1.799-2.886 2.697-5.156 2.697-2.333 0-4.083-.883-5.249-2.65-1.168-1.763-1.75-4.287-1.75-7.566 0-3.343.582-5.928 1.75-7.757 1.166-1.829 2.884-2.744 5.155-2.744 2.332 0 4.082.9 5.25 2.697 1.167 1.798 1.75 4.336 1.75 7.615 0 3.342-.583 5.912-1.75 7.709M30.128 27.398c-1.546 1.285-3.989 1.958-7.33 2.02l-4.73.094V14.19h5.107c6.18 0 9.271 2.444 9.271 7.332 0 2.634-.773 4.593-2.318 5.877m94.263-.628c-1.262-2.9-2.997-5.345-5.203-7.331-2.208-1.987-4.81-3.484-7.804-4.493-2.997-1.009-6.196-1.514-9.601-1.514-3.405 0-6.638.52-9.696 1.56a24.232 24.232 0 0 0-6.977 3.712l-3.692 5.581-.003.004 2.008-9.25c-1.198-.628-2.381-1.055-3.547-1.276a18.09 18.09 0 0 0-3.358-.331c-4.226 0-7.472 2.113-9.744 6.337v-5.865l-21.237 2.563 4.25-2.267a19.96 19.96 0 0 0-.644-1.667c-1.168-2.616-2.872-4.855-5.109-6.716-2.238-1.86-4.998-3.295-8.276-4.305C32.478.505 28.758 0 24.594 0H0v59.121h18.635V43.23h4.73c9.081 0 15.94-1.893 20.575-5.676a17.833 17.833 0 0 0 4.768-5.957v27.524h18.066v-24.31c1.136-1.955 2.413-3.295 3.831-4.02a9.948 9.948 0 0 1 4.589-1.09c.81 0 1.593.09 2.35.25-.61 2.206-.924 4.611-.924 7.224 0 3.848.63 7.238 1.893 10.17 1.26 2.931 2.993 5.377 5.203 7.33 2.205 1.956 4.806 3.422 7.803 4.399 2.994.977 6.196 1.466 9.602 1.466 3.405 0 6.636-.52 9.695-1.561 3.058-1.04 5.738-2.584 8.041-4.635 2.302-2.049 4.115-4.54 5.44-7.473 1.323-2.933 1.985-6.29 1.985-10.074 0-3.783-.63-7.126-1.891-10.027" fill="#231F20" mask="url(#o31u2bus3b)"/>
        </g>
        <path fill="#231F20" d="m81.997 27.487.098-.455-.1.455z"/>
        <path fill="#231F20" d="m81.996 27.487-.58 2.67.003-.003.578-2.667zM50.279 21.765l2.693-.323-.002-.006-2.693.324a.01.01 0 0 1 .002.005"/>
        <path d="M48.707 21.95v.005l1.571-.19v-.005l-1.57.19z" fill="#231F20"/>
        <path d="M166.884 25.316c0-7.997-5.228-11.997-15.682-11.997h-7.934v24.465l8.596-.188c4.973-.126 8.722-1.243 11.241-3.353 2.518-2.11 3.78-5.085 3.78-8.927m8.122-.378c0 6.675-2.158 11.698-6.471 15.067-4.314 3.37-10.154 5.117-17.522 5.242l-7.746.095v19.553h-8.03V5.856h16.343c4.029 0 7.523.473 10.484 1.418 2.96.945 5.4 2.267 7.322 3.967 1.92 1.7 3.336 3.716 4.25 6.045.912 2.33 1.37 4.882 1.37 7.652M206.207 43.358c-6.39.819-10.9 1.969-13.531 3.448-2.63 1.48-3.945 3.542-3.945 6.187 0 1.952.673 3.557 2.019 4.818 1.346 1.26 3.21 1.888 5.591 1.888 2.004 0 3.836-.439 5.497-1.322a16.889 16.889 0 0 0 4.37-3.306V43.358zm-.095 16.909c-1.633 1.952-3.436 3.448-5.412 4.487-1.977 1.039-4.126 1.558-6.446 1.558-2.008 0-3.86-.314-5.554-.942-1.694-.628-3.152-1.491-4.376-2.591a11.238 11.238 0 0 1-2.824-3.91c-.658-1.508-.987-3.142-.987-4.902 0-1.947.391-3.798 1.176-5.558.783-1.76 2.15-3.33 4.094-4.711 1.946-1.383 4.581-2.529 7.906-3.44 3.326-.911 7.498-1.493 12.518-1.744V37.29c0-3.518-.738-6.03-2.212-7.537-1.474-1.51-3.967-2.263-7.48-2.263-2.196 0-4.563.448-7.103 1.343-2.54.896-4.813 2.023-6.821 3.38l-1.51-6.991c1.888-1.322 4.296-2.487 7.225-3.495a27.578 27.578 0 0 1 9.022-1.511c5.918 0 10.216 1.322 12.893 3.967 2.676 2.645 3.95 6.928 3.827 12.847v18.136c0 1.764.235 2.914.708 3.449.472.535 1.653.802 3.542.802l-.473 6.519c-3.54.313-6.167-.08-7.888-1.181-1.722-1.101-2.87-2.598-3.443-4.487h-.382zM248.08 64.423c-3.276 1.259-6.518 1.89-9.729 1.89-4.22 0-7.4-1.072-9.54-3.212-2.143-2.14-3.151-5.574-3.024-10.297l.661-24.182-7.18-.473.285-4.912 7.179-2.171.188-9.353h7.464l-.284 9.919h13.508l-.284 6.99h-13.507l-.661 24.465c-.128 4.094 1.761 6.141 5.666 6.141 1.324 0 2.645-.143 3.968-.426a23.74 23.74 0 0 0 3.873-1.18c.062 0 .156.347.285 1.04.123.692.282 1.479.471 2.36.25 1.009.472 2.142.661 3.401M272.544 66.312c-3.4 0-6.422-.552-9.067-1.653-2.646-1.101-4.866-2.675-6.661-4.724-1.795-2.044-3.164-4.487-4.108-7.32-.945-2.834-1.417-5.95-1.417-9.351 0-3.464.55-6.613 1.654-9.448 1.1-2.833 2.61-5.256 4.533-7.273 1.92-2.014 4.22-3.572 6.895-4.675 2.676-1.1 5.589-1.653 8.74-1.653 2.833 0 5.367.3 7.602.897 2.235.6 4.36 1.528 6.378 2.787l-1.985 7.084c-3.528-2.329-7.526-3.494-11.996-3.494-4.473 0-7.888 1.393-10.25 4.177-2.36 2.787-3.542 6.621-3.542 11.503 0 5.01 1.244 8.906 3.731 11.69 2.487 2.787 5.777 4.18 9.872 4.18 2.266 0 4.47-.29 6.611-.874 2.14-.582 4.094-1.455 5.858-2.622l1.416 7.18c-3.905 2.391-8.66 3.589-14.264 3.589M322.26 64.895V37.69c0-3.778-.703-6.39-2.108-7.841-1.402-1.447-3.507-2.173-6.315-2.173-2.497 0-4.758.49-6.786 1.466-2.029.977-3.664 2.062-4.912 3.258v32.495h-7.84V1.23L302.139 0l-.095 26.543c2.015-2.014 4.252-3.572 6.708-4.675 2.455-1.1 5.067-1.653 7.84-1.653 4.157 0 7.446 1.307 9.872 3.92 2.422 2.615 3.635 6.281 3.635 11.004v29.756h-7.84z" fill="#898B8E"/>
        <path d="M343.116 9.21c.377-.03.665-.125.864-.288.199-.162.299-.41.299-.742 0-.605-.436-.908-1.307-.908h-.742v1.96l.886-.022zm-.853 3.588h-1.76V5.877h2.78c.922 0 1.619.197 2.092.592.472.395.709.929.709 1.6 0 .466-.12.87-.36 1.213-.24.343-.593.604-1.058.781l1.772 2.735h-1.982l-1.384-2.325-.809.066v2.259z" fill="#231F20"/>
        <path d="M343.189 2.526a6.819 6.819 0 0 0-6.811 6.811 6.819 6.819 0 0 0 6.81 6.812A6.819 6.819 0 0 0 350 9.337a6.819 6.819 0 0 0-6.811-6.811m0 1.173a5.637 5.637 0 0 1 5.638 5.638 5.637 5.637 0 1 1-11.276 0A5.637 5.637 0 0 1 343.19 3.7" fill="#231F20"/>
    </g>
</svg>
