<svg width="150" height="60" viewBox="0 0 150 60" xmlns="http://www.w3.org/2000/svg">
    <g fill="none" fill-rule="evenodd">
        <path fill="#231F20" d="m148.322 2.768-.525 2.386-.522-2.386h-4.553v.863h1.012v2.483h1.055V3.631h.939l-.089 2.483h.97l.013-2.462.587 2.407h1.146l.582-2.419.012 2.474h.99l-.118-3.346zM59.92 15.664c-.61-1.398-1.445-2.575-2.506-3.531-1.066-.957-2.318-1.68-3.76-2.165-1.443-.485-2.985-.73-4.625-.73-1.64 0-3.197.252-4.672.754a11.746 11.746 0 0 0-3.36 1.786l-1.778 2.69.28-1.286-.282 1.287.002-.002-.002.002.968-4.456a6.163 6.163 0 0 0-1.71-.614 8.627 8.627 0 0 0-1.616-.16c-2.037 0-3.599 1.018-4.693 3.052V9.467l-6.65.802v-.002l-1.296.156v.002h-.003v-.002l-.755.091v.002l-1.528.185 2.048-1.093a8.839 8.839 0 0 0-2.77-4.037c-1.079-.895-2.408-1.588-3.987-2.073-1.58-.485-3.373-.73-5.38-.73H0v28.479h8.978v-7.655h2.278c4.374 0 7.676-.91 9.91-2.734a8.549 8.549 0 0 0 2.296-2.869v13.258h8.704V19.538c.546-.942 1.162-1.588 1.845-1.939a4.814 4.814 0 0 1 2.209-.522c.391 0 .769.042 1.133.12-.294 1.063-.445 2.22-.445 3.48 0 1.853.303 3.486.912 4.897.606 1.414 1.441 2.592 2.504 3.531 1.064.942 2.317 1.65 3.76 2.12 1.442.47 2.986.705 4.626.705 1.64 0 3.197-.25 4.669-.751a11.178 11.178 0 0 0 3.874-2.232c1.108-.987 1.982-2.188 2.622-3.602.636-1.41.956-3.03.956-4.851 0-1.822-.305-3.433-.912-4.83m-45.407.303c-.744.618-1.922.942-3.531.973l-2.279.046V9.604h2.46c2.98 0 4.468 1.176 4.468 3.532 0 1.268-.374 2.213-1.118 2.83m36.864 8.288c-.563.866-1.39 1.299-2.484 1.299-1.125 0-1.967-.427-2.529-1.278-.562-.849-.844-2.064-.844-3.643 0-1.612.282-2.857.844-3.737.562-.881 1.39-1.322 2.484-1.322 1.122 0 1.966.433 2.529 1.3.562.864.842 2.086.842 3.665 0 1.612-.28 2.848-.842 3.716"/>
        <path fill="#0082BA" d="m87.896 2.823-8.69 23.387-8.738-23.387h-5.14l-.957 28.44h3.776l.32-23.707 8.69 23.296h3.868L89.67 7.601l.273 23.661h3.913l-.91-28.439zM108.167 9.738c-1.458 0-2.815.273-4.073.819a9.416 9.416 0 0 0-3.253 2.321c-.91 1.002-1.63 2.192-2.162 3.573-.53 1.381-.796 2.92-.796 4.618 0 1.577.257 3.034.775 4.369.512 1.334 1.234 2.489 2.16 3.459a9.536 9.536 0 0 0 3.32 2.25c1.29.532 2.723.798 4.302.798 1.334 0 2.6-.145 3.799-.434 1.197-.286 2.267-.718 3.207-1.296l-.681-3.457c-.851.562-1.829.982-2.937 1.262-1.107.28-2.206.42-3.298.42-1 0-1.919-.173-2.752-.519a6.208 6.208 0 0 1-2.139-1.448 6.965 6.965 0 0 1-1.41-2.192c-.35-.844-.54-1.778-.57-2.804v-.18c2.61 0 4.945-.016 7.007-.046.882-.03 1.738-.045 2.572-.045H115.675c.151-.456.263-.979.34-1.571.075-.59.114-1.173.114-1.752 0-2.486-.69-4.464-2.07-5.936-1.381-1.472-3.346-2.209-5.892-2.209zm4.368 8.693-10.693.088c.09-.69.28-1.359.569-2.005a6.18 6.18 0 0 1 1.182-1.761 5.653 5.653 0 0 1 1.82-1.264c.713-.315 1.51-.474 2.39-.474 1.637 0 2.836.467 3.594 1.4.758.933 1.138 2.167 1.138 3.701v.315zM120.233 31.261h3.777V0l-3.777.593zM140.427 29.397c-.091-.424-.166-.804-.227-1.138-.06-.334-.107-.501-.137-.501a11.07 11.07 0 0 1-1.866.569 9.001 9.001 0 0 1-1.91.205c-1.883 0-2.792-.987-2.731-2.958l.319-11.785h6.507l.135-3.368h-6.507l.138-4.777h-3.594l-.092 4.504-3.459 1.047-.135 2.367 3.457.227-.317 11.648c-.06 2.276.424 3.93 1.455 4.961 1.031 1.03 2.563 1.546 4.595 1.546 1.549 0 3.111-.303 4.688-.91a17.33 17.33 0 0 0-.32-1.637"/>
        <path d="M19.545 55.646c-1.01-.791-1.514-1.875-1.514-3.246 0-.312.06-.626.104-.938.025-.175.018-.347.057-.52l1.276-6.446H7.055l-1.55 6.966-.988 4.436h15.388a3.42 3.42 0 0 1-.36-.252M43.39 46.912l.47-2.416h-5.105l-1.35 6.965-.335 1.725h5.762l-.53 2.711h3.455l.875-4.436.898-4.549zM61.031 49.914l1.568-.027c.685 0 1.28-.15 1.785-.448.507-.296.758-.805.758-1.527 0-.468-.186-.848-.555-1.135-.368-.29-.87-.435-1.502-.435h-1.35l-.704 3.572zM79.362 54.13h-4.516l-.984 1.768h5.722zM62.409 52.294l-1.812.08-.69 3.524h3.728zM56.22 44.496l-.47 2.416h-4.109l-.896 4.55-.875 4.435h6.005l.853-4.435 1.337-6.966zM67.689 44.496c.066.045.135.093.2.143.422.344.75.74.985 1.19.233.452.35.948.35 1.488 0 1.081-.29 1.966-.877 2.649a4.783 4.783 0 0 1-2.23 1.462l.013.034 1.744 4.435h1.855l2.502-4.435 3.925-6.966h-8.467z" fill="#0071BB"/>
        <path d="m3.85 40.777-2.1 10.685L.15 59.619h97.749l1.602-8.157 2.1-10.685H3.85zm92.162 16.566H2.716l1.31-5.881 1.871-8.411h93.134l-1.778 8.41-1.241 5.882z" fill="#0071BB"/>
        <path fill="#0071BB" d="m82.036 44.496.975 6.966.62 4.435h11.21l.937-4.435 1.473-6.966zM76.063 51.373h3.138l-.543-5.031z"/>
        <path d="M79.202 51.373h-3.138l2.595-5.031.543 5.03zM4.518 55.897l.986-4.436 1.552-6.965H19.47l-1.276 6.445c-.04.174-.034.345-.059.52-.042.312-.102.627-.102.939 0 1.37.505 2.454 1.514 3.246.113.09.233.174.36.251H4.518zm22.52-8.393c-.09.49-.181.971-.271 1.448-.09.477-.17.903-.242 1.271-.073.365-.161.779-.267 1.238-.002.007-.005.014-.005.02-.126.632-.341 1.132-.649 1.5-.306.37-.794.555-1.46.555-1.261 0-1.892-.557-1.892-1.677 0-.129.038-.267.05-.398.022-.217.028-.43.085-.656l1.199-6.31h4.042c-.223 1.102-.42 2.107-.59 3.01zm6.23 3.957-.842 4.436h-4.734c.152-.09.298-.187.44-.292 1.128-.819 1.863-2.14 2.207-3.96.01-.068.02-.119.033-.184l.209-1.088.244-1.299c.089-.486.187-.981.296-1.488.186-.935.385-1.966.604-3.09h2.869l-1.326 6.965zm13.365 0-.876 4.436h-3.453l.529-2.712H37.07l.333-1.724 1.352-6.965h5.104l-.469 2.416h4.14l-.898 4.55zm10.094 0-.85 4.436H49.87l.874-4.436.898-4.549h4.11l.468-2.416h1.847l-1.34 6.965zm3.18 4.436.69-3.524 1.813-.08 1.226 3.604h-3.728zm4.477-6.459c-.504.299-1.099.449-1.784.449l-1.568.027.704-3.572h1.35c.631 0 1.133.144 1.502.434.369.287.554.668.554 1.135 0 .722-.251 1.231-.758 1.527zm5.346 6.46h-1.855l-1.746-4.437-.011-.034a4.782 4.782 0 0 0 2.23-1.461c.586-.683.878-1.568.878-2.65a3.2 3.2 0 0 0-.351-1.488 3.796 3.796 0 0 0-.986-1.19 4.03 4.03 0 0 0-.2-.142h8.468L72.23 51.46l-2.5 4.436zm4.133 0 .984-1.768h4.515l.222 1.767h-5.72zM95.78 51.46l-.936 4.436H83.63l-.622-4.436-.973-6.965h15.216L95.78 51.46zM115.383 46.804c0-2.167-1.96-3.806-4.354-3.806-1.393 0-3.583.475-4.643 1.365l.558 2.546c.97-.831 2.36-1.12 3.237-1.12.757 0 1.75.531 1.75 1.45 0 2.258-2.739 3.951-4.708 5.702l-2.191 1.725-.407 2.79h9.66l.243-2.893h-5.718l1.709-1.256c2.755-2.226 4.864-3.98 4.864-6.503M120.691 55.2c-1.181 0-1.424-1.04-1.424-2.197 0-1.218.606-7.244 2.878-7.244 1.181 0 1.423 1.04 1.423 2.197 0 1.217-.605 7.243-2.877 7.243m1.727-12.2c-4.938 0-6.422 6.47-6.422 9.766 0 3.087 1.333 5.195 4.422 5.195 4.938 0 6.422-6.472 6.422-9.767 0-3.087-1.333-5.194-4.422-5.194M132.365 55.2c-1.182 0-1.424-1.04-1.424-2.197 0-1.218.605-7.244 2.877-7.244 1.182 0 1.424 1.04 1.424 2.197 0 1.217-.606 7.243-2.877 7.243M134.09 43c-4.937 0-6.422 6.47-6.422 9.766 0 3.087 1.333 5.195 4.423 5.195 4.937 0 6.422-6.472 6.422-9.767 0-3.087-1.333-5.194-4.423-5.194M143.851 55.2c-1.181 0-1.424-1.04-1.424-2.197 0-1.218.606-7.244 2.878-7.244 1.181 0 1.423 1.04 1.423 2.197 0 1.217-.605 7.243-2.877 7.243m1.727-12.2c-4.938 0-6.422 6.47-6.422 9.766 0 3.087 1.333 5.195 4.422 5.195 4.938 0 6.422-6.472 6.422-9.767 0-3.087-1.333-5.194-4.422-5.194" fill="#0071BB"/>
    </g>
</svg>
