<svg width="150" height="61" viewBox="0 0 150 61" xmlns="http://www.w3.org/2000/svg">
    <g fill="none" fill-rule="evenodd">
        <path fill="#231F20" d="m148.383 3.144-.52 2.385-.526-2.385h-4.553v.864h1.008V6.49h1.055V4.008h.94l-.083 2.483h.966l.011-2.462.589 2.406h1.145l.589-2.418.007 2.474H150l-.117-3.347zM51.395 24.637c-.562.866-1.388 1.3-2.483 1.3-1.125 0-1.967-.424-2.53-1.276-.562-.85-.844-2.068-.844-3.648 0-1.61.282-2.856.845-3.738.562-.88 1.388-1.321 2.483-1.321 1.124 0 1.967.434 2.53 1.3.562.865.844 2.088.844 3.668 0 1.61-.282 2.85-.845 3.715m-36.877-8.289c-.744.619-1.923.943-3.533.973l-2.278.045V9.982h2.46c2.978 0 4.469 1.178 4.469 3.533 0 1.27-.374 2.215-1.118 2.833m45.426-.303c-.61-1.398-1.445-2.577-2.507-3.534-1.064-.956-2.32-1.677-3.762-2.165-1.444-.486-2.984-.728-4.627-.728-1.641 0-3.198.25-4.672.751a11.649 11.649 0 0 0-3.361 1.79l-1.78 2.689.13-.603.15-.683-.092.413.778-3.583a6.146 6.146 0 0 0-1.709-.616 8.843 8.843 0 0 0-1.62-.158c-2.034 0-3.6 1.017-4.695 3.054V9.844l-6.65.803-1.298.156v.003-.003l-.757.091v.003l-1.528.184 2.049-1.095a8.87 8.87 0 0 0-2.772-4.04C20.14 5.052 18.81 4.36 17.23 3.873c-1.58-.485-3.372-.728-5.38-.728H0v28.49h8.98v-7.657h2.28c4.376 0 7.68-.913 9.914-2.735a8.612 8.612 0 0 0 2.298-2.87v13.262h8.705V19.92c.549-.943 1.165-1.59 1.846-1.94a4.812 4.812 0 0 1 2.213-.522c.39 0 .767.042 1.131.119-.294 1.064-.445 2.222-.445 3.482 0 1.853.305 3.486.912 4.9.607 1.413 1.442 2.591 2.509 3.532 1.062.942 2.315 1.65 3.76 2.12 1.442.47 2.987.706 4.627.706 1.64 0 3.197-.25 4.672-.752 1.473-.502 2.766-1.246 3.874-2.233 1.111-.987 1.984-2.19 2.623-3.601.637-1.414.957-3.032.957-4.854 0-1.825-.306-3.435-.912-4.833"/>
        <path fill="#0082BA" d="m87.932 3.198-8.695 23.398-8.74-23.398h-5.144l-.957 28.45h3.781l.317-23.715L77.19 31.24h3.87l8.648-23.262.273 23.67h3.914l-.91-28.45zM112.582 18.813l-10.698.091a7.18 7.18 0 0 1 .57-2.01 6.233 6.233 0 0 1 1.182-1.761 5.65 5.65 0 0 1 1.82-1.263c.715-.315 1.51-.474 2.39-.474 1.639 0 2.838.465 3.597 1.398.758.934 1.139 2.168 1.139 3.704v.315zm-4.372-8.695c-1.456 0-2.814.273-4.072.819a9.397 9.397 0 0 0-3.255 2.322c-.91 1-1.632 2.193-2.161 3.573-.532 1.381-.799 2.921-.799 4.62 0 1.578.257 3.037.775 4.371.516 1.335 1.235 2.488 2.161 3.459a9.578 9.578 0 0 0 3.323 2.254c1.291.53 2.724.796 4.302.796 1.334 0 2.602-.145 3.801-.432 1.2-.289 2.268-.72 3.209-1.297l-.681-3.461c-.85.562-1.83.985-2.936 1.265-1.109.28-2.208.42-3.3.42-1.004 0-1.92-.173-2.756-.52a6.21 6.21 0 0 1-2.138-1.447 6.964 6.964 0 0 1-1.412-2.194c-.35-.845-.539-1.78-.57-2.805v-.18c2.61 0 4.946-.016 7.011-.047.88-.03 1.736-.044 2.572-.044h4.439c.151-.455.266-.98.34-1.57a13.58 13.58 0 0 0 .115-1.753c0-2.49-.691-4.47-2.07-5.942-1.384-1.472-3.347-2.207-5.898-2.207zM120.283 31.65h3.779V.374l-3.779.593zM140.485 29.784a37.271 37.271 0 0 1-.226-1.14c-.061-.333-.108-.499-.138-.499a11.33 11.33 0 0 1-1.867.568 8.99 8.99 0 0 1-1.911.205c-1.881 0-2.791-.985-2.73-2.96l.319-11.79h6.509l.135-3.367h-6.509l.136-4.78h-3.597l-.088 4.507-3.461 1.046-.138 2.368 3.461.227-.32 11.654c-.06 2.276.427 3.93 1.459 4.962 1.031 1.031 2.562 1.547 4.597 1.547 1.548 0 3.111-.303 4.689-.91a17.48 17.48 0 0 0-.32-1.638"/>
        <path fill="#9C9EA1" d="m39.792 40.973-3.816 19.435H136.8l3.818-19.435z"/>
        <path d="M82.233 48.664a15.572 15.572 0 0 0-1.542-.44 6.266 6.266 0 0 0-1.433-.185c-.504 0-.945.08-1.326.238-.38.159-.693.378-.938.66a2.808 2.808 0 0 0-.548.985 3.925 3.925 0 0 0-.185 1.235c0 .751.24 1.295.721 1.633.483.339 1.09.51 1.823.51.82 0 1.61-.18 2.371-.54l.301 2.91c-.329.115-.772.215-1.325.301-.554.087-1.074.13-1.562.13-1.797 0-3.188-.426-4.172-1.283-.985-.854-1.475-2.023-1.475-3.503 0-.76.123-1.505.375-2.23a5.455 5.455 0 0 1 1.153-1.93c.518-.56 1.176-1.013 1.975-1.356.795-.346 1.734-.519 2.812-.519.646 0 1.272.052 1.876.15.602.1 1.176.236 1.722.406l-.623 2.828zM93.84 55.853h-3.234l-.235-1.897H86.77l-1.057 1.897h-3.298l5.82-10.324h4.161l1.445 10.324zm-4.032-8.105-2.067 4.01h2.499l-.432-4.01zM95.265 55.853l1.963-10.324h3.318l-1.486 7.673h4.59l-.518 2.651z" fill="#FEFEFE"/>
    </g>
</svg>
