<svg width="150" height="60" viewBox="0 0 150 60" xmlns="http://www.w3.org/2000/svg">
    <g fill="none" fill-rule="evenodd">
        <path fill="#231F20" d="m148.383 2.769-.525 2.387-.523-2.387h-4.554v.863h1.012v2.485h1.055V3.632h.94l-.088 2.485h.97l.012-2.463.588 2.407h1.145l.584-2.42.012 2.476H150l-.117-3.348zM59.944 15.67c-.61-1.398-1.445-2.576-2.506-3.532-1.067-.957-2.32-1.68-3.762-2.166-1.444-.486-2.987-.73-4.627-.73-1.64 0-3.199.252-4.674.754a11.75 11.75 0 0 0-3.362 1.787l-1.778 2.69.28-1.285-.282 1.287.002-.002-.002.002.968-4.458a6.165 6.165 0 0 0-1.71-.615 8.63 8.63 0 0 0-1.617-.16c-2.037 0-3.6 1.02-4.695 3.054V9.47l-6.652.802v-.002l-1.298.156v.002h-.002v-.002l-.756.091v.003l-1.528.184 2.049-1.093a8.842 8.842 0 0 0-2.772-4.039C20.14 4.678 18.81 3.985 17.232 3.5c-1.58-.485-3.374-.73-5.381-.73H0v28.49h8.981v-7.658h2.28c4.375 0 7.679-.91 9.914-2.735a8.552 8.552 0 0 0 2.296-2.87V31.26h8.708V19.546c.546-.943 1.162-1.59 1.845-1.94a4.816 4.816 0 0 1 2.21-.522c.392 0 .77.042 1.135.12-.294 1.063-.446 2.22-.446 3.48 0 1.855.303 3.489.912 4.9.607 1.415 1.442 2.593 2.506 3.533 1.064.943 2.317 1.65 3.761 2.12 1.442.47 2.987.706 4.628.706 1.64 0 3.198-.25 4.67-.752a11.183 11.183 0 0 0 3.877-2.232c1.108-.987 1.983-2.189 2.622-3.603.637-1.412.957-3.031.957-4.854 0-1.822-.306-3.434-.912-4.832m-45.426.303c-.744.619-1.923.943-3.533.974l-2.279.046V9.608h2.461c2.98 0 4.469 1.176 4.469 3.533 0 1.27-.374 2.214-1.118 2.832m36.879 8.29c-.563.867-1.39 1.3-2.485 1.3-1.125 0-1.967-.426-2.53-1.278-.562-.85-.844-2.065-.844-3.645 0-1.612.282-2.858.844-3.738.563-.882 1.39-1.323 2.485-1.323 1.123 0 1.967.434 2.53 1.3.562.866.842 2.088.842 3.668 0 1.612-.28 2.849-.842 3.717"/>
        <path fill="#0082BA" d="M87.932 2.825 79.238 26.22l-8.74-23.396h-5.144l-.957 28.45h3.778l.32-23.716 8.694 23.306h3.869l8.65-23.261.273 23.671h3.915l-.91-28.45zM108.211 9.742c-1.458 0-2.816.273-4.074.82a9.42 9.42 0 0 0-3.255 2.321c-.91 1.003-1.631 2.193-2.163 3.575-.53 1.381-.796 2.921-.796 4.62 0 1.577.257 3.035.775 4.37.513 1.335 1.235 2.49 2.16 3.46a9.54 9.54 0 0 0 3.323 2.252c1.291.532 2.724.798 4.303.798a16.15 16.15 0 0 0 3.801-.434c1.197-.287 2.268-.719 3.209-1.297l-.682-3.458c-.851.562-1.83.982-2.938 1.262s-2.207.42-3.3.42c-1 0-1.92-.172-2.752-.518a6.21 6.21 0 0 1-2.14-1.45 6.968 6.968 0 0 1-1.412-2.192c-.35-.845-.539-1.778-.569-2.805v-.18c2.61 0 4.947-.016 7.01-.046.882-.03 1.738-.045 2.573-.045H115.722c.152-.457.264-.98.34-1.572.076-.59.115-1.174.115-1.753 0-2.487-.69-4.466-2.072-5.938-1.381-1.472-3.346-2.21-5.894-2.21zm4.37 8.697-10.698.088c.091-.69.28-1.36.57-2.006a6.183 6.183 0 0 1 1.182-1.762 5.655 5.655 0 0 1 1.82-1.264c.715-.315 1.513-.474 2.392-.474 1.638 0 2.838.466 3.596 1.4.758.933 1.138 2.167 1.138 3.703v.315zM120.283 31.274h3.777V0l-3.777.593zM140.484 29.41c-.09-.425-.166-.806-.226-1.14-.061-.333-.108-.501-.138-.501-.606.245-1.227.434-1.866.57a9.005 9.005 0 0 1-1.911.205c-1.884 0-2.793-.987-2.733-2.96l.32-11.79h6.51l.135-3.369h-6.51l.138-4.779h-3.596l-.091 4.506-3.46 1.048-.136 2.368 3.459.226-.318 11.653c-.06 2.278.425 3.932 1.456 4.963 1.031 1.032 2.564 1.547 4.597 1.547 1.55 0 3.112-.303 4.69-.91a17.337 17.337 0 0 0-.32-1.638"/>
        <path d="M19.553 55.67c-1.01-.793-1.514-1.876-1.514-3.248 0-.313.059-.627.104-.94.025-.174.018-.346.057-.52l1.276-6.447H7.058l-1.55 6.968-.989 4.438h15.394a3.421 3.421 0 0 1-.36-.252M43.408 46.931l.47-2.417H38.77l-1.35 6.968-.336 1.725h5.765l-.53 2.713h3.455l.876-4.438.899-4.55zM61.056 49.935l1.568-.027c.686 0 1.281-.15 1.786-.449.507-.296.758-.805.758-1.527 0-.469-.186-.849-.555-1.136-.368-.29-.87-.435-1.502-.435H61.76l-.704 3.574zM79.394 54.153h-4.517l-.985 1.768h5.724zM62.434 52.316l-1.812.08-.69 3.525h3.729zM56.243 44.514l-.47 2.418h-4.11l-.897 4.55-.876 4.438h6.008l.854-4.437 1.337-6.969zM67.717 44.514c.066.045.135.093.199.143.423.344.75.74.986 1.19.234.453.351.949.351 1.49 0 1.081-.291 1.966-.878 2.65a4.785 4.785 0 0 1-2.231 1.462l.013.034 1.745 4.437h1.856l2.503-4.437 3.926-6.969h-8.47z" fill="#0071BB"/>
        <path d="m3.851 40.794-2.1 10.689-1.602 8.16h97.79l1.602-8.16 2.1-10.69H3.85zm92.2 16.573H2.717l1.31-5.884L5.9 43.069h93.172l-1.779 8.414-1.242 5.884z" fill="#0071BB"/>
        <path fill="#0071BB" d="m82.07 44.514.975 6.969.62 4.437H94.88l.936-4.437 1.474-6.969zM76.095 51.394h3.138l-.543-5.033z"/>
        <path d="M79.234 51.394h-3.138l2.595-5.033.543 5.033zM4.52 55.92l.986-4.438 1.553-6.968h12.418L18.2 50.962c-.04.174-.034.346-.058.52-.043.312-.102.627-.102.94 0 1.371.504 2.455 1.514 3.247.113.09.233.174.36.251H4.52zm22.53-8.396-.272 1.448c-.09.478-.17.903-.242 1.272-.073.365-.162.779-.267 1.238-.003.007-.005.014-.005.02-.127.632-.342 1.132-.65 1.5-.305.372-.794.556-1.46.556-1.262 0-1.893-.558-1.893-1.677 0-.13.038-.267.05-.399.022-.217.028-.43.085-.656l1.2-6.312h4.044a212.17 212.17 0 0 0-.59 3.01zm6.232 3.958-.842 4.438h-4.737c.152-.09.299-.187.441-.292 1.128-.82 1.863-2.141 2.207-3.963.011-.067.02-.117.034-.183.075-.389.145-.765.208-1.089.073-.38.154-.812.245-1.299.088-.486.187-.981.296-1.488.186-.936.385-1.967.604-3.092h2.87l-1.326 6.968zm13.37 0-.876 4.438h-3.455l.53-2.713h-5.765l.333-1.725 1.353-6.968h5.106l-.469 2.417h4.142l-.899 4.551zm10.098 0-.85 4.438h-6.01l.874-4.438.899-4.55h4.112l.468-2.418h1.847l-1.34 6.968zm3.182 4.438.69-3.526 1.813-.08 1.227 3.606h-3.73zm4.479-6.461c-.504.298-1.1.448-1.785.448l-1.569.027.704-3.573h1.35c.632 0 1.135.144 1.504.434.369.288.554.668.554 1.136 0 .722-.251 1.232-.758 1.528zm5.348 6.461h-1.856l-1.747-4.438-.011-.034a4.784 4.784 0 0 0 2.23-1.462c.587-.683.88-1.568.88-2.65 0-.541-.119-1.036-.352-1.49a3.798 3.798 0 0 0-.986-1.19 4.033 4.033 0 0 0-.2-.142h8.47l-3.928 6.968-2.5 4.438zm4.135 0 .984-1.768h4.517l.222 1.768h-5.723zm21.924-4.438-.936 4.438H83.665l-.622-4.438-.973-6.968h15.222l-1.474 6.968zM107.073 47.224l3.169-.614-2.122 10.661h3.213l2.91-14.394-6.716 1.505zM120.161 54.925c-1.182 0-1.424-1.04-1.424-2.197 0-1.218.606-7.247 2.879-7.247 1.182 0 1.424 1.04 1.424 2.198 0 1.218-.606 7.246-2.879 7.246m1.728-12.205c-4.94 0-6.425 6.473-6.425 9.77 0 3.089 1.334 5.197 4.424 5.197 4.94 0 6.425-6.474 6.425-9.77 0-3.089-1.334-5.197-4.424-5.197M131.84 54.925c-1.182 0-1.424-1.04-1.424-2.197 0-1.218.605-7.247 2.878-7.247 1.182 0 1.424 1.04 1.424 2.198 0 1.218-.606 7.246-2.878 7.246m1.727-12.205c-4.94 0-6.425 6.473-6.425 9.77 0 3.089 1.334 5.197 4.425 5.197 4.94 0 6.424-6.474 6.424-9.77 0-3.089-1.333-5.197-4.424-5.197M143.706 54.925c-1.182 0-1.424-1.04-1.424-2.197 0-1.218.606-7.247 2.878-7.247 1.182 0 1.424 1.04 1.424 2.198 0 1.218-.606 7.246-2.878 7.246m1.727-12.205c-4.94 0-6.424 6.473-6.424 9.77 0 3.089 1.333 5.197 4.424 5.197 4.94 0 6.424-6.474 6.424-9.77 0-3.089-1.333-5.197-4.424-5.197" fill="#0071BB"/>
    </g>
</svg>
