<svg width="150" height="61" viewBox="0 0 150 61" xmlns="http://www.w3.org/2000/svg">
    <g fill="none" fill-rule="evenodd">
        <path fill="#231F20" d="m148.382 3.143-.524 2.388-.525-2.388h-4.553v.862h1.012V6.49h1.055V4.005h.94l-.088 2.485h.97l.01-2.463.59 2.41h1.145L149 4.014l.01 2.475H150l-.118-3.347zM51.396 24.637c-.563.866-1.39 1.299-2.484 1.299-1.125 0-1.968-.426-2.53-1.277-.563-.85-.844-2.066-.844-3.646 0-1.611.28-2.857.844-3.738.562-.882 1.39-1.323 2.484-1.323 1.124 0 1.967.434 2.53 1.3.562.866.843 2.09.843 3.67 0 1.61-.28 2.849-.843 3.715m-36.877-8.29c-.745.619-1.922.943-3.533.973l-2.28.046V9.98h2.462c2.978 0 4.468 1.178 4.468 3.534 0 1.269-.372 2.213-1.117 2.831m45.424-.302c-.608-1.398-1.444-2.576-2.507-3.533-1.064-.957-2.317-1.679-3.76-2.165-1.445-.486-2.986-.73-4.627-.73-1.641 0-3.2.251-4.673.752a11.682 11.682 0 0 0-3.362 1.79l-1.779 2.688-.001.002.967-4.457a6.15 6.15 0 0 0-1.71-.615 8.726 8.726 0 0 0-1.617-.16c-2.037 0-3.601 1.019-4.696 3.055V9.844L21.944 11.08l2.048-1.093a8.857 8.857 0 0 0-2.773-4.04c-1.078-.896-2.408-1.587-3.988-2.074-1.58-.485-3.373-.729-5.38-.729H0v28.49h8.98v-7.657h2.28c4.376 0 7.68-.912 9.914-2.735a8.589 8.589 0 0 0 2.298-2.87v13.263h8.706V19.919c.548-.942 1.163-1.588 1.846-1.938a4.795 4.795 0 0 1 2.212-.524c.39 0 .767.043 1.133.12-.295 1.063-.446 2.222-.446 3.481 0 1.854.304 3.488.912 4.9.607 1.414 1.442 2.592 2.507 3.533 1.063.943 2.317 1.65 3.76 2.12 1.443.47 2.987.707 4.628.707 1.64 0 3.197-.251 4.672-.753a11.164 11.164 0 0 0 3.875-2.233c1.109-.988 1.982-2.188 2.62-3.602.639-1.413.958-3.031.958-4.854s-.304-3.434-.912-4.832"/>
        <path fill="#231F20" d="m39.514 13.561.047-.219-.048.22z"/>
        <path fill="#231F20" d="m39.514 13.561-.28 1.287.001-.002.279-1.285zM24.23 10.804l1.297-.156-.001-.002-1.297.156v.002"/>
        <path d="M23.472 10.893v.003l.757-.092v-.002l-.757.09z" fill="#231F20"/>
        <path fill="#0082BA" d="m87.93 3.197-8.693 23.398-8.74-23.398h-5.144l-.956 28.45h3.779l.318-23.715 8.694 23.306h3.87l8.65-23.261.272 23.67h3.915l-.91-28.45zM112.58 18.812l-10.698.09a7.2 7.2 0 0 1 .57-2.008 6.198 6.198 0 0 1 1.183-1.762 5.634 5.634 0 0 1 1.82-1.263c.714-.316 1.51-.475 2.39-.475 1.64 0 2.838.467 3.597 1.4.758.933 1.138 2.167 1.138 3.702v.316zm-4.37-8.695c-1.456 0-2.815.273-4.074.82a9.394 9.394 0 0 0-3.255 2.32c-.91 1.002-1.631 2.194-2.162 3.574-.531 1.381-.796 2.92-.796 4.62 0 1.579.257 3.035.774 4.37.515 1.336 1.235 2.49 2.161 3.46a9.535 9.535 0 0 0 3.324 2.253c1.289.53 2.723.797 4.3.797 1.336 0 2.603-.145 3.802-.433 1.199-.288 2.268-.72 3.21-1.297l-.683-3.46c-.85.562-1.829.983-2.936 1.263-1.108.281-2.208.422-3.3.422-1.002 0-1.92-.173-2.754-.52a6.226 6.226 0 0 1-2.14-1.448 7.003 7.003 0 0 1-1.411-2.193c-.35-.845-.54-1.78-.57-2.805v-.181c2.61 0 4.947-.015 7.01-.046.881-.03 1.738-.045 2.573-.045H115.72c.151-.455.265-.98.342-1.57a13.87 13.87 0 0 0 .113-1.753c0-2.488-.691-4.468-2.07-5.94-1.382-1.472-3.347-2.208-5.896-2.208zM120.282 31.648h3.778V.375l-3.778.592zM140.484 29.782a35.48 35.48 0 0 1-.228-1.139c-.06-.333-.106-.5-.136-.5a11.5 11.5 0 0 1-1.867.569 9.08 9.08 0 0 1-1.911.204c-1.883 0-2.793-.985-2.732-2.958l.32-11.79h6.508l.137-3.368h-6.51l.137-4.78h-3.596l-.091 4.506-3.46 1.047-.137 2.367 3.46.228-.318 11.654c-.061 2.275.425 3.93 1.457 4.961 1.03 1.032 2.563 1.547 4.597 1.547 1.548 0 3.11-.303 4.689-.91a17.966 17.966 0 0 0-.319-1.638"/>
        <path d="M133.37 58.645h-32.182l3.085-15.71h32.181l-3.085 15.71zM3.815 41.073 0 60.507h134.902l3.816-19.434H3.816z" fill="#005A98"/>
        <path d="M81.09 48.323c.375-2.554-1.543-3.958-6.923-3.958-3.924 0-7.166.846-7.831 3.975-.36 1.692.317 3.045 2.576 3.4l5.274.812c.621.102.766.457.69.812-.122.576-.614.982-2.103.982-.744 0-1.25-.085-1.57-.254-.299-.186-.393-.457-.324-.863H65.24c.099-.296.185-.61.256-.947l1.593-7.494h-4.77l-1.554 7.308c-.33 1.556-1.332 2.047-2.888 2.047-1.556 0-2.349-.491-2.018-2.047l1.554-7.308h-4.77l-1.594 7.494c-.104.488-.16.932-.17 1.336h-5.855l1.877-8.83h-4.77l-.573 2.695c-.072-1.737-1.21-2.695-3.892-2.695H27.82l-1.143 5.38h-2.64l-.626 2.942h2.64l-.799 3.756h4.771l.798-3.755H33.5l.626-2.944h-2.678l.54-2.537h3.078c1.201 0 1.58.372 1.385 1.285-.158.741-.565 1.121-1.406 1.223l-.632 2.973h1.518c2.675 0 4.234-1.121 5.013-2.736l-1.38 6.491h12.163l.154-.724c1.013.833 2.79 1.147 5.328 1.147 4.224 0 6.711-.867 7.843-3.558-.28 3.099 3.419 3.558 6.91 3.558 5.362 0 8.059-1.387 8.685-4.33.435-2.047-.816-3.164-3.143-3.52l-5.521-.845c-.46-.068-.565-.288-.493-.626.108-.507.674-.863 2.095-.863.524 0 1.051.068 1.435.254.403.17.626.474.522.964h5.549z" fill="#FEFEFE"/>
        <path d="m112.298 52.446 3.11-.56c1.24-.226 2.996-.858 3.33-2.43.492-2.313-1.957-2.79-4.674-2.79-2.11 0-4.92.381-5.776 3.23h3.575c.324-1.073 1.26-1.156 2.165-1.156.774 0 1.318.19 1.217.667-.074.346-.346.56-.78.644l-2.556.525c-2.07.428-4.289 1.394-5.025 4.576h10.464l.441-2.074h-6.924c.268-.31.69-.5 1.433-.632M125.995 51.04c-.19 1.061-1.024 2.181-2.514 2.181-1.454 0-1.823-1.12-1.634-2.18.236-1.11 1.082-2.23 2.536-2.23 1.49 0 1.848 1.12 1.612 2.23m-1.12-4.375c-3.456 0-5.614 1.573-6.245 4.374-.586 2.753.903 4.326 4.36 4.326 3.48 0 5.637-1.573 6.223-4.326.631-2.8-.858-4.374-4.338-4.374" fill="#005A98"/>
    </g>
</svg>
