<svg width="150" height="62" viewBox="0 0 150 62" xmlns="http://www.w3.org/2000/svg">
    <g fill="none" fill-rule="evenodd">
        <path fill="#231F20" d="m148.383 3.19-.523 2.426-.525-2.427h-4.555v.878h1.012v2.525h1.053V4.067h.943l-.087 2.525h.969l.012-2.504.588 2.45h1.143l.588-2.462.007 2.516H150l-.117-3.403zM51.395 25.04c-.563.882-1.389 1.321-2.483 1.321-1.125 0-1.968-.432-2.53-1.298-.563-.863-.845-2.1-.845-3.705 0-1.639.282-2.906.845-3.802.562-.896 1.388-1.344 2.483-1.344 1.125 0 1.967.44 2.53 1.32.562.883.844 2.127.844 3.732 0 1.638-.282 2.896-.844 3.776m-36.877-8.427c-.745.63-1.923.96-3.533.99l-2.278.046v-7.507h2.46c2.977 0 4.469 1.197 4.469 3.591 0 1.291-.374 2.25-1.118 2.88m45.425-.308c-.61-1.421-1.445-2.618-2.506-3.591-1.065-.974-2.32-1.706-3.762-2.201-1.445-.495-2.985-.742-4.628-.742-1.64 0-3.197.254-4.672.765a11.603 11.603 0 0 0-3.36 1.818l-1.777 2.728.276-1.302-.266 1.242.952-4.462a6.043 6.043 0 0 0-1.708-.628 8.653 8.653 0 0 0-1.62-.161c-2.035 0-3.6 1.036-4.695 3.104v-2.873l-6.651.817-1.298.158v-.002l-.756.093v.003l-1.528.186 2.049-1.11A8.994 8.994 0 0 0 21.22 6.04c-1.081-.91-2.412-1.613-3.991-2.108-1.58-.495-3.373-.742-5.38-.742H0v28.965h8.98V24.37h2.28c4.376 0 7.68-.928 9.913-2.781a8.709 8.709 0 0 0 2.3-2.918v13.484h8.704v-11.91c.548-.957 1.164-1.616 1.846-1.97a4.734 4.734 0 0 1 2.212-.532c.39 0 .768.042 1.132.121-.294 1.08-.446 2.259-.446 3.54 0 1.884.306 3.545.913 4.983.606 1.435 1.442 2.632 2.508 3.589 1.062.959 2.315 1.678 3.76 2.156 1.442.479 2.987.719 4.628.719 1.64 0 3.197-.257 4.672-.766a11.115 11.115 0 0 0 3.873-2.27c1.111-1.004 1.984-2.224 2.621-3.662.64-1.437.96-3.083.96-4.935 0-1.853-.306-3.492-.913-4.913"/>
        <path fill="#0082BA" d="m87.93 3.245-8.695 23.788-8.74-23.788h-5.143l-.956 28.924h3.78l.317-24.112 8.696 23.697h3.869l8.649-23.65.273 24.065h3.913l-.91-28.924zM112.58 19.119l-10.698.09a7.38 7.38 0 0 1 .57-2.039 6.344 6.344 0 0 1 1.183-1.792 5.631 5.631 0 0 1 1.82-1.284c.714-.322 1.51-.483 2.39-.483 1.638 0 2.838.474 3.596 1.424.759.947 1.139 2.203 1.139 3.764v.32zm-4.371-8.84c-1.456 0-2.814.278-4.072.833a9.382 9.382 0 0 0-3.256 2.362c-.91 1.017-1.631 2.228-2.16 3.63-.533 1.406-.799 2.972-.799 4.699 0 1.605.257 3.085.775 4.443.516 1.358 1.234 2.53 2.16 3.517a9.545 9.545 0 0 0 3.324 2.291c1.29.54 2.723.81 4.301.81 1.335 0 2.602-.147 3.802-.44 1.2-.293 2.268-.734 3.208-1.32l-.681-3.516c-.85.572-1.83.999-2.936 1.283-1.108.287-2.208.43-3.3.43-1.003 0-1.92-.178-2.756-.53a6.224 6.224 0 0 1-2.137-1.47 7.114 7.114 0 0 1-1.412-2.231c-.35-.859-.54-1.809-.57-2.852v-.184c2.61 0 4.948-.014 7.01-.047.88-.03 1.737-.044 2.572-.044h4.439c.152-.465.266-.997.34-1.599.078-.6.115-1.195.115-1.78 0-2.53-.69-4.542-2.07-6.04-1.384-1.496-3.346-2.245-5.897-2.245zM120.282 32.169h3.778V.375l-3.778.602zM140.483 30.272a37.545 37.545 0 0 1-.226-1.158c-.061-.338-.108-.508-.138-.508a11.37 11.37 0 0 1-1.867.578 8.845 8.845 0 0 1-1.911.208c-1.881 0-2.791-1.001-2.73-3.008l.32-11.986h6.508l.135-3.423h-6.509l.138-4.861h-3.598l-.09 4.583-3.46 1.064-.138 2.406 3.461.231-.32 11.848c-.06 2.313.428 3.995 1.459 5.043 1.032 1.05 2.562 1.573 4.597 1.573 1.548 0 3.111-.308 4.689-.924a18.185 18.185 0 0 0-.32-1.666"/>
        <path fill="#57A4C3" d="M61.818 52.431h2.077l-.357-3.383z"/>
        <path d="M129.727 55.89h-2.56l1.001-5.895-2.487 5.804h-2.899l-.287-5.804-1.272 5.895h-2.595l2.024-8.716h3.813l.23 6.023 2.526-6.023h3.902l-1.396 8.716zm-11.738-5.003-.161.872c-.047.255-.1.542-.161.857-.226 1.225-.714 2.114-1.459 2.665-.746.553-1.668.828-2.765.828-1.277 0-2.25-.266-2.917-.8-.67-.535-1.004-1.263-1.004-2.184 0-.327.035-.656.108-.983l.966-4.968h2.72l-.912 4.877a2.91 2.91 0 0 0-.088.71c0 .75.417 1.129 1.253 1.129.443 0 .765-.126.966-.373.203-.25.345-.586.43-1.01.07-.316.13-.598.177-.848.049-.247.103-.532.16-.854a156.606 156.606 0 0 1 .7-3.631h2.703a531.248 531.248 0 0 1-.52 2.711c-.07.341-.135.675-.196 1.002zm-10.777 5.003h-2.702l1.647-8.716h2.738l-1.683 8.716zm-3.587-5.769a6.92 6.92 0 0 0-.78-.39 10.207 10.207 0 0 0-1.743-.583c-.287-.065-.55-.1-.788-.1-.276 0-.497.053-.67.156a.502.502 0 0 0-.261.464.39.39 0 0 0 .098.271c.065.075.168.147.305.22.138.072.313.149.528.228.214.077.478.173.788.28.308.11.607.231.894.364.287.136.544.299.77.493.227.193.409.417.546.672.138.256.206.56.206.91 0 .5-.096.938-.287 1.32-.192.381-.453.7-.787.955-.333.255-.73.446-1.19.574-.46.126-.952.192-1.477.192-.31 0-.64-.026-.985-.075a10.719 10.719 0 0 1-1.048-.198 7.618 7.618 0 0 1-1.01-.32 5.167 5.167 0 0 1-.859-.427l.464-2.257c.238.145.51.294.806.446.298.152.604.29.914.408.31.124.623.22.938.292a4 4 0 0 0 .887.11c.357 0 .635-.059.833-.173a.53.53 0 0 0 .278-.518.458.458 0 0 0-.072-.254.746.746 0 0 0-.269-.22 5.03 5.03 0 0 0-.536-.245 31.313 31.313 0 0 0-.897-.338 6.235 6.235 0 0 1-.893-.39 3.726 3.726 0 0 1-.761-.527 2.384 2.384 0 0 1-.53-.693 1.977 1.977 0 0 1-.196-.901c0-.483.086-.913.26-1.281.172-.372.415-.68.725-.93a3.2 3.2 0 0 1 1.11-.564c.43-.126.902-.191 1.413-.191.658 0 1.314.086 1.97.254.655.17 1.252.413 1.79.728l-.484 2.238zm-8.936.455-.357 1.893h-3.474l-.266 1.384h4.17l-.395 2.037h-6.676l1.629-8.716h6.695l-.378 2.037h-4.152l-.25 1.365h3.454zm-8.903 5.405h-2.989l-1.932-5.223-.95 5.132H77.32l1.575-8.716h3.043l1.97 5.15.859-5.15h2.648l-1.629 8.807zm-14.604-2.54c.341.358.833.538 1.478.538.203 0 .396-.012.58-.038.187-.023.362-.053.53-.09l.25-1.2h-1.862l.36-1.802h4.097l-.859 4.73a8.032 8.032 0 0 1-3.008.565c-.679 0-1.309-.09-1.89-.273a4.427 4.427 0 0 1-1.5-.79c-.42-.346-.75-.771-.983-1.275a4.003 4.003 0 0 1-.352-1.701c0-.68.114-1.33.343-1.949a4.76 4.76 0 0 1 1.026-1.645 5.025 5.025 0 0 1 1.69-1.148c.67-.285 1.452-.427 2.348-.427.644 0 1.213.04 1.708.119.495.079.987.198 1.477.354l-.537 2.348a7.487 7.487 0 0 0-1.325-.446 5.573 5.573 0 0 0-1.323-.172c-.467 0-.87.072-1.219.217-.345.147-.634.35-.868.611a2.488 2.488 0 0 0-.518.936 3.93 3.93 0 0 0-.17 1.183c.012.546.189.999.527 1.356zm-6.984 2.449-.196-1.601h-2.99l-.877 1.6h-2.738l4.833-8.715h3.454l1.2 8.716h-2.686zm-10.192 0 1.004-5.895-2.49 5.804H49.62l-.287-5.804-1.27 5.895h-2.596l2.023-8.716h3.813l.233 6.023 2.523-6.023h3.902l-1.395 8.716h-2.56zM39.792 41.645l-3.816 19.757h100.822l3.816-19.757H39.792z" fill="#57A4C3"/>
        <path fill="#FEFEFE" d="m54.06 47.174-2.524 6.023-.233-6.023H47.49l-2.023 8.716h2.597l1.27-5.895.287 5.804h2.898l2.49-5.804-1.003 5.895h2.56l1.395-8.716zM61.818 52.431l1.72-3.383.357 3.383h-2.077zm.413-5.257-4.833 8.716h2.737l.878-1.601h2.99l.195 1.6h2.686l-1.2-8.715h-3.453zM71.344 49.968c.233-.262.523-.465.868-.612.348-.145.752-.217 1.218-.217.406 0 .847.056 1.324.173.478.114.919.263 1.325.445l.537-2.347a10.14 10.14 0 0 0-1.477-.355 10.89 10.89 0 0 0-1.709-.119c-.896 0-1.678.142-2.347.427a5.025 5.025 0 0 0-1.69 1.148 4.76 4.76 0 0 0-1.027 1.646 5.579 5.579 0 0 0-.343 1.948c0 .63.12 1.197.353 1.701.233.505.562.93.982 1.275.42.345.922.609 1.5.79a6.294 6.294 0 0 0 1.89.274 8.032 8.032 0 0 0 3.009-.565l.859-4.73h-4.098l-.36 1.801h1.863l-.25 1.2a5.678 5.678 0 0 1-.53.09 4.218 4.218 0 0 1-.58.038c-.645 0-1.137-.18-1.478-.537-.338-.357-.516-.81-.527-1.355 0-.425.056-.82.17-1.184.112-.364.287-.676.518-.935M83.909 52.324l-1.97-5.15h-3.043l-1.575 8.715h2.595l.95-5.131 1.932 5.222h2.99l1.628-8.807h-2.648zM95.636 49.211l.379-2.037h-6.696L87.69 55.89h6.677l.394-2.037h-4.17l.266-1.384h3.475l.357-1.893h-3.454l.25-1.365zM100.348 46.9c-.511 0-.983.065-1.412.191a3.2 3.2 0 0 0-1.111.565c-.31.25-.553.558-.726.929-.172.368-.259.798-.259 1.28 0 .341.066.643.196.902.133.261.308.492.53.693.22.198.474.375.76.527.285.152.584.282.895.39.37.135.67.247.896.338.226.091.406.173.536.245.131.073.22.145.269.22a.458.458 0 0 1 .072.254.53.53 0 0 1-.278.518c-.198.114-.476.173-.833.173a4 4 0 0 1-.886-.11 6.391 6.391 0 0 1-.939-.292 9.678 9.678 0 0 1-.914-.408 12.734 12.734 0 0 1-.806-.446l-.464 2.257c.25.156.537.3.859.427.322.128.658.233 1.01.32.353.084.703.151 1.048.198.346.049.675.075.985.075.525 0 1.017-.066 1.477-.192.46-.128.857-.32 1.19-.574.334-.254.595-.574.787-.954.191-.383.287-.822.287-1.321 0-.35-.068-.654-.206-.91a2.354 2.354 0 0 0-.546-.672 3.418 3.418 0 0 0-.77-.493 10.516 10.516 0 0 0-.894-.364c-.31-.107-.574-.203-.788-.28a4.512 4.512 0 0 1-.528-.229 1.065 1.065 0 0 1-.305-.219.39.39 0 0 1-.098-.27c0-.208.086-.362.26-.465.174-.103.395-.156.67-.156.239 0 .502.035.79.1a10.207 10.207 0 0 1 1.743.583c.294.126.553.257.78.39l.482-2.238a6.989 6.989 0 0 0-1.79-.728 7.906 7.906 0 0 0-1.97-.254M104.51 55.89h2.702l1.683-8.716h-2.737zM116.004 47.173a156.606 156.606 0 0 0-.7 3.631c-.058.322-.112.607-.161.854-.047.25-.107.532-.177.847-.084.425-.227.761-.43 1.01-.203.248-.525.374-.966.374-.835 0-1.253-.378-1.253-1.13 0-.23.028-.466.089-.709l.912-4.877h-2.721l-.966 4.968a4.54 4.54 0 0 0-.107.983c0 .922.333 1.65 1.003 2.184.667.535 1.64.8 2.917.8 1.097 0 2.019-.275 2.765-.828.745-.55 1.233-1.44 1.459-2.665l.161-.856.161-.873c.06-.327.126-.66.196-1.001.156-.8.33-1.704.52-2.712h-2.702zM124.696 53.197l-.231-6.023h-3.813l-2.024 8.716h2.595l1.272-5.895.287 5.804h2.899l2.487-5.804-1 5.895h2.56l1.395-8.716h-3.902z"/>
    </g>
</svg>
