<svg width="150" height="61" viewBox="0 0 150 61" xmlns="http://www.w3.org/2000/svg">
    <g fill="none" fill-rule="evenodd">
        <path fill="#231F20" d="m148.382 3.642-.524 2.388-.525-2.388h-4.553v.863h1.012V6.99h1.055V4.505h.94l-.088 2.485h.97l.01-2.464.59 2.41h1.145L149 4.515l.01 2.475H150l-.118-3.348zM51.396 25.136c-.563.867-1.39 1.3-2.484 1.3-1.125 0-1.968-.426-2.53-1.277-.563-.85-.844-2.066-.844-3.647 0-1.61.28-2.856.844-3.738.562-.881 1.39-1.322 2.484-1.322 1.124 0 1.967.434 2.53 1.3.562.866.843 2.09.843 3.67 0 1.61-.28 2.848-.843 3.714m-36.877-8.29c-.745.62-1.922.944-3.533.974l-2.28.045v-7.384h2.462c2.978 0 4.468 1.177 4.468 3.533 0 1.27-.372 2.213-1.117 2.832m42.917-3.836c-1.064-.957-2.317-1.678-3.76-2.164-1.445-.486-2.986-.73-4.627-.73-1.641 0-3.2.25-4.673.752a11.682 11.682 0 0 0-3.362 1.789l-1.779 2.689.279-1.285.047-.22-.047.22-.28 1.287.967-4.457a6.15 6.15 0 0 0-1.71-.616 8.726 8.726 0 0 0-1.617-.16c-2.037 0-3.601 1.02-4.696 3.055v-2.826l-6.651.803-.001-.002-1.297.156-.757.092v.001l-1.528.185 2.048-1.093a8.857 8.857 0 0 0-2.773-4.04c-1.078-.896-2.408-1.587-3.988-2.074-1.58-.485-3.373-.729-5.38-.729H0v28.49h8.98v-7.658h2.28c4.376 0 7.68-.911 9.914-2.735a8.589 8.589 0 0 0 2.298-2.87v13.263h8.706V20.418c.548-.942 1.163-1.587 1.846-1.937a4.795 4.795 0 0 1 2.211-.525c.392 0 .768.044 1.134.12-.295 1.064-.446 2.223-.446 3.482 0 1.854.304 3.487.912 4.9.607 1.413 1.442 2.591 2.507 3.533 1.063.942 2.317 1.649 3.76 2.12 1.443.47 2.987.706 4.628.706 1.64 0 3.197-.25 4.672-.752a11.164 11.164 0 0 0 3.875-2.234c1.109-.987 1.982-2.188 2.62-3.6.639-1.414.958-3.032.958-4.856 0-1.823-.304-3.433-.912-4.832-.608-1.397-1.444-2.575-2.507-3.533"/>
        <path fill="#0082BA" d="m87.93 3.697-8.693 23.398-8.74-23.398h-5.144l-.956 28.45h3.779l.318-23.716 8.694 23.307h3.87l8.65-23.262.272 23.671h3.915l-.91-28.45zM112.58 19.311l-10.698.09a7.2 7.2 0 0 1 .57-2.008 6.198 6.198 0 0 1 1.183-1.76 5.634 5.634 0 0 1 1.82-1.265c.714-.316 1.51-.474 2.39-.474 1.64 0 2.838.466 3.597 1.4.758.933 1.138 2.167 1.138 3.702v.315zm-4.37-8.695c-1.456 0-2.815.273-4.074.82a9.4 9.4 0 0 0-3.255 2.321c-.91 1.002-1.631 2.193-2.162 3.574-.531 1.381-.796 2.92-.796 4.62 0 1.578.257 3.035.774 4.37.515 1.336 1.235 2.489 2.161 3.46a9.535 9.535 0 0 0 3.324 2.253c1.289.53 2.723.796 4.3.796 1.336 0 2.603-.144 3.802-.432 1.199-.288 2.268-.72 3.21-1.298l-.683-3.459c-.85.562-1.829.983-2.936 1.263-1.108.28-2.208.421-3.3.421-1.002 0-1.92-.173-2.754-.52a6.226 6.226 0 0 1-2.14-1.447 7.003 7.003 0 0 1-1.411-2.194c-.35-.844-.54-1.78-.57-2.805v-.18c2.61 0 4.947-.016 7.01-.046.881-.03 1.738-.045 2.573-.045H115.72c.151-.456.265-.98.342-1.571a13.87 13.87 0 0 0 .113-1.753c0-2.488-.691-4.468-2.07-5.94-1.382-1.472-3.347-2.208-5.896-2.208zM120.282 32.147h3.778V.875l-3.778.592zM140.484 30.281a35.483 35.483 0 0 1-.228-1.138c-.06-.333-.106-.5-.136-.5a11.5 11.5 0 0 1-1.867.569 9.08 9.08 0 0 1-1.911.204c-1.883 0-2.793-.986-2.732-2.959l.32-11.79h6.508l.137-3.368h-6.51l.137-4.78h-3.596l-.091 4.507-3.46 1.047-.137 2.367 3.46.228-.318 11.653c-.061 2.276.425 3.93 1.457 4.962 1.03 1.031 2.563 1.547 4.597 1.547 1.548 0 3.11-.303 4.689-.91a17.965 17.965 0 0 0-.319-1.639"/>
        <path d="M129.433 59.145h-28.246l3.086-15.71h28.245l-3.085 15.71zM3.816 41.573 0 61.007h130.965l3.817-19.434H3.816z" fill="#005A98"/>
        <path d="M81.09 48.823c.375-2.554-1.543-3.959-6.923-3.959-3.924 0-7.166.846-7.831 3.976-.36 1.692.317 3.045 2.576 3.4l5.274.812c.621.102.766.457.69.812-.122.575-.614.981-2.103.981-.744 0-1.25-.084-1.57-.254-.299-.186-.393-.456-.324-.862H65.24c.099-.297.185-.611.256-.948l1.593-7.493h-4.77l-1.554 7.307c-.33 1.557-1.332 2.047-2.888 2.047-1.556 0-2.349-.49-2.018-2.047l1.554-7.307h-4.77L51.05 52.78c-.104.488-.16.932-.17 1.337h-5.855l1.877-8.83h-4.77l-.573 2.695c-.072-1.737-1.21-2.695-3.892-2.695H27.82l-1.143 5.379h-2.64l-.626 2.943h2.64l-.799 3.756h4.771l.798-3.756H33.5l.626-2.943h-2.678l.54-2.538h3.078c1.201 0 1.58.373 1.385 1.286-.158.741-.565 1.12-1.406 1.222l-.633 2.973h1.519c2.675 0 4.234-1.12 5.013-2.735l-1.38 6.49h12.163l.154-.724c1.013.834 2.79 1.148 5.328 1.148 4.224 0 6.711-.867 7.843-3.558-.28 3.099 3.419 3.558 6.91 3.558 5.362 0 8.059-1.387 8.685-4.33.435-2.048-.816-3.164-3.143-3.52l-5.521-.846c-.46-.067-.565-.287-.493-.625.108-.508.674-.863 2.095-.863.524 0 1.051.068 1.435.254.403.169.626.473.522.964h5.549z" fill="#FEFEFE"/>
        <path d="M112.195 47.38c-.649 1.144-1.48 1.466-2.951 1.49h-.5l-.442 2.074h2.527l-1.001 4.708h3.122l1.76-8.272h-2.515zM122.068 51.54c-.19 1.06-1.025 2.18-2.514 2.18-1.454 0-1.824-1.12-1.634-2.18.236-1.109 1.082-2.23 2.536-2.23 1.49 0 1.847 1.121 1.612 2.23m-1.12-4.374c-3.456 0-5.614 1.573-6.246 4.374-.586 2.753.904 4.326 4.36 4.326 3.48 0 5.638-1.573 6.223-4.326.632-2.801-.857-4.374-4.337-4.374" fill="#005A98"/>
    </g>
</svg>
