<svg width="150" height="61" viewBox="0 0 150 61" xmlns="http://www.w3.org/2000/svg">
    <g fill="none" fill-rule="evenodd">
        <path fill="#231F20" d="m148.383 3.643-.525 2.387-.525-2.387h-4.553v.862h1.012V6.99h1.055V4.505h.94L145.7 6.99h.969l.01-2.463.59 2.41h1.146l.584-2.422.01 2.475H150l-.118-3.347zM51.396 25.136c-.563.867-1.39 1.3-2.484 1.3-1.125 0-1.968-.426-2.53-1.277-.563-.85-.843-2.066-.843-3.646 0-1.611.28-2.857.843-3.739.562-.88 1.39-1.322 2.484-1.322 1.124 0 1.967.434 2.53 1.3.562.866.843 2.09.843 3.67 0 1.61-.28 2.848-.843 3.714m-36.877-8.29c-.745.62-1.923.944-3.533.974l-2.28.045v-7.384h2.462c2.978 0 4.468 1.178 4.468 3.533 0 1.27-.373 2.214-1.117 2.832m42.917-3.835c-1.064-.957-2.317-1.68-3.76-2.165-1.445-.486-2.986-.73-4.627-.73-1.641 0-3.2.251-4.673.752a11.68 11.68 0 0 0-3.362 1.789l-1.779 2.69-.001.001.967-4.457a6.148 6.148 0 0 0-1.71-.615 8.733 8.733 0 0 0-1.617-.16c-2.037 0-3.601 1.019-4.696 3.054v-2.826l-10.234 1.235 2.048-1.093a8.859 8.859 0 0 0-2.772-4.04C20.14 5.55 18.81 4.86 17.23 4.373c-1.58-.485-3.373-.729-5.38-.729H0v28.49h8.98v-7.657h2.28c4.376 0 7.68-.912 9.914-2.735a8.592 8.592 0 0 0 2.298-2.871v13.263h8.706V20.42c.548-.942 1.163-1.588 1.846-1.938a4.794 4.794 0 0 1 2.212-.524c.39 0 .767.043 1.133.12-.295 1.063-.446 2.222-.446 3.48 0 1.855.304 3.488.912 4.902.607 1.412 1.442 2.59 2.507 3.532 1.063.943 2.317 1.65 3.76 2.12 1.443.47 2.987.706 4.628.706 1.64 0 3.197-.25 4.672-.752a11.161 11.161 0 0 0 3.875-2.233c1.109-.988 1.982-2.189 2.62-3.602.639-1.413.958-3.031.958-4.854s-.304-3.434-.912-4.833c-.608-1.397-1.444-2.575-2.507-3.532"/>
        <path fill="#231F20" d="m39.514 14.061.047-.219-.048.22z"/>
        <path fill="#231F20" d="m39.513 14.061-.28 1.287.002-.002.279-1.285zM24.23 11.304l1.297-.156-.001-.003-1.297.156v.003"/>
        <path d="M23.472 11.393v.002l.757-.091v-.002l-.757.09z" fill="#231F20"/>
        <path fill="#0082BA" d="m87.93 3.697-8.693 23.398-8.74-23.398h-5.144l-.956 28.45h3.779l.318-23.715 8.694 23.306h3.87l8.649-23.261.273 23.67h3.914l-.91-28.45zM112.58 19.312l-10.697.09c.09-.692.28-1.362.57-2.009a6.201 6.201 0 0 1 1.182-1.76 5.63 5.63 0 0 1 1.82-1.264c.714-.316 1.51-.475 2.39-.475 1.64 0 2.838.467 3.597 1.4.758.933 1.138 2.167 1.138 3.702v.316zm-4.37-8.695c-1.457 0-2.815.273-4.074.819a9.401 9.401 0 0 0-3.255 2.321c-.91 1.002-1.631 2.193-2.162 3.574-.53 1.381-.797 2.92-.797 4.62 0 1.578.258 3.035.774 4.37.516 1.336 1.237 2.489 2.163 3.46a9.533 9.533 0 0 0 3.323 2.253c1.289.53 2.723.796 4.301.796 1.335 0 2.602-.144 3.801-.432 1.199-.288 2.268-.72 3.21-1.297l-.683-3.46c-.85.562-1.829.983-2.936 1.263-1.108.281-2.208.421-3.3.421-1.003 0-1.92-.172-2.755-.52a6.236 6.236 0 0 1-2.139-1.447 6.994 6.994 0 0 1-1.411-2.193c-.35-.845-.54-1.78-.57-2.806v-.18c2.61 0 4.947-.015 7.01-.046.88-.03 1.738-.045 2.573-.045H115.72c.151-.456.265-.98.342-1.57.075-.592.114-1.176.114-1.754 0-2.487-.692-4.467-2.072-5.94-1.381-1.471-3.345-2.207-5.895-2.207zM120.282 32.148h3.778V.875l-3.778.592zM140.484 30.281a36.153 36.153 0 0 1-.228-1.138c-.06-.333-.106-.5-.136-.5a11.5 11.5 0 0 1-1.867.569 9.093 9.093 0 0 1-1.911.204c-1.882 0-2.793-.985-2.732-2.958l.32-11.79h6.508l.137-3.369h-6.51l.137-4.78h-3.596l-.09 4.507-3.461 1.047-.137 2.367 3.46.228-.318 11.653c-.061 2.276.425 3.93 1.457 4.962 1.03 1.031 2.563 1.548 4.597 1.548 1.548 0 3.11-.304 4.689-.91a17.937 17.937 0 0 0-.319-1.64"/>
        <path fill="#005A98" d="M3.816 41.573 0 61.007h100.822l3.817-19.434z"/>
        <path d="M81.09 48.823c.375-2.554-1.543-3.958-6.923-3.958-3.924 0-7.166.846-7.831 3.975-.36 1.692.317 3.045 2.576 3.4l5.274.812c.621.102.766.457.69.812-.122.576-.614.982-2.103.982-.744 0-1.25-.085-1.57-.254-.299-.186-.394-.457-.324-.863H65.24c.099-.296.184-.611.256-.947l1.593-7.494h-4.77l-1.554 7.308c-.33 1.556-1.332 2.047-2.888 2.047-1.556 0-2.349-.491-2.018-2.047l1.554-7.308h-4.77l-1.594 7.494c-.104.487-.16.932-.17 1.336h-5.855l1.877-8.83h-4.77l-.573 2.695c-.072-1.737-1.21-2.695-3.892-2.695H27.82l-1.143 5.379h-2.64l-.626 2.943h2.64l-.799 3.756h4.77l.8-3.755H33.5l.626-2.944h-2.678l.54-2.537h3.078c1.201 0 1.579.372 1.385 1.285-.158.741-.565 1.121-1.406 1.223l-.632 2.973h1.518c2.675 0 4.234-1.122 5.013-2.736l-1.38 6.491h12.163l.154-.724c1.013.833 2.79 1.147 5.328 1.147 4.223 0 6.711-.867 7.843-3.558-.28 3.099 3.419 3.558 6.91 3.558 5.362 0 8.059-1.387 8.685-4.33.435-2.047-.817-3.164-3.143-3.52l-5.521-.845c-.46-.068-.565-.288-.493-.626.108-.508.674-.863 2.095-.863.524 0 1.051.068 1.434.254.404.17.627.474.523.964h5.549z" fill="#FEFEFE"/>
    </g>
</svg>
