<svg width="451" height="470" viewBox="0 0 451 470" xmlns="http://www.w3.org/2000/svg" xmlns:xlink="http://www.w3.org/1999/xlink">
    <defs>
        <path id="rj4a5q347a" d="M0 469.623h450.775V0H0z"/>
    </defs>
    <g fill="none" fill-rule="evenodd">
        <path d="M62.519 314.492h-1.44l-1.117 5.798h2.125c2.557 0 3.637-1.693 3.637-3.313 0-1.44-1.008-2.485-3.205-2.485m-.504 11.056H59.17l-1.189 6.05h-7.093l4.357-22.507h8.678c5.69 0 9.075 3.457 9.075 7.562 0 4.934-3.421 8.895-10.983 8.895M84.74 319.714c2.016-.036 4.068-.612 4.068-2.917 0-1.692-1.548-2.34-3.06-2.34h-2.125l-1.116 5.257h2.232zm-4.322 11.884H73.36l4.357-22.435h9.867c5.186 0 8.535 2.809 8.535 6.734 0 3.78-2.377 6.374-5.726 7.455l3.313 8.246h-7.418l-2.629-6.987-1.909.217-1.332 6.77zM96.913 331.598l4.357-22.507h17.574l-1.044 5.51h-10.659l-.577 2.953h8.786l-1.08 5.51h-8.786l-.576 3.024h10.66l-1.082 5.51zM142.577 315.969l-6.626 15.305h-7.67l-.684-15.521-3.385 15.845h-6.698l5.22-22.58h10.048l.576 15.557 6.698-15.484h10.19l-3.671 22.507h-6.771zM150.143 331.598l4.357-22.507h7.13l-4.357 22.507zM162.53 324.504c0-.793.252-2.09.432-2.99l2.45-12.423h7.093l-2.413 12.567c-.108.613-.288 1.189-.288 1.873 0 1.837.973 2.953 3.35 2.953 2.232 0 3.06-1.37 3.492-3.565l2.701-13.828h7.058l-2.736 14.116c-1.225 6.266-5.15 8.93-10.912 8.93-6.734 0-10.19-2.952-10.227-7.633M210.715 315.969l-6.626 15.305h-7.67l-.684-15.521-3.385 15.845h-6.698l5.22-22.58h10.048l.576 15.557 6.698-15.484h10.19l-3.672 22.507h-6.77zM247.774 315.969c-2.305-.864-4.538-1.368-6.626-1.368-4.538 0-6.518 2.88-6.518 6.229 0 3.854 2.377 5.294 5.582 5.294 1.764 0 3.529-.504 5.22-1.152l1.046 5.87c-2.45 1.044-4.574 1.296-6.662 1.296-7.78 0-12.352-4.106-12.352-10.407 0-6.626 4.285-13.18 13.72-13.18 2.88 0 5.473.468 7.85 1.225l-1.26 6.193zM263.08 331.598l1.62-8.391h-7.202l-1.62 8.39h-7.094l4.357-22.506h7.094l-1.585 8.21h7.202l1.585-8.21h7.094l-4.357 22.507zM274.498 331.598l4.357-22.507h7.094l-3.24 16.709h8.678l-1.117 5.798zM306.009 314.097c-3.961 0-5.69 4.249-5.69 7.67 0 2.809 1.549 4.825 4.538 4.825 3.925 0 5.689-4.321 5.689-7.67 0-2.917-1.548-4.825-4.537-4.825m-1.548 18.113c-6.194 0-11.38-3.71-11.38-10.371 0-7.671 5.51-13.36 13.288-13.36 6.194 0 11.415 3.709 11.415 10.37 0 7.708-5.545 13.36-13.323 13.36M330.067 319.714c2.017-.036 4.068-.612 4.068-2.917 0-1.692-1.547-2.34-3.06-2.34h-2.125l-1.116 5.257h2.233zm-4.32 11.884h-7.06l4.358-22.435h9.867c5.185 0 8.534 2.809 8.534 6.734 0 3.78-2.377 6.374-5.726 7.455l3.313 8.246h-7.418l-2.629-6.987-1.908.217-1.332 6.77zM342.24 331.598l4.357-22.507h7.13l-4.357 22.507zM365.685 314.528h-1.693l-2.27 11.632h2.198c4.105 0 6.878-2.34 6.878-7.13 0-3.025-2.09-4.502-5.113-4.502m-2.81 17.07h-9.29l4.357-22.507h8.427c6.589 0 11.559 3.348 11.595 9.615.036 6.77-4.141 12.891-15.09 12.891M378.795 331.598l4.356-22.507h17.574l-1.044 5.51h-10.66l-.576 2.953h8.787l-1.081 5.51h-8.786l-.576 3.024h10.659l-1.08 5.51z" fill="#117F87"/>
        <path d="M105.158 368.276c-2.305-.864-4.538-1.368-6.626-1.368-4.538 0-6.518 2.881-6.518 6.23 0 3.853 2.377 5.293 5.582 5.293 1.764 0 3.53-.504 5.221-1.152l1.045 5.87c-2.449 1.044-4.574 1.296-6.662 1.296-7.779 0-12.352-4.106-12.352-10.407 0-6.626 4.285-13.18 13.72-13.18 2.881 0 5.473.468 7.85 1.225l-1.26 6.193zM120.5 366.8l-3.96 7.383h4.5l-.54-7.383zm8.607 17.105h-6.986l-.504-4.212h-7.888l-2.34 4.212h-7.201l12.82-22.506h8.894l3.205 22.506zM142.36 372.021c2.018-.036 4.07-.612 4.07-2.917 0-1.692-1.548-2.34-3.06-2.34h-2.125l-1.116 5.257h2.232zm-4.32 11.884h-7.058l4.357-22.435h9.867c5.186 0 8.535 2.81 8.535 6.735 0 3.78-2.377 6.373-5.726 7.454l3.313 8.246h-7.418l-2.63-6.987-1.908.216-1.332 6.771zM166.995 366.548h-2.197l-.792 4.033s1.297-.036 1.873-.036c2.772 0 3.96-.72 3.96-2.305 0-1.044-.72-1.692-2.844-1.692m-1.296 8.175h-2.485l-.792 4.033h2.664c3.025 0 3.818-.504 3.818-2.125 0-1.512-1.585-1.908-3.205-1.908m10.083 2.7c0 3.638-2.665 6.482-10.912 6.482h-10.335l4.357-22.506h9.616c6.59 0 8.57 2.592 8.57 5.582 0 2.808-1.91 4.753-4.61 5.653 2.053.828 3.314 2.737 3.314 4.79M191.808 366.404c-3.96 0-5.69 4.25-5.69 7.67 0 2.81 1.548 4.825 4.538 4.825 3.924 0 5.69-4.32 5.69-7.67 0-2.917-1.549-4.825-4.538-4.825m-1.549 18.113c-6.193 0-11.379-3.709-11.379-10.37 0-7.67 5.51-13.36 13.288-13.36 6.194 0 11.415 3.708 11.415 10.37 0 7.706-5.546 13.36-13.324 13.36M218.783 383.905l1.62-8.39h-7.202l-1.62 8.39h-7.094l4.357-22.507h7.094l-1.584 8.211h7.202l1.584-8.21h7.095l-4.358 22.506zM244.893 375.587l-1.62 8.318h-6.987l1.621-8.354-5.114-14.152h7.203l2.412 8.102 5.402-8.102h7.633zM265.637 366.836h-1.692l-2.27 11.632h2.198c4.105 0 6.878-2.341 6.878-7.13 0-3.025-2.09-4.502-5.114-4.502m-2.81 17.069h-9.29l4.358-22.506h8.427c6.589 0 11.559 3.349 11.595 9.615.036 6.769-4.141 12.89-15.09 12.89M290.127 372.021c2.017-.036 4.069-.612 4.069-2.917 0-1.692-1.548-2.34-3.061-2.34h-2.124l-1.116 5.257h2.232zm-4.321 11.884h-7.059l4.358-22.435h9.867c5.185 0 8.534 2.81 8.534 6.735 0 3.78-2.376 6.373-5.726 7.454l3.314 8.246h-7.418l-2.629-6.987-1.909.216-1.332 6.771zM315.553 366.8l-3.961 7.383h4.502l-.541-7.383zm8.607 17.105h-6.986l-.504-4.212h-7.887l-2.34 4.212h-7.202l12.82-22.506h8.894l3.205 22.506zM339.286 367.196l-3.24 16.71h-7.095l3.241-16.71h-6.806l1.117-5.798h20.706l-1.116 5.798zM345.806 383.905l4.357-22.507h17.574l-1.044 5.51h-10.66l-.576 2.953h8.786l-1.08 5.51h-8.786l-.576 3.024h10.659l-1.081 5.51z" fill="#1D9ED9"/>
        <path fill="#7351A1" d="M1.022 458.639 0 457.338l2.62-1.134v-.092L.074 454.94l.929-1.32 1.896 2.156.075-.02.353-2.786 1.505.483-1.45 2.454.056.055 2.676-.54v1.562l-2.676-.557-.056.056 1.394 2.47-1.505.448-.316-2.807-.056-.02zM15.724 455.517c-1.022-.67-1.97-.985-3.178-.985-2.528 0-4.22 1.747-4.22 4.628 0 2.88 1.71 4.72 4.257 4.72 1.245 0 2.472-.502 3.29-1.134l.26 1.58c-.948.595-2.286.966-3.587.966-3.401 0-5.817-2.36-5.817-6.058s2.434-6.114 5.817-6.114c1.32 0 2.732.372 3.68.966l-.502 1.43zM21.338 457.58c-1.691 0-2.62 1.319-2.62 3.159 0 1.821.985 3.178 2.658 3.178 1.69 0 2.62-1.301 2.62-3.141 0-1.821-.985-3.196-2.658-3.196m-.02 7.712c-2.415 0-4.105-1.784-4.105-4.534 0-2.733 1.746-4.554 4.2-4.554 2.434 0 4.088 1.803 4.088 4.554 0 2.731-1.784 4.534-4.182 4.534M27.268 465.014v-12.526l1.524-.242v12.768zM34.684 457.58c-1.69 0-2.62 1.319-2.62 3.159 0 1.821.985 3.178 2.658 3.178 1.691 0 2.62-1.301 2.62-3.141 0-1.821-.985-3.196-2.658-3.196m-.019 7.712c-2.416 0-4.106-1.784-4.106-4.534 0-2.733 1.746-4.554 4.2-4.554 2.434 0 4.088 1.803 4.088 4.554 0 2.731-1.784 4.534-4.182 4.534M42.139 465.014h-1.524v-8.55l1.524-.241v1.506c.595-.948 1.3-1.506 2.379-1.506.576 0 1.152.148 1.598.428l-.39 1.43a2.624 2.624 0 0 0-1.357-.39c-.818 0-1.598.595-2.23 1.766v5.557zM51.562 460.776c-2.527.334-3.457.854-3.457 1.896 0 .761.576 1.32 1.506 1.32.78 0 1.468-.39 1.951-.91v-2.306zm-.019 3.326c-.65.763-1.431 1.19-2.341 1.19-1.598 0-2.714-1.059-2.714-2.435 0-1.523 1.097-2.86 5.074-3.048v-.24c0-1.376-.539-1.934-1.914-1.934-.874 0-1.952.41-2.751.948l-.297-1.375c.743-.52 1.988-.986 3.196-.986 2.305 0 3.327.986 3.29 3.31v3.567c0 .706.093.836.836.836l-.092 1.282c-1.376.113-1.989-.37-2.212-1.115h-.075zM60.781 465.014v-5.353c0-1.467-.558-1.97-1.766-1.97-.892 0-1.747.465-2.23.929v6.394h-1.524v-8.55l1.524-.241v1.282c.781-.78 1.785-1.282 2.77-1.282 1.728 0 2.75 1.097 2.75 2.937v5.854h-1.524zM67.12 465.292c-1.653 0-2.526-.8-2.471-2.657l.13-4.758-1.412-.093.056-.967 1.412-.426.037-1.841h1.468l-.055 1.952h2.657l-.055 1.375h-2.658l-.13 4.813c-.02.799.353 1.208 1.115 1.208.52 0 1.04-.13 1.543-.315.018 0 .278 1.338.278 1.338a5.398 5.398 0 0 1-1.914.37M79.983 465.014v-5.353c0-1.467-.558-1.97-1.766-1.97-.892 0-1.747.465-2.23.929v6.394h-1.524v-8.55l1.524-.241v1.282c.78-.78 1.785-1.282 2.769-1.282 1.729 0 2.75 1.097 2.75 2.937v5.854h-1.523zM87.325 457.58c-1.69 0-2.62 1.319-2.62 3.159 0 1.821.985 3.178 2.658 3.178 1.691 0 2.62-1.301 2.62-3.141 0-1.821-.985-3.196-2.658-3.196m-.019 7.712c-2.416 0-4.106-1.784-4.106-4.534 0-2.733 1.746-4.554 4.2-4.554 2.434 0 4.088 1.803 4.088 4.554 0 2.731-1.784 4.534-4.182 4.534M95.82 465.292c-1.654 0-2.527-.8-2.472-2.657l.13-4.758-1.412-.093.056-.967 1.412-.426.037-1.841h1.468l-.055 1.952h2.657l-.055 1.375h-2.658l-.13 4.813c-.019.799.353 1.208 1.115 1.208.52 0 1.041-.13 1.543-.315.018 0 .28 1.338.28 1.338a5.407 5.407 0 0 1-1.916.37M107.53 460.776c-2.527.334-3.457.854-3.457 1.896 0 .761.576 1.32 1.506 1.32.78 0 1.468-.39 1.951-.91v-2.306zm-.019 3.326c-.65.763-1.43 1.19-2.34 1.19-1.599 0-2.715-1.059-2.715-2.435 0-1.523 1.097-2.86 5.074-3.048v-.24c0-1.376-.539-1.934-1.914-1.934-.874 0-1.952.41-2.75.948l-.298-1.375c.743-.52 1.988-.986 3.196-.986 2.305 0 3.327.986 3.29 3.31v3.567c0 .706.093.836.836.836l-.092 1.282c-1.376.113-1.989-.37-2.212-1.115h-.075zM111.23 465.014v-12.526l1.523-.242v12.768zM116.639 465.05l-2.621-8.548h1.636l1.802 6.319 1.97-6.282h1.395l2.174 6.3 1.56-6.337h1.692l-2.565 8.549h-1.393l-2.175-6.356-2.081 6.356zM131.935 460.776c-2.526.334-3.457.854-3.457 1.896 0 .761.576 1.32 1.506 1.32.78 0 1.468-.39 1.951-.91v-2.306zm-.018 3.326c-.65.763-1.431 1.19-2.341 1.19-1.598 0-2.714-1.059-2.714-2.435 0-1.523 1.097-2.86 5.073-3.048v-.24c0-1.376-.538-1.934-1.913-1.934-.874 0-1.952.41-2.751.948l-.297-1.375c.742-.52 1.987-.986 3.195-.986 2.305 0 3.327.986 3.29 3.31v3.567c0 .706.094.836.837.836l-.093 1.282c-1.376.113-1.989-.37-2.212-1.115h-.075z"/>
        <path d="m139.074 465.106-.576 1.524c-.818 2.156-1.673 2.806-2.992 2.806-.651 0-1.227-.185-1.803-.445l.446-1.413c.446.223.929.41 1.357.41.65 0 1.059-.355 1.635-1.84l.52-1.32-3.308-8.326h1.636l2.472 6.616 2.397-6.616h1.617l-3.401 8.604zM145.747 465.31c-1.041 0-2.193-.315-2.974-.798l.39-1.394c.707.483 1.748.798 2.62.798.967 0 1.693-.445 1.693-1.207 0-.855-1.004-1.134-2.008-1.413-1.208-.334-2.528-.928-2.528-2.49 0-1.58 1.339-2.583 3.049-2.583.985 0 1.969.241 2.75.631l-.39 1.394c-.706-.39-1.728-.63-2.435-.63-.911 0-1.505.37-1.505 1.058 0 .819.91 1.096 1.97 1.375 1.245.334 2.583.93 2.583 2.547 0 1.616-1.357 2.712-3.215 2.712M156.1 465.014h-1.524v-8.55l1.524-.241v1.506c.595-.948 1.301-1.506 2.38-1.506.575 0 1.151.148 1.597.428l-.39 1.43a2.626 2.626 0 0 0-1.357-.39c-.818 0-1.598.595-2.23 1.766v5.557zM166.583 459.791v-.13c0-1.264-.595-2.1-1.933-2.1-1.45 0-2.305 1.152-2.435 2.267l4.368-.037zm-4.441 1.227c.055 1.672 1.17 2.862 2.805 2.862.892 0 1.86-.241 2.547-.706l.279 1.412c-.762.465-1.785.706-2.862.706-2.566 0-4.311-1.84-4.311-4.441 0-2.751 1.82-4.628 4.2-4.628 2.063 0 3.251 1.3 3.251 3.327 0 .465-.073.984-.185 1.356l-5.725.037v.075zM173.48 457.56c-1.73 0-2.695 1.45-2.695 3.197 0 1.877.947 3.16 2.528 3.16.799 0 1.486-.352 2.063-.854v-4.851c-.502-.41-1.154-.651-1.897-.651zm1.895 11.784v-5.11c-.613.576-1.375 1.058-2.379 1.058-2.398 0-3.79-1.932-3.79-4.497 0-2.584 1.784-4.572 4.33-4.572.798 0 1.635.167 2.173.316l1.19-.316v13.12h-1.524zM180.673 456.502v5.353c0 1.467.558 1.969 1.673 1.969.985 0 1.84-.465 2.323-.93v-6.392h1.524v8.549l-1.524.24v-1.244c-.78.78-1.784 1.245-2.862 1.245-1.635 0-2.658-1.096-2.658-2.936v-5.854h1.524zM188.518 465.014v-8.55l1.524-.241v8.79h-1.524zm.762-10.39c-.687 0-1.003-.52-1.003-1.095 0-.577.316-1.097 1.003-1.097.688 0 1.004.52 1.004 1.097 0 .576-.316 1.096-1.004 1.096zM193.89 465.014h-1.524v-8.55l1.524-.241v1.506c.595-.948 1.3-1.506 2.379-1.506.576 0 1.152.148 1.598.428l-.39 1.43a2.624 2.624 0 0 0-1.357-.39c-.818 0-1.598.595-2.23 1.766v5.557zM204.373 459.791v-.13c0-1.264-.595-2.1-1.933-2.1-1.45 0-2.305 1.152-2.435 2.267l4.368-.037zm-4.442 1.227c.056 1.672 1.17 2.862 2.806 2.862.892 0 1.859-.241 2.547-.706l.278 1.412c-.762.465-1.784.706-2.862.706-2.565 0-4.311-1.84-4.311-4.441 0-2.751 1.82-4.628 4.2-4.628 2.063 0 3.252 1.3 3.252 3.327 0 .465-.074.984-.186 1.356l-5.724.037v.075zM211.269 457.599c-1.729 0-2.695 1.412-2.695 3.159 0 1.877.948 3.122 2.528 3.122.799 0 1.486-.315 2.063-.817v-4.851c-.502-.41-1.153-.613-1.896-.613zm1.896-5.111 1.523-.242v12.768h-1.523v-.78c-.614.576-1.375 1.058-2.379 1.058-2.398 0-3.791-1.932-3.791-4.497 0-2.583 1.784-4.572 4.33-4.572.613 0 1.3.11 1.84.279v-4.014z" fill="#7351A1"/>
        <mask id="hcr3vjos4b" fill="#fff">
            <use xlink:href="#rj4a5q347a"/>
        </mask>
        <path fill="#7351A1" mask="url(#hcr3vjos4b)" d="M220.229 461.223h4.572v-1.432h-4.572zM233.928 465.292c-2.695 0-4.182-1.84-4.182-4.534 0-2.714 1.803-4.535 4.293-4.535 1.097 0 1.97.242 2.75.724l-.39 1.395c-.705-.484-1.505-.706-2.36-.706-1.747 0-2.713 1.189-2.713 3.103 0 1.97 1.078 3.14 2.676 3.14.892 0 1.766-.24 2.453-.705l.279 1.412c-.762.465-1.728.706-2.806.706M241.939 457.58c-1.691 0-2.62 1.319-2.62 3.159 0 1.821.985 3.178 2.658 3.178 1.691 0 2.62-1.301 2.62-3.141 0-1.821-.985-3.196-2.658-3.196m-.019 7.712c-2.416 0-4.106-1.784-4.106-4.534 0-2.733 1.746-4.554 4.2-4.554 2.434 0 4.088 1.803 4.088 4.554 0 2.731-1.784 4.534-4.182 4.534M247.87 465.014v-12.526l1.523-.242v12.768zM255.285 457.58c-1.69 0-2.62 1.319-2.62 3.159 0 1.821.985 3.178 2.658 3.178 1.691 0 2.62-1.301 2.62-3.141 0-1.821-.985-3.196-2.658-3.196m-.019 7.712c-2.416 0-4.106-1.784-4.106-4.534 0-2.733 1.746-4.554 4.2-4.554 2.435 0 4.088 1.803 4.088 4.554 0 2.731-1.784 4.534-4.182 4.534M262.74 465.014h-1.524v-8.55l1.524-.241v1.506c.595-.948 1.301-1.506 2.38-1.506.575 0 1.15.148 1.597.428l-.39 1.43a2.627 2.627 0 0 0-1.358-.39c-.817 0-1.597.595-2.229 1.766v5.557zM271.903 465.014v-8.55l1.524-.241v8.79h-1.524zm.763-10.39c-.688 0-1.004-.52-1.004-1.095 0-.577.316-1.097 1.004-1.097.687 0 1.003.52 1.003 1.097 0 .576-.316 1.096-1.003 1.096zM277.981 465.31c-1.04 0-2.192-.315-2.974-.798l.391-1.394c.706.483 1.747.798 2.62.798.967 0 1.692-.445 1.692-1.207 0-.855-1.004-1.134-2.007-1.413-1.208-.334-2.528-.928-2.528-2.49 0-1.58 1.338-2.583 3.048-2.583.985 0 1.97.241 2.75.631l-.389 1.394c-.707-.39-1.729-.63-2.435-.63-.91 0-1.506.37-1.506 1.058 0 .819.911 1.096 1.97 1.375 1.245.334 2.584.93 2.584 2.547 0 1.616-1.358 2.712-3.216 2.712M292.331 465.014v-5.353c0-1.467-.558-1.97-1.766-1.97-.892 0-1.747.465-2.23.929v6.394h-1.525v-8.55l1.525-.241v1.282c.78-.78 1.784-1.282 2.77-1.282 1.728 0 2.75 1.097 2.75 2.937v5.854h-1.524zM299.673 457.58c-1.69 0-2.62 1.319-2.62 3.159 0 1.821.985 3.178 2.658 3.178 1.69 0 2.62-1.301 2.62-3.141 0-1.821-.985-3.196-2.658-3.196m-.02 7.712c-2.415 0-4.105-1.784-4.105-4.534 0-2.733 1.746-4.554 4.2-4.554 2.435 0 4.088 1.803 4.088 4.554 0 2.731-1.784 4.534-4.182 4.534M311.123 465.014v-5.353c0-1.467-.558-1.97-1.766-1.97-.891 0-1.747.465-2.229.929v6.394h-1.525v-8.55l1.525-.241v1.282c.78-.78 1.784-1.282 2.768-1.282 1.729 0 2.751 1.097 2.751 2.937v5.854h-1.524zM321.385 465.292c-1.654 0-2.527-.8-2.472-2.657l.13-4.758-1.413-.093.057-.967 1.412-.426.037-1.841h1.468l-.056 1.952h2.658l-.055 1.375h-2.66l-.128 4.813c-.02.799.353 1.208 1.115 1.208.52 0 1.04-.13 1.543-.315.018 0 .278 1.338.278 1.338a5.398 5.398 0 0 1-1.914.37M328.28 457.58c-1.69 0-2.62 1.319-2.62 3.159 0 1.821.984 3.178 2.657 3.178 1.692 0 2.62-1.301 2.62-3.141 0-1.821-.984-3.196-2.657-3.196m-.019 7.712c-2.416 0-4.107-1.784-4.107-4.534 0-2.733 1.747-4.554 4.2-4.554 2.435 0 4.09 1.803 4.09 4.554 0 2.731-1.785 4.534-4.183 4.534M338.764 465.014l-2.118-3.327-2.082 3.327h-1.747l2.918-4.35-2.75-4.162h1.709l1.952 3.067 1.858-3.067h1.747l-2.695 4.126 2.918 4.386zM341.497 465.014v-8.55l1.524-.241v8.79h-1.524zm.762-10.39c-.688 0-1.003-.52-1.003-1.095 0-.577.315-1.097 1.003-1.097.687 0 1.004.52 1.004 1.097 0 .576-.317 1.096-1.004 1.096zM348.969 465.292c-2.694 0-4.182-1.84-4.182-4.534 0-2.714 1.803-4.535 4.293-4.535 1.097 0 1.97.242 2.75.724l-.39 1.395c-.705-.484-1.504-.706-2.36-.706-1.747 0-2.713 1.189-2.713 3.103 0 1.97 1.079 3.14 2.676 3.14.893 0 1.766-.24 2.453-.705l.28 1.412c-.762.465-1.73.706-2.807.706M354.21 462.746c.763 0 1.58.706 1.58 1.71 0 1.524-1.374 2.695-2.75 3.624l-.65-.65c1.282-.93 1.895-1.71 1.895-2.361 0-.465-.334-.761-1.338-1.226.075-.595.484-1.097 1.264-1.097M366.72 465.014v-5.353c0-1.467-.558-1.97-1.766-1.97-.891 0-1.747.465-2.23.929v6.394H361.2v-8.55l1.525-.241v1.282c.78-.78 1.784-1.282 2.768-1.282 1.729 0 2.75 1.097 2.75 2.937v5.854h-1.523zM374.063 457.58c-1.691 0-2.62 1.319-2.62 3.159 0 1.821.983 3.178 2.656 3.178 1.692 0 2.62-1.301 2.62-3.141 0-1.821-.983-3.196-2.656-3.196m-.02 7.712c-2.416 0-4.106-1.784-4.106-4.534 0-2.733 1.746-4.554 4.2-4.554 2.435 0 4.089 1.803 4.089 4.554 0 2.731-1.784 4.534-4.183 4.534M385.513 465.014v-5.353c0-1.467-.558-1.97-1.766-1.97-.892 0-1.747.465-2.23.929v6.394h-1.525v-8.55l1.525-.241v1.282c.78-.78 1.784-1.282 2.769-1.282 1.729 0 2.75 1.097 2.75 2.937v5.854h-1.523zM395.438 465.31c-1.04 0-2.191-.315-2.974-.798l.392-1.394c.706.483 1.747.798 2.62.798.966 0 1.692-.445 1.692-1.207 0-.855-1.005-1.134-2.007-1.413-1.209-.334-2.529-.928-2.529-2.49 0-1.58 1.339-2.583 3.048-2.583.986 0 1.97.241 2.75.631l-.389 1.394c-.707-.39-1.728-.63-2.435-.63-.91 0-1.505.37-1.505 1.058 0 .819.91 1.096 1.97 1.375 1.244.334 2.583.93 2.583 2.547 0 1.616-1.358 2.712-3.216 2.712M402.911 465.292c-1.654 0-2.527-.8-2.472-2.657l.13-4.758-1.413-.093.057-.967 1.412-.426.037-1.841h1.468l-.056 1.952h2.658l-.055 1.375h-2.659l-.129 4.813c-.019.799.353 1.208 1.115 1.208.52 0 1.041-.13 1.543-.315.018 0 .278 1.338.278 1.338a5.398 5.398 0 0 1-1.914.37M410.7 460.776c-2.528.334-3.458.854-3.458 1.896 0 .761.576 1.32 1.506 1.32.78 0 1.468-.39 1.951-.91v-2.306zm-.02 3.326c-.65.763-1.43 1.19-2.34 1.19-1.6 0-2.715-1.059-2.715-2.435 0-1.523 1.096-2.86 5.074-3.048v-.24c0-1.376-.539-1.934-1.914-1.934-.874 0-1.952.41-2.75.948l-.299-1.375c.744-.52 1.99-.986 3.197-.986 2.305 0 3.327.986 3.29 3.31v3.567c0 .706.093.836.836.836l-.092 1.282c-1.376.113-1.99-.37-2.212-1.115h-.075zM414.398 465.014v-8.55l1.524-.241v8.79h-1.524zm.762-10.39c-.688 0-1.003-.52-1.003-1.095 0-.577.315-1.097 1.003-1.097.687 0 1.004.52 1.004 1.097 0 .576-.317 1.096-1.004 1.096zM423.766 465.014v-5.353c0-1.467-.558-1.97-1.766-1.97-.891 0-1.747.465-2.23.929v6.394h-1.524v-8.55l1.525-.241v1.282c.78-.78 1.784-1.282 2.768-1.282 1.729 0 2.75 1.097 2.75 2.937v5.854h-1.523zM427.54 465.014v-8.55l1.524-.241v8.79h-1.524zm.762-10.39c-.688 0-1.003-.52-1.003-1.095 0-.577.315-1.097 1.003-1.097.687 0 1.004.52 1.004 1.097 0 .576-.317 1.096-1.004 1.096zM436.907 465.014v-5.353c0-1.467-.558-1.97-1.766-1.97-.89 0-1.747.465-2.229.929v6.394h-1.525v-8.55l1.525-.241v1.282c.78-.78 1.784-1.282 2.768-1.282 1.73 0 2.751 1.097 2.751 2.937v5.854h-1.524zM443.712 461.353c1.114 0 1.82-.8 1.82-1.99 0-1.115-.65-1.913-1.951-1.913-1.115 0-1.858.817-1.858 2.007 0 1.134.762 1.896 1.989 1.896m-2.714 5.445c0 .91 1.078 1.58 2.695 1.58 1.598 0 2.862-.688 2.862-1.728 0-.93-.836-1.152-2.546-1.152-.54 0-1.171-.038-1.543-.075-.855.241-1.468.743-1.468 1.375m-.8-3.086c0-.705.559-1.356 1.413-1.654-.891-.52-1.412-1.448-1.412-2.62 0-1.673 1.245-3.215 3.456-3.215a5.32 5.32 0 0 1 2.194.483l2.193-.204.056 1.505-1.636-.298c.335.317.576 1.116.576 1.748 0 1.71-1.412 3.123-3.401 3.123-.427 0-.688-.056-1.19-.205-.352.13-.836.464-.836.892 0 .502.335.798 1.933.798h.78c2.547 0 3.718.781 3.718 2.286 0 1.877-2.026 3.272-4.591 3.272-2.25 0-3.96-.966-3.96-2.49 0-.967.653-1.765 1.824-1.99-.726-.314-1.116-.835-1.116-1.43M449.604 465.292a1.205 1.205 0 0 1-1.207-1.208c0-.632.502-1.171 1.207-1.171.688 0 1.172.539 1.172 1.17 0 .634-.485 1.209-1.172 1.209"/>
        <path fill="#7350A0" mask="url(#hcr3vjos4b)" d="m77.283 418.207-3.241 16.709h-7.094l3.24-16.709h-6.805l1.116-5.798h20.706l-1.116 5.798zM95.182 423.032c2.017-.036 4.07-.612 4.07-2.917 0-1.692-1.549-2.34-3.062-2.34h-2.125l-1.116 5.257h2.233zm-4.32 11.884h-7.06l4.358-22.435h9.867c5.185 0 8.534 2.81 8.534 6.734 0 3.781-2.377 6.374-5.726 7.455l3.313 8.246H96.73l-2.629-6.987-1.908.217-1.332 6.77zM120.608 417.81l-3.961 7.383h4.502l-.541-7.382zm8.607 17.106h-6.986l-.504-4.212h-7.887l-2.34 4.212h-7.202l12.819-22.507h8.895l3.205 22.507zM151.472 419.287c-2.305-.864-4.538-1.368-6.626-1.368-4.538 0-6.518 2.881-6.518 6.23 0 3.853 2.377 5.293 5.582 5.293 1.764 0 3.529-.504 5.22-1.152l1.046 5.87c-2.45 1.044-4.574 1.296-6.662 1.296-7.78 0-12.352-4.106-12.352-10.407 0-6.626 4.285-13.18 13.72-13.18 2.88 0 5.473.468 7.85 1.225l-1.26 6.193zM152.482 434.916l4.357-22.507h17.573l-1.044 5.51h-10.66l-.576 2.953h8.787l-1.08 5.51h-8.787l-.576 3.024h10.659l-1.08 5.51zM203.115 419.287c-2.305-.864-4.538-1.368-6.626-1.368-4.538 0-6.518 2.881-6.518 6.23 0 3.853 2.377 5.293 5.582 5.293 1.764 0 3.53-.504 5.221-1.152l1.045 5.87c-2.449 1.044-4.574 1.296-6.662 1.296-7.779 0-12.352-4.106-12.352-10.407 0-6.626 4.285-13.18 13.72-13.18 2.881 0 5.473.468 7.85 1.225l-1.26 6.193zM217.198 417.415c-3.961 0-5.69 4.249-5.69 7.67 0 2.809 1.548 4.825 4.538 4.825 3.924 0 5.689-4.321 5.689-7.67 0-2.917-1.548-4.825-4.537-4.825m-1.55 18.113c-6.192 0-11.378-3.709-11.378-10.371 0-7.671 5.51-13.36 13.288-13.36 6.194 0 11.415 3.709 11.415 10.371 0 7.707-5.546 13.36-13.324 13.36M229.876 434.916l4.357-22.507h7.094l-3.24 16.709h8.679l-1.117 5.798zM261.387 417.415c-3.961 0-5.69 4.249-5.69 7.67 0 2.809 1.548 4.825 4.538 4.825 3.924 0 5.689-4.321 5.689-7.67 0-2.917-1.548-4.825-4.537-4.825m-1.55 18.113c-6.192 0-11.377-3.709-11.377-10.371 0-7.671 5.509-13.36 13.287-13.36 6.194 0 11.415 3.709 11.415 10.371 0 7.707-5.546 13.36-13.324 13.36M285.444 423.032c2.017-.036 4.07-.612 4.07-2.917 0-1.692-1.549-2.34-3.06-2.34h-2.126l-1.116 5.257h2.232zm-4.32 11.884h-7.059l4.358-22.435h9.867c5.185 0 8.534 2.81 8.534 6.734 0 3.781-2.377 6.374-5.726 7.455l3.313 8.246h-7.418l-2.629-6.987-1.908.217-1.333 6.77zM310.87 417.81l-3.96 7.383h4.501l-.54-7.382zm8.607 17.106h-6.986l-.504-4.212H304.1l-2.34 4.212h-7.202l12.82-22.507h8.894l3.205 22.507zM340.978 412.41h6.842l-4.25 22.722h-7.779l-5.255-13.072-2.341 12.856h-6.844l4.214-22.435h7.887l5.257 12.856zM363.667 418.207l-3.241 16.709h-7.094l3.24-16.709h-6.805l1.116-5.798h20.706l-1.116 5.798zM377.103 419.901l-2.305-4.682 5.834-.972.072-.396-5.115-2.772 3.962-3.998 2.558 5.402.358-.108 1.37-5.69 4.716 2.16-4.428 4.25.216.324 5.906-.756-1.045 5.33-5.221-2.81-.325.324 2.522 5.367-5.402 1.08 1.044-6.014-.36-.108z"/>
        <path d="M320.195 177.719c0 53.116-42.372 96.174-94.64 96.174-52.269 0-94.64-43.058-94.64-96.174 0-53.116 42.371-96.174 94.64-96.174 52.268 0 94.64 43.058 94.64 96.174" fill="#FEFEFE" mask="url(#hcr3vjos4b)"/>
        <path d="M225.555 71.405c-57.78 0-104.618 47.598-104.618 106.314 0 58.715 46.839 106.313 104.618 106.313 57.779 0 104.618-47.598 104.618-106.313 0-58.716-46.84-106.314-104.618-106.314m0 15.103c49.359 0 89.515 40.917 89.515 91.211 0 50.293-40.156 91.21-89.515 91.21-49.36 0-89.515-40.917-89.515-91.21 0-50.294 40.156-91.21 89.515-91.21" fill="#7350A0" mask="url(#hcr3vjos4b)"/>
        <path d="M225.555 86.924c-49.345 0-89.347 40.65-89.347 90.794 0 50.145 40.002 90.796 89.347 90.796 49.345 0 89.347-40.65 89.347-90.796 0-50.144-40.002-90.794-89.347-90.794m0 15.102c40.938 0 74.244 33.956 74.244 75.693 0 41.737-33.306 75.692-74.244 75.692s-74.244-33.956-74.244-75.692c0-41.737 33.306-75.692 74.244-75.692" stroke="#1D9ED9" fill="#1D9ED9" mask="url(#hcr3vjos4b)"/>
        <path d="M225.459 102.35c-40.961 0-74.166 33.744-74.166 75.368 0 41.625 33.205 75.37 74.166 75.37 40.96 0 74.166-33.745 74.166-75.37 0-41.624-33.205-75.368-74.166-75.368m0 15.103c32.568 0 59.063 27.035 59.063 60.265 0 33.231-26.495 60.266-59.063 60.266s-59.063-27.035-59.063-60.266c0-33.23 26.495-60.265 59.063-60.265" fill="#117F87" mask="url(#hcr3vjos4b)"/>
        <path d="M194.68 162.491c1.665-.03 3.36-.514 3.36-2.447 0-1.42-1.279-1.964-2.528-1.964h-1.753l-.922 4.411h1.843zm-3.567 9.97h-5.826l3.597-18.823h8.144c4.28 0 7.045 2.357 7.045 5.65 0 3.173-1.962 5.348-4.726 6.254l2.734 6.92h-6.123l-2.17-5.863-1.575.182-1.1 5.68zM215.784 157.777c-3.27 0-4.696 3.565-4.696 6.436 0 2.356 1.278 4.048 3.745 4.048 3.24 0 4.696-3.626 4.696-6.435 0-2.447-1.278-4.049-3.745-4.049m-1.278 15.197c-5.113 0-9.393-3.112-9.393-8.7 0-6.436 4.548-11.21 10.968-11.21 5.113 0 9.423 3.112 9.423 8.701 0 6.466-4.578 11.21-10.998 11.21M243.814 159.349c-1.903-.725-3.745-1.148-5.47-1.148-3.744 0-5.38 2.418-5.38 5.227 0 3.233 1.963 4.44 4.607 4.44 1.457 0 2.913-.422 4.31-.966l.863 4.925c-2.022.876-3.775 1.087-5.5 1.087-6.42 0-10.195-3.444-10.195-8.731 0-5.56 3.537-11.058 11.326-11.058 2.376 0 4.518.393 6.48 1.028l-1.041 5.196zM252.611 161.585l6.777-8.007h6.66l-8.592 9.215 4.845 9.668h-6.688l-3.567-7.976h-.03c-.475 2.568-1.515 7.976-1.515 7.976h-5.856l3.596-18.883h5.827l-1.487 8.007h.03zM200.461 194.178c0-.694-.565-.906-3.21-1.964-2.467-.997-5.113-2.387-5.113-5.74 0-3.898 3.3-6.133 7.728-6.133 3.3 0 6.154.816 7.64 1.57l-1.04 5.077c-1.992-1.028-4.608-1.752-6.243-1.752-1.545 0-2.11.544-2.11 1.057 0 .725.683.906 3.33 1.904 2.852 1.086 5.022 2.477 5.022 5.196 0 4.32-3.27 6.707-8.412 6.707-2.972 0-6.093-.846-7.579-1.602l1.04-5.075c2.17 1.118 4.934 1.813 6.301 1.813 2.051 0 2.646-.393 2.646-1.058M219.841 185.296l-3.27 6.193h3.716l-.446-6.193zm7.104 14.35h-5.767l-.416-3.535h-6.509l-1.933 3.536h-5.944l10.582-18.883h7.341l2.646 18.883zM228.49 199.646l3.597-18.883h5.856l-2.676 14.02h7.164l-.922 4.863zM253.904 185.628l-2.675 14.019h-5.856l2.676-14.02h-5.619l.922-4.863h17.092l-.922 4.864z" fill="#117F87" mask="url(#hcr3vjos4b)"/>
        <path fill="#0F7E87" mask="url(#hcr3vjos4b)" d="m35.53 16.94-3.64 18.763h-7.966l3.64-18.762H19.92l1.253-6.51h23.251l-1.254 6.51zM59.058 26.362l-1.82 9.341h-7.844l1.82-9.38-5.742-15.893h8.086l2.71 9.1 6.065-9.1h8.573zM81.132 16.496h-1.618l-1.253 6.51h2.386c2.871 0 4.084-1.9 4.084-3.72 0-1.617-1.133-2.79-3.599-2.79m-.566 12.414h-3.195l-1.334 6.793h-7.966l4.893-25.272h9.745c6.39 0 10.19 3.881 10.19 8.491 0 5.54-3.842 9.988-12.333 9.988M92.612 35.703l4.893-25.272h19.732l-1.172 6.186h-11.969l-.647 3.316h9.866l-1.213 6.187h-9.866l-.647 3.396h11.97l-1.214 6.187zM123.9 35.703c-.334 0 .67-6.694.67-6.694 11.38-9.317 17.182-12.775 17.182-17.963 0-2.734-2.288-4.017-4.742-4.017-2.622 0-5.244 1.115-7.42 2.622l-1.673-6.304C131.152 1.227 135.057 0 138.851 0 144.43 0 150.4 2.733 150.4 9.372c0 8.09-7.922 12.998-16.68 19.302h14.671l-.837 7.03H123.9zM177.54 16.94l-3.64 18.763h-7.966l3.64-18.762h-7.643l1.253-6.51h23.251l-1.254 6.51zM196.944 22.36c2.265-.042 4.569-.688 4.569-3.276 0-1.9-1.738-2.629-3.437-2.629h-2.385l-1.254 5.904h2.507zm-4.852 13.343h-7.926l4.893-25.192h11.079c5.823 0 9.584 3.154 9.584 7.562 0 4.245-2.67 7.157-6.43 8.37l3.72 9.26h-8.33l-2.951-7.845-2.143.243-1.496 7.602zM209.92 35.703l4.892-25.272h19.732l-1.172 6.186h-11.969l-.647 3.316h9.866l-1.213 6.187h-9.866l-.647 3.396h11.97l-1.214 6.187zM249.058 16.496l-4.448 8.29h5.054l-.606-8.29zm9.664 19.207h-7.845l-.566-4.731h-8.856l-2.627 4.731h-8.087l14.394-25.272h9.988l3.599 25.272zM275.014 16.94l-3.64 18.763h-7.964l3.638-18.762h-7.642l1.254-6.51h23.25l-1.253 6.51zM281.642 35.703l4.893-25.272h19.732l-1.173 6.186h-11.97l-.645 3.316h9.866l-1.213 6.187h-9.867l-.646 3.396h11.968l-1.213 6.187zM318.272 16.537h-1.9l-2.547 13.06h2.466c4.61 0 7.724-2.628 7.724-8.006 0-3.396-2.346-5.054-5.743-5.054m-3.154 19.167h-10.431l4.892-25.273h9.462c7.4 0 12.98 3.76 13.02 10.796.04 7.602-4.65 14.477-16.942 14.477M354.497 28.384c0-.93-.769-1.213-4.367-2.628-3.357-1.335-6.955-3.195-6.955-7.683 0-5.216 4.488-8.209 10.513-8.209 4.49 0 8.371 1.092 10.392 2.103l-1.415 6.793c-2.709-1.375-6.268-2.345-8.49-2.345-2.104 0-2.872.728-2.872 1.415 0 .971.93 1.213 4.528 2.548 3.882 1.455 6.834 3.316 6.834 6.955 0 5.782-4.448 8.976-11.443 8.976-4.044 0-8.289-1.132-10.31-2.142l1.414-6.794c2.951 1.496 6.712 2.426 8.572 2.426 2.79 0 3.6-.525 3.6-1.415M380.17 16.496l-4.447 8.29h5.053l-.606-8.29zm9.664 19.207h-7.844l-.566-4.731h-8.856l-2.627 4.731h-8.088l14.395-25.272h9.987l3.599 25.272zM391.245 35.703l4.893-25.272h7.965l-3.639 18.762h9.745l-1.253 6.51zM425.128 16.94l-3.64 18.763h-7.964l3.638-18.762h-7.642l1.254-6.51h23.25l-1.253 6.51z"/>
    </g>
</svg>
