<svg width="21" height="13" viewBox="0 0 21 13" xmlns="http://www.w3.org/2000/svg">
    <g fill="none" fill-rule="evenodd">
        <path fill="#FFF" d="M0 12.887h20.182v-12H0z"/>
        <path fill="#B22234" d="M0 1.81h20V.887H0zM0 3.657h20v-.924H0zM0 5.503h20V4.58H0zM0 7.349h20v-.923H0zM0 9.195h20v-.923H0zM0 11.041h20v-.923H0zM0 12.887h20v-.923H0z"/>
        <path fill="#3C3B6E" d="M0 7.349h9.12V.887H0z"/>
        <path fill="#FFF" d="M.697 1.412H.428l.218.158-.083.255.217-.158.217.158-.083-.255.217-.158H.863L.78 1.157zM2.209 1.412H1.94l.218.158-.083.255.217-.158.217.158-.083-.255.217-.158h-.268l-.083-.255zM3.721 1.412h-.269l.218.158-.083.255.217-.158.217.158-.083-.255.217-.158h-.268l-.083-.255zM5.233 1.412h-.269l.218.158-.083.255.217-.158.217.158-.082-.255.216-.158H5.4l-.083-.255zM6.745 1.412h-.269l.218.158-.083.255.217-.158.217.158-.082-.255.216-.158h-.268l-.083-.255zM8.257 1.412h-.269l.218.158-.083.255.217-.158.217.158-.083-.255.217-.158h-.268l-.083-.255zM1.536 1.805l-.083.255h-.268l.217.158-.083.255.217-.158.217.158-.083-.255.217-.158H1.62zM3.048 1.805l-.083.255h-.268l.217.158-.083.255.217-.158.217.158-.083-.255.217-.158h-.268zM4.56 1.805l-.083.255h-.268l.217.158-.083.255.217-.158.217.158-.083-.255.217-.158h-.268zM6.424 2.06h-.27l-.082-.255-.083.255H5.72l.218.158-.083.255.217-.158.217.158-.083-.255zM7.584 1.805l-.083.255h-.268l.217.158-.083.255.217-.158.217.158-.083-.255.217-.158h-.268zM.78 2.453l-.083.255H.429l.217.158-.083.255.217-.158.217.158-.083-.255.217-.158H.863zM2.292 2.453l-.083.255H1.94l.217.158-.083.255.217-.158.217.158-.083-.255.217-.158h-.268zM3.804 2.453l-.083.255h-.268l.217.158-.083.255.217-.158.217.158-.083-.255.217-.158h-.268zM5.316 2.453l-.083.255h-.268l.217.158-.083.255.217-.158.217.158-.083-.255.217-.158H5.4zM7.18 2.708h-.27l-.082-.255-.083.255h-.269l.218.158-.083.255.217-.158.217.158-.083-.255zM8.34 2.453l-.083.255h-.268l.217.158-.083.255.217-.158.217.158-.083-.255.217-.158h-.268zM1.888 3.356h-.27l-.082-.255-.083.255h-.269l.218.158-.083.255.217-.158.217.158-.083-.255zM3.4 3.356h-.27l-.082-.255-.083.255h-.269l.218.158-.083.255.217-.158.217.158-.083-.255zM4.912 3.356h-.27l-.082-.255-.083.255h-.269l.218.158-.083.255.217-.158.217.158-.083-.255zM6.424 3.356h-.27l-.082-.255-.083.255H5.72l.218.158-.083.255.217-.158.217.158-.083-.255zM7.936 3.356h-.27l-.082-.255-.083.255h-.269l.218.158-.083.255.217-.158.217.158-.083-.255zM.78 3.749l-.083.255H.429l.217.158-.083.255.217-.158.217.158-.083-.255.217-.158H.863zM2.292 3.749l-.083.255H1.94l.217.158-.083.255.217-.158.217.158-.083-.255.217-.158h-.268zM3.804 3.749l-.083.255h-.268l.217.158-.083.255.217-.158.217.158-.083-.255.217-.158h-.268zM5.316 3.749l-.083.255h-.268l.217.158-.083.255.217-.158.217.158-.083-.255.217-.158H5.4zM6.828 3.749l-.083.255h-.268l.217.158-.083.255.217-.158.217.158-.083-.255.217-.158h-.268zM8.34 3.749l-.083.255h-.268l.217.158-.083.255.217-.158.217.158-.083-.255.217-.158h-.268zM1.536 4.397l-.083.255h-.268l.217.158-.083.255.217-.158.217.158-.083-.255.217-.158H1.62zM3.048 4.397l-.083.255h-.268l.217.158-.083.255.217-.158.217.158-.083-.255.217-.158h-.268zM4.56 4.397l-.083.255h-.268l.217.158-.083.255.217-.158.217.158-.083-.255.217-.158h-.268zM6.072 4.397l-.083.255H5.72l.217.158-.083.255.217-.158.217.158-.083-.255.217-.158h-.268zM7.584 4.397l-.083.255h-.268l.217.158-.083.255.217-.158.217.158-.083-.255.217-.158h-.268zM1.132 5.3h-.27L.78 5.045.697 5.3H.428l.218.158-.083.255.217-.158.217.158-.083-.255zM2.644 5.3h-.27l-.082-.255-.083.255H1.94l.218.158-.083.255.217-.158.217.158-.083-.255zM4.156 5.3h-.27l-.082-.255-.083.255h-.269l.218.158-.083.255.217-.158.217.158-.083-.255zM5.668 5.3h-.27l-.082-.255-.083.255h-.269l.218.158-.083.255.217-.158.217.158-.083-.255zM7.18 5.3h-.27l-.082-.255-.083.255h-.269l.218.158-.083.255.217-.158.217.158-.083-.255zM8.692 5.3h-.27l-.082-.255-.083.255h-.269l.218.158-.083.255.217-.158.217.158-.083-.255zM1.619 5.948l-.083-.255-.083.255h-.268l.217.158-.083.255.217-.158.217.158-.083-.255.218-.158zM3.131 5.948l-.083-.255-.083.255h-.268l.217.158-.083.255.217-.158.217.158-.083-.255.218-.158zM4.643 5.948l-.083-.255-.083.255H4.21l.217.158-.083.255.217-.158.217.158-.083-.255.218-.158zM6.155 5.948l-.083-.255-.083.255h-.268l.217.158-.083.255.217-.158.217.158-.083-.255.218-.158zM7.667 5.948l-.083-.255-.083.255h-.268l.217.158-.083.255.217-.158.217.158-.083-.255.218-.158zM.863 6.596.78 6.341l-.083.255H.43l.217.158-.083.255.217-.158.217.158-.083-.255.218-.158zM2.375 6.596l-.083-.255-.083.255h-.268l.217.158-.083.255.217-.158.217.158-.083-.255.218-.158zM3.887 6.596l-.083-.255-.083.255h-.268l.217.158-.083.255.217-.158.217.158-.083-.255.218-.158zM5.399 6.596l-.083-.255-.083.255h-.268l.217.158-.083.255.217-.158.217.158-.083-.255.218-.158zM6.911 6.596l-.083-.255-.083.255h-.268l.217.158-.083.255.217-.158.217.158-.083-.255.218-.158zM8.423 6.596l-.083-.255-.083.255H7.99l.217.158-.083.255.217-.158.217.158-.083-.255.218-.158z"/>
    </g>
</svg>
